<?xml version="1.0" encoding="iso-8859-1"?>
<!-- Generator: Adobe Illustrator 19.0.0, SVG Export Plug-In . SVG Version: 6.00 Build 0)  -->
<svg version="1.1" id="Layer_1" xmlns="http://www.w3.org/2000/svg" xmlns:xlink="http://www.w3.org/1999/xlink" x="0px" y="0px"
	 viewBox="0 0 512 512" style="enable-background:new 0 0 512 512;" xml:space="preserve">
<circle style="fill:#273B7A;" cx="256" cy="256" r="256"/>
<path style="fill:#121149;" d="M293.928,509.199c89.366-13.272,163.668-72.721,197.853-153.316l-66.258-66.258l-57.491,18.068
	l-73.816-73.816L87.55,302.821L293.928,509.199z"/>
<path style="fill:#FFFFFF;" d="M256,195.663c-64.465,0-120.575,35.747-149.607,88.493h299.217
	C376.575,231.41,320.465,195.663,256,195.663z"/>
<path style="fill:#D0D1D3;" d="M256,195.663c-0.191,0-0.383,0.009-0.574,0.01v88.485h150.181
	C376.575,231.41,320.465,195.663,256,195.663z"/>
<path style="fill:#A6A8AA;" d="M412.444,309.441H99.556c-7.854,0-14.222-6.368-14.222-14.222l0,0
	c0-7.854,6.368-14.222,14.222-14.222h312.889c7.854,0,14.222,6.368,14.222,14.222l0,0
	C426.667,303.073,420.299,309.441,412.444,309.441z"/>
<path style="fill:#808183;" d="M412.444,280.997H255.426v28.444h157.019c7.854,0,14.222-6.368,14.222-14.222
	C426.667,287.365,420.299,280.997,412.444,280.997z"/>
<g>
</g>
<g>
</g>
<g>
</g>
<g>
</g>
<g>
</g>
<g>
</g>
<g>
</g>
<g>
</g>
<g>
</g>
<g>
</g>
<g>
</g>
<g>
</g>
<g>
</g>
<g>
</g>
<g>
</g>
</svg>
