<?xml version="1.0" encoding="iso-8859-1"?>
<!-- Generator: Adobe Illustrator 19.0.0, SVG Export Plug-In . SVG Version: 6.00 Build 0)  -->
<svg version="1.1" id="Layer_1" xmlns="http://www.w3.org/2000/svg" xmlns:xlink="http://www.w3.org/1999/xlink" x="0px" y="0px"
	 viewBox="0 0 512 512" style="enable-background:new 0 0 512 512;" xml:space="preserve">
<g>
	<circle style="fill:#D35933;" cx="256" cy="256" r="256"/>
	<circle style="fill:#D35933;" cx="256" cy="256" r="256"/>
</g>
<path style="fill:#B54324;" d="M264.523,511.843c137.349-4.494,247.332-117.165,247.475-255.574L344.416,88.686l-55.339,80.693
	l-80.693-80.693l-28.448,53.751l75.702,75.702l-57.097,83.256l11.431,11.431l-62.414,82.049L264.523,511.843z"/>
<path style="fill:#FFFFFF;" d="M333.629,158.301c2.877-26.671,8.549-49.504,12.164-62.216c1.534-5.394-2.507-10.752-8.114-10.752
	h-27.203c-4.167,0-7.837,2.97-8.466,7.089c-3.413,22.342-22.712,39.457-46.009,39.457s-42.596-17.115-46.009-39.457
	c-0.629-4.118-4.299-7.089-8.466-7.089h-27.203c-5.608,0-9.65,5.358-8.114,10.752c3.617,12.712,9.288,35.543,12.164,62.216
	c2.317,21.485-14.539,40.236-36.149,40.236l0,0v185.032c0,8.094,6.561,14.653,14.653,14.653h198.249
	c8.094,0,14.653-6.561,14.653-14.653V198.537l0,0C348.169,198.537,331.311,179.786,333.629,158.301z"/>
<g>
	<path style="fill:#D0D1D3;" d="M333.629,158.301c2.877-26.671,8.549-49.504,12.164-62.216c1.534-5.394-2.507-10.752-8.114-10.752
		h-27.203c-4.167,0-7.837,2.97-8.466,7.089c-3.413,22.342-22.712,39.457-46.009,39.457c-0.193,0-0.383-0.01-0.574-0.014v266.357
		h99.699c8.094,0,14.653-6.561,14.653-14.653V198.537C348.169,198.537,331.311,179.786,333.629,158.301z"/>
	<rect x="142.222" y="341.333" style="fill:#D0D1D3;" width="227.556" height="28.444"/>
</g>
<rect x="255.431" y="341.333" style="fill:#A6A8AA;" width="114.347" height="28.444"/>
<path style="fill:#FF7F4F;" d="M237.899,289.616c-2.857,0-5.172-2.315-5.172-5.172v-56.889c0-2.857,2.315-5.172,5.172-5.172
	s5.172,2.315,5.172,5.172v56.889C243.071,287.301,240.755,289.616,237.899,289.616z"/>
<path style="fill:#D35933;" d="M280.566,289.616c-10.693,0-19.394-8.701-19.394-19.394c0-2.857,2.315-5.172,5.172-5.172
	s5.172,2.315,5.172,5.172c0,4.991,4.06,9.051,9.051,9.051s9.051-4.06,9.051-9.051c0-4.991-4.06-9.051-9.051-9.051
	c-2.857,0-5.172-2.315-5.172-5.172s2.315-5.172,5.172-5.172c4.991,0,9.051-4.06,9.051-9.051c0-4.991-4.06-9.051-9.051-9.051
	s-9.051,4.06-9.051,9.051c0,2.857-2.315,5.172-5.172,5.172s-5.172-2.315-5.172-5.172c0-10.693,8.701-19.394,19.394-19.394
	s19.394,8.701,19.394,19.394c0,5.613-2.398,10.676-6.222,14.222c3.825,3.546,6.222,8.609,6.222,14.222
	C299.96,280.916,291.259,289.616,280.566,289.616z"/>
<g>
</g>
<g>
</g>
<g>
</g>
<g>
</g>
<g>
</g>
<g>
</g>
<g>
</g>
<g>
</g>
<g>
</g>
<g>
</g>
<g>
</g>
<g>
</g>
<g>
</g>
<g>
</g>
<g>
</g>
</svg>
