<?xml version="1.0" encoding="iso-8859-1"?>
<!-- Generator: Adobe Illustrator 19.0.0, SVG Export Plug-In . SVG Version: 6.00 Build 0)  -->
<svg version="1.1" id="Layer_1" xmlns="http://www.w3.org/2000/svg" xmlns:xlink="http://www.w3.org/1999/xlink" x="0px" y="0px"
	 viewBox="0 0 512 512" style="enable-background:new 0 0 512 512;" xml:space="preserve">
<circle style="fill:#FFEDB5;" cx="256" cy="256" r="256"/>
<path style="fill:#FEE187;" d="M256.034,512C397.403,511.981,512,397.372,512,256c0-0.012,0-0.024,0-0.036L398.222,142.186
	l-85.149,68.601l-11.964-11.964L85.333,341.297L256.034,512z"/>
<path style="fill:#38C6D9;" d="M256,284.444l28.444,85.297c85.621,1.724,142.222-28.444,142.222-28.444l-28.444-199.111
	c0,0-125.271,39.65-284.444,0L85.333,341.297c0,0,56.601,30.168,142.222,28.444L256,284.444z"/>
<path style="fill:#02B2B2;" d="M398.222,142.186c0,0-56.932,18.015-142.796,17.611v126.367l0.574-1.72l28.444,85.297
	c85.621,1.724,142.222-28.444,142.222-28.444L398.222,142.186z"/>
<g>
	<path style="fill:#273B7A;" d="M113.778,142.186L85.333,341.297c0,0,11.05,5.882,30.746,12.304l26.143-183.005L113.778,142.186z"/>
	<path style="fill:#273B7A;" d="M398.222,142.186l28.444,199.111c0,0-11.05,5.882-30.746,12.304l-26.143-183.005L398.222,142.186z"
		/>
</g>
<path style="fill:#3F739E;" d="M402.582,172.703l-4.36-30.517c0,0-125.271,39.65-284.444,0l-4.32,30.241
	C254.298,203.855,371.859,180.145,402.582,172.703z"/>
<path style="fill:#386895;" d="M402.582,172.703l-4.36-30.517c0,0-56.932,18.015-142.796,17.611v28.477
	C329.114,188.59,383.176,177.404,402.582,172.703z"/>
<g>
</g>
<g>
</g>
<g>
</g>
<g>
</g>
<g>
</g>
<g>
</g>
<g>
</g>
<g>
</g>
<g>
</g>
<g>
</g>
<g>
</g>
<g>
</g>
<g>
</g>
<g>
</g>
<g>
</g>
</svg>
