<?xml version="1.0" encoding="iso-8859-1"?>
<!-- Generator: Adobe Illustrator 19.0.0, SVG Export Plug-In . SVG Version: 6.00 Build 0)  -->
<svg version="1.1" id="Layer_1" xmlns="http://www.w3.org/2000/svg" xmlns:xlink="http://www.w3.org/1999/xlink" x="0px" y="0px"
	 viewBox="0 0 512 512" style="enable-background:new 0 0 512 512;" xml:space="preserve">
<circle style="fill:#273B7A;" cx="256" cy="256" r="256"/>
<path style="fill:#121149;" d="M508.761,296.738L339.07,127.047l-2.077,153.817L183.175,127.047l-43.77,142.386l-32.523,16.663
	l32.54,32.54l-32.54,56.929L242.99,511.672c4.31,0.215,8.647,0.328,13.01,0.328C383.519,512,489.246,418.759,508.761,296.738z"/>
<polygon style="fill:#FEE187;" points="136.706,375.567 106.882,375.567 146.949,256.272 176.773,256.272 "/>
<polygon style="fill:#FFC61B;" points="375.294,375.567 405.118,375.567 365.051,256.272 335.227,256.272 "/>
<path style="fill:#FFFFFF;" d="M178.052,184.875L178.052,184.875c-4.492,0-8.133-3.641-8.133-8.133v-43.379
	c0-4.493,3.641-8.133,8.133-8.133l0,0c4.493,0,8.133,3.641,8.133,8.133v43.38C186.185,181.234,182.544,184.875,178.052,184.875z"/>
<path style="fill:#D0D1D3;" d="M333.948,184.875L333.948,184.875c-4.492,0-8.133-3.641-8.133-8.133v-43.379
	c0-4.493,3.641-8.133,8.133-8.133l0,0c4.492,0,8.133,3.641,8.133,8.133v43.38C342.082,181.234,338.441,184.875,333.948,184.875z"/>
<path style="fill:#EAA22F;" d="M405.118,286.096H106.882v-52.115c0-37.102,30.077-67.179,67.179-67.179h163.88
	c37.102,0,67.179,30.077,67.179,67.179v52.115H405.118z"/>
<path style="fill:#E09112;" d="M405.118,233.979c0-37.102-30.077-67.179-67.179-67.179h-82.515v119.294h149.694V233.979z"/>
<g>
</g>
<g>
</g>
<g>
</g>
<g>
</g>
<g>
</g>
<g>
</g>
<g>
</g>
<g>
</g>
<g>
</g>
<g>
</g>
<g>
</g>
<g>
</g>
<g>
</g>
<g>
</g>
<g>
</g>
</svg>
