<?xml version="1.0" encoding="iso-8859-1"?>
<!-- Generator: Adobe Illustrator 19.0.0, SVG Export Plug-In . SVG Version: 6.00 Build 0)  -->
<svg version="1.1" id="Layer_1" xmlns="http://www.w3.org/2000/svg" xmlns:xlink="http://www.w3.org/1999/xlink" x="0px" y="0px"
	 viewBox="0 0 512 512" style="enable-background:new 0 0 512 512;" xml:space="preserve">
<circle style="fill:#273B7A;" cx="256" cy="256" r="256"/>
<path style="fill:#121149;" d="M511.521,271.467l-84.854-84.854l-242.783,9.051l1.724-2.155l-15.157-5.244l-83.156,3.16
	l96.589,96.589v65.796l-41.662,44.413L256,512C392.19,512,503.522,405.649,511.521,271.467z"/>
<path style="fill:#FFC61B;" d="M284.444,200.835c0-15.71,12.734-28.444,28.444-28.444s28.444,12.734,28.444,28.444v85.333h-56.889
	V200.835z"/>
<path style="fill:#FFFFFF;" d="M419.771,193.508H92.229c-3.808,0-6.896-3.088-6.896-6.896l0,0c0-3.808,3.088-6.896,6.896-6.896
	h327.542c3.808,0,6.896,3.088,6.896,6.896l0,0C426.667,190.421,423.579,193.508,419.771,193.508z"/>
<path style="fill:#D0D1D3;" d="M419.771,179.717H210.604v13.791h209.167c3.808,0,6.896-3.088,6.896-6.896
	S423.579,179.717,419.771,179.717z"/>
<path style="fill:#FFEDB5;" d="M284.444,200.835c0-15.71,12.734-28.444,28.444-28.444H170.667c-15.71,0-28.444,12.734-28.444,28.444
	v197.387h142.222V200.835z"/>
<path style="fill:#FEE187;" d="M210.604,172.391v225.832h73.84V200.835c0-15.71,12.734-28.444,28.444-28.444H210.604z"/>
<rect x="142.222" y="341.333" style="fill:#FF7F4F;" width="142.222" height="28.444"/>
<rect x="210.61" y="341.333" style="fill:#D35933;" width="73.84" height="28.444"/>
<g>
</g>
<g>
</g>
<g>
</g>
<g>
</g>
<g>
</g>
<g>
</g>
<g>
</g>
<g>
</g>
<g>
</g>
<g>
</g>
<g>
</g>
<g>
</g>
<g>
</g>
<g>
</g>
<g>
</g>
</svg>
