<?xml version="1.0" encoding="iso-8859-1"?>
<!-- Generator: Adobe Illustrator 19.0.0, SVG Export Plug-In . SVG Version: 6.00 Build 0)  -->
<svg version="1.1" id="Layer_1" xmlns="http://www.w3.org/2000/svg" xmlns:xlink="http://www.w3.org/1999/xlink" x="0px" y="0px"
	 viewBox="0 0 512 512" style="enable-background:new 0 0 512 512;" xml:space="preserve">
<circle style="fill:#FFAD9E;" cx="256" cy="256" r="256"/>
<path style="fill:#FF6262;" d="M315.661,504.994c96.616-23.066,171.965-100.893,191.417-198.861L323.427,122.48l-116.343-6.765
	l-24.207,24.207v116.507l-6.606,46.545v62.629L315.661,504.994z"/>
<path style="fill:#59595B;" d="M342.195,240.197h-24.135v-73.128c0-21.147-17.203-38.35-38.35-38.35h-47.421
	c-21.147,0-38.35,17.203-38.35,38.35v73.128h-24.135v-73.128c0-34.454,28.031-62.485,62.485-62.485h47.421
	c34.454,0,62.485,28.031,62.485,62.485V240.197z"/>
<path style="fill:#404042;" d="M279.711,104.584H256v24.135h23.711c21.147,0,38.35,17.203,38.35,38.35v73.128h24.135v-73.128
	C342.195,132.615,314.165,104.584,279.711,104.584z"/>
<circle style="fill:#3A3838;" cx="256" cy="284.444" r="113.778"/>
<path style="fill:#272525;" d="M369.778,284.444c0-62.838-50.94-113.778-113.778-113.778v227.556
	C318.838,398.222,369.778,347.283,369.778,284.444z"/>
<circle style="fill:#59595B;" cx="256" cy="284.444" r="56.889"/>
<path style="fill:#3A3535;" d="M312.889,284.444c0-31.418-25.471-56.889-56.889-56.889v113.778
	C287.418,341.333,312.889,315.863,312.889,284.444z"/>
<g>
</g>
<g>
</g>
<g>
</g>
<g>
</g>
<g>
</g>
<g>
</g>
<g>
</g>
<g>
</g>
<g>
</g>
<g>
</g>
<g>
</g>
<g>
</g>
<g>
</g>
<g>
</g>
<g>
</g>
</svg>
