<?xml version="1.0" encoding="iso-8859-1"?>
<!-- Generator: Adobe Illustrator 19.0.0, SVG Export Plug-In . SVG Version: 6.00 Build 0)  -->
<svg version="1.1" id="Layer_1" xmlns="http://www.w3.org/2000/svg" xmlns:xlink="http://www.w3.org/1999/xlink" x="0px" y="0px"
	 viewBox="0 0 512 512" style="enable-background:new 0 0 512 512;" xml:space="preserve">
<circle style="fill:#FFEDB5;" cx="256" cy="256" r="256"/>
<path style="fill:#FEE187;" d="M512,256c0-9.059-0.478-18.008-1.396-26.824l-71.439-71.439l-72.28,38.272l-208.717,44.475
	l67.179,67.179L72.835,354.263l156.341,156.341C237.992,511.522,246.941,512,256,512C397.384,512,512,397.384,512,256z"/>
<path style="fill:#3D3B3B;" d="M439.165,157.737c-23.416-16.825-46.833-16.825-70.249,0c-2.741,5.292-4.944,10.585-6.634,15.877
	c-42.41-5.075-84.821-5.075-127.231,0c-1.689-5.292-3.893-10.585-6.634-15.877c-23.416-16.825-46.833-16.825-70.249,0
	c-14.284,27.582-14.284,55.165,0,82.747c23.416,16.825,46.833,16.825,70.249,0c2.741-5.292,4.944-10.585,6.634-15.877
	c42.41,5.075,84.821,5.075,127.231,0c1.689,5.292,3.893,10.585,6.634,15.877c23.416,16.825,46.833,16.825,70.249,0
	C453.449,212.902,453.449,185.32,439.165,157.737z"/>
<path style="fill:#272525;" d="M439.165,157.737c-23.416-16.825-46.833-16.825-70.249,0c-2.741,5.292-4.944,10.585-6.634,15.877
	c-22.019-2.636-44.037-3.889-66.057-3.789v58.568c22.019,0.102,44.037-1.153,66.057-3.789c1.689,5.292,3.893,10.585,6.634,15.877
	c23.416,16.825,46.833,16.825,70.249,0C453.449,212.902,453.449,185.32,439.165,157.737z"/>
<path style="fill:#3D3B3B;" d="M353.832,271.515c-23.416-16.825-46.833-16.825-70.249,0c-2.741,5.292-4.944,10.585-6.634,15.877
	c-42.41-5.075-84.821-5.075-127.231,0c-1.689-5.292-3.893-10.585-6.634-15.877c-23.416-16.825-46.833-16.825-70.249,0
	c-14.284,27.582-14.284,55.165,0,82.747c23.416,16.825,46.833,16.825,70.249,0c2.741-5.292,4.944-10.585,6.634-15.877
	c42.41,5.075,84.821,5.075,127.231,0c1.689,5.292,3.893,10.585,6.634,15.877c23.416,16.825,46.833,16.825,70.249,0
	C368.116,326.68,368.116,299.098,353.832,271.515z"/>
<path style="fill:#272525;" d="M353.832,271.515c-23.416-16.825-46.833-16.825-70.249,0c-2.741,5.292-4.944,10.585-6.634,15.877
	c-22.114-2.646-44.23-3.899-66.345-3.786v58.565c22.114,0.114,44.23-1.139,66.345-3.786c1.689,5.292,3.893,10.585,6.634,15.877
	c23.416,16.825,46.833,16.825,70.249,0C368.116,326.68,368.116,299.098,353.832,271.515z"/>
<g>
</g>
<g>
</g>
<g>
</g>
<g>
</g>
<g>
</g>
<g>
</g>
<g>
</g>
<g>
</g>
<g>
</g>
<g>
</g>
<g>
</g>
<g>
</g>
<g>
</g>
<g>
</g>
<g>
</g>
</svg>
