<?xml version="1.0" encoding="iso-8859-1"?>
<!-- Generator: Adobe Illustrator 19.0.0, SVG Export Plug-In . SVG Version: 6.00 Build 0)  -->
<svg version="1.1" id="Layer_1" xmlns="http://www.w3.org/2000/svg" xmlns:xlink="http://www.w3.org/1999/xlink" x="0px" y="0px"
	 viewBox="0 0 512 512" style="enable-background:new 0 0 512 512;" xml:space="preserve">
<circle style="fill:#273B7A;" cx="256" cy="256" r="256"/>
<path style="fill:#121149;" d="M257.748,511.978c140.54-0.943,254.188-115.117,254.25-255.864L383.681,129.038l-21.59-5.563
	l-48.616-34.182l-135.84,7.461l-85.401,94.818V323.67l31.098,47.831l5.363,11.423L257.748,511.978z"/>
<polygon style="fill:#EAA22F;" points="164.205,359.038 242.983,359.038 269.241,179.547 137.947,179.547 "/>
<polygon style="fill:#E09112;" points="269.241,179.547 202.559,179.547 202.559,359.038 242.983,359.038 "/>
<g>
	<polygon style="fill:#C92F00;" points="263.487,218.879 143.701,218.879 153.914,288.68 253.275,288.68 	"/>
	<rect x="135.034" y="159.185" style="fill:#C92F00;" width="137.102" height="27.422"/>
</g>
<g>
	<polygon style="fill:#930000;" points="263.487,218.879 202.559,218.879 202.559,288.682 253.275,288.682 	"/>
	<rect x="202.559" y="159.185" style="fill:#930000;" width="69.594" height="27.422"/>
</g>
<g>
	<path style="fill:#FEE187;" d="M387.42,316.657H222.887l0,0c0-30.289,24.555-54.844,54.844-54.844h54.844
		C362.865,261.813,387.42,286.368,387.42,316.657L387.42,316.657z"/>
	<path style="fill:#FEE187;" d="M250.308,371.502h109.689c15.145,0,27.422-12.278,27.422-27.422l0,0H222.885l0,0
		C222.885,359.224,235.163,371.502,250.308,371.502z"/>
</g>
<g>
	<path style="fill:#FFC61B;" d="M387.42,316.657c0-30.291-24.555-54.844-54.844-54.844h-28.881v54.844H387.42L387.42,316.657z"/>
	<path style="fill:#FFC61B;" d="M303.695,344.079v27.422h56.303c15.145,0,27.422-12.278,27.422-27.422H303.695z"/>
</g>
<path style="fill:#D35933;" d="M382.39,348.65H227.916c-8.744,0-15.832-7.089-15.832-15.832v-4.899
	c0-8.744,7.089-15.832,15.832-15.832H382.39c8.744,0,15.832,7.089,15.832,15.832v4.899
	C398.222,341.561,391.134,348.65,382.39,348.65z"/>
<path style="fill:#B54324;" d="M382.39,312.087h-78.695v36.562h78.695c8.744,0,15.832-7.089,15.832-15.832v-4.899
	C398.222,319.174,391.134,312.087,382.39,312.087z"/>
<path style="fill:#FFFFFF;" d="M256,75.852c-99.333,0-180.148,80.815-180.148,180.148S156.667,436.148,256,436.148
	S436.148,355.333,436.148,256S355.333,75.852,256,75.852z M256,94.815c41.034,0,78.529,15.422,107.015,40.763L135.578,363.015
	C110.237,334.529,94.815,297.034,94.815,256C94.815,167.122,167.122,94.815,256,94.815z M256,417.185
	c-41.034,0-78.529-15.422-107.015-40.763l227.437-227.437c25.341,28.486,40.763,65.981,40.763,107.015
	C417.185,344.878,344.878,417.185,256,417.185z"/>
<path style="fill:#D0D1D3;" d="M256,75.852c-0.191,0-0.383,0.007-0.574,0.007v18.963c0.191,0,0.383-0.007,0.574-0.007
	c41.034,0,78.529,15.422,107.015,40.763L255.426,243.167v26.815l120.996-120.996c25.341,28.484,40.763,65.979,40.763,107.013
	c0,88.878-72.307,161.185-161.185,161.185c-0.193,0-0.381-0.012-0.574-0.014v18.97c0.191,0,0.383,0.007,0.574,0.007
	c99.333,0,180.148-80.815,180.148-180.148S355.333,75.852,256,75.852z"/>
<g>
</g>
<g>
</g>
<g>
</g>
<g>
</g>
<g>
</g>
<g>
</g>
<g>
</g>
<g>
</g>
<g>
</g>
<g>
</g>
<g>
</g>
<g>
</g>
<g>
</g>
<g>
</g>
<g>
</g>
</svg>
