<?xml version="1.0" encoding="iso-8859-1"?>
<!-- Generator: Adobe Illustrator 19.0.0, SVG Export Plug-In . SVG Version: 6.00 Build 0)  -->
<svg version="1.1" id="Layer_1" xmlns="http://www.w3.org/2000/svg" xmlns:xlink="http://www.w3.org/1999/xlink" x="0px" y="0px"
	 viewBox="0 0 512 512" style="enable-background:new 0 0 512 512;" xml:space="preserve">
<circle style="fill:#FEE187;" cx="256" cy="256" r="256"/>
<path style="fill:#FFC61B;" d="M315.227,505.101C428.053,478.373,512,376.997,512,256c0-4.148-0.107-8.27-0.303-12.371
	L398.222,130.155l-277.98,37.783l177.343,177.343l-99.311,42.867L315.227,505.101z"/>
<rect x="113.778" y="130.155" style="fill:#808183;" width="284.444" height="56.889"/>
<rect x="256" y="130.155" style="fill:#59595B;" width="142.222" height="56.889"/>
<polygon style="fill:#272525;" points="398.222,210.891 227.268,386.155 227.268,305.419 398.222,130.155 "/>
<polygon style="fill:#3A3838;" points="113.778,210.891 284.732,386.155 284.732,305.419 113.778,130.155 "/>
<circle style="fill:#C92F00;" cx="256" cy="343.057" r="73.266"/>
<path style="fill:#930000;" d="M329.266,343.057c0-40.464-32.802-73.266-73.266-73.266v146.532
	C296.464,416.323,329.266,383.521,329.266,343.057z"/>
<circle style="fill:#FFC61B;" cx="256" cy="343.057" r="57.725"/>
<path style="fill:#EAA22F;" d="M313.725,343.057c0-31.88-25.845-57.725-57.725-57.725v115.45
	C287.88,400.782,313.725,374.937,313.725,343.057z"/>
<path style="fill:#FF7F4F;" d="M256,379.706c-5.236,0-9.481-4.246-9.481-9.481V315.89c0-5.236,4.246-9.481,9.481-9.481
	c5.236,0,9.481,4.246,9.481,9.481v54.334C265.481,375.46,261.236,379.706,256,379.706z"/>
<path style="fill:#D35933;" d="M256,306.409v73.297c5.236,0,9.481-4.246,9.481-9.481V315.89
	C265.481,310.655,261.236,306.409,256,306.409z"/>
<g>
</g>
<g>
</g>
<g>
</g>
<g>
</g>
<g>
</g>
<g>
</g>
<g>
</g>
<g>
</g>
<g>
</g>
<g>
</g>
<g>
</g>
<g>
</g>
<g>
</g>
<g>
</g>
<g>
</g>
</svg>
