<?xml version="1.0" encoding="iso-8859-1"?>
<!-- Generator: Adobe Illustrator 19.0.0, SVG Export Plug-In . SVG Version: 6.00 Build 0)  -->
<svg version="1.1" id="Layer_1" xmlns="http://www.w3.org/2000/svg" xmlns:xlink="http://www.w3.org/1999/xlink" x="0px" y="0px"
	 viewBox="0 0 512 512" style="enable-background:new 0 0 512 512;" xml:space="preserve">
<circle style="fill:#FF7F4F;" cx="256" cy="256" r="256"/>
<path style="fill:#D35933;" d="M287.606,142.222h-111.48v59.039l-67.513,4.741l123.064,123.064l-115.734,5.565l34.209,34.209
	l-16.549,57.827l82.18,82.18C228.886,510.914,242.316,512,256,512c133.004,0,242.305-101.435,254.797-231.164L372.183,142.222
	l-32.337,2.794l-26.957-26.957l-2.439,29.496l-21.407,1.85L287.606,142.222z"/>
<path style="fill:#FFFFFF;" d="M320.646,426.667h-58.613l18.358-293.998c0.664-10.618,9.468-18.891,20.108-18.891l0,0
	c11.128,0,20.147,9.019,20.147,20.147V426.667z"/>
<path style="fill:#D0D1D3;" d="M320.646,133.925c0-11.128-9.019-20.147-20.147-20.147c-0.084,0-0.167,0.01-0.252,0.012v312.877
	h20.399V133.925z"/>
<path style="fill:#808183;" d="M128,341.333h142.222c7.854,0,14.222-6.368,14.222-14.222l0,0c0-7.854-6.368-14.222-14.222-14.222
	H128c-7.854,0-14.222,6.368-14.222,14.222l0,0C113.778,334.965,120.146,341.333,128,341.333z"/>
<path style="fill:#59595B;" d="M270.222,312.889h-71.111v28.444h71.111c7.854,0,14.222-6.368,14.222-14.222
	C284.444,319.257,278.076,312.889,270.222,312.889z"/>
<rect x="133.603" y="341.333" style="fill:#FFFFFF;" width="17.239" height="85.333"/>
<path style="fill:#808183;" d="M353.256,133.603H187.187c-13.862,0-25.14,11.278-25.14,25.141v31.747h-48.269
	c-4.761,0-8.62,3.858-8.62,8.62s3.858,8.62,8.62,8.62h113.778c4.761,0,8.62-3.858,8.62-8.62s-3.858-8.62-8.62-8.62h-48.269v-31.747
	c0-4.356,3.544-7.902,7.901-7.902h166.069c4.356,0,7.902,3.546,7.902,7.902v125.7c0,4.761,3.858,8.62,8.62,8.62
	s8.62-3.858,8.62-8.62v-125.7C378.397,144.88,367.12,133.603,353.256,133.603z"/>
<path style="fill:#59595B;" d="M353.256,133.603h-53.008v17.239h53.008c4.356,0,7.902,3.546,7.902,7.902v125.7
	c0,4.761,3.858,8.62,8.62,8.62s8.62-3.858,8.62-8.62v-125.7C378.397,144.88,367.12,133.603,353.256,133.603z"/>
<g>
	<path style="fill:#272525;" d="M343.919,243.933h51.717c7.14,0,12.929-5.789,12.929-12.929l0,0c0-7.14-5.789-12.929-12.929-12.929
		h-51.717c-7.14,0-12.929,5.789-12.929,12.929l0,0C330.99,238.144,336.779,243.933,343.919,243.933z"/>
	<path style="fill:#272525;" d="M343.919,281.859h51.717c7.14,0,12.929-5.789,12.929-12.929l0,0c0-7.14-5.789-12.929-12.929-12.929
		h-51.717c-7.14,0-12.929,5.789-12.929,12.929l0,0C330.99,276.07,336.779,281.859,343.919,281.859z"/>
</g>
<g>
</g>
<g>
</g>
<g>
</g>
<g>
</g>
<g>
</g>
<g>
</g>
<g>
</g>
<g>
</g>
<g>
</g>
<g>
</g>
<g>
</g>
<g>
</g>
<g>
</g>
<g>
</g>
<g>
</g>
</svg>
