<?xml version="1.0" encoding="iso-8859-1"?>
<!-- Generator: Adobe Illustrator 19.0.0, SVG Export Plug-In . SVG Version: 6.00 Build 0)  -->
<svg version="1.1" id="Layer_1" xmlns="http://www.w3.org/2000/svg" xmlns:xlink="http://www.w3.org/1999/xlink" x="0px" y="0px"
	 viewBox="0 0 512 512" style="enable-background:new 0 0 512 512;" xml:space="preserve">
<circle style="fill:#273B7A;" cx="256" cy="256" r="256"/>
<path style="fill:#121149;" d="M506.271,310.019L293.716,97.461l-67.022,2.238l-30.455,30.456v40.224l-0.183-0.183l-27.648,256.471
	l85.304,85.304c0.764,0.007,1.522,0.029,2.286,0.029C378.851,512,481.471,425.458,506.271,310.019z"/>
<path style="fill:#FFFFFF;" d="M188.107,290.373c-0.374,0-0.752-0.017-1.129-0.052c-6.637-0.615-11.517-6.497-10.899-13.131
	l11.276-121.31c0.615-6.637,6.513-11.524,13.131-10.899c6.637,0.615,11.517,6.497,10.899,13.131l-11.276,121.31
	C199.528,285.68,194.269,290.373,188.107,290.373z"/>
<path style="fill:#E09112;" d="M195.784,434.502h-12.791c-9.664,0-17.498-7.833-17.498-17.498V284.746
	c0-9.664,7.833-17.498,17.498-17.498h12.791c9.664,0,17.498,7.833,17.498,17.498v132.258
	C213.282,426.668,205.448,434.502,195.784,434.502z"/>
<path style="fill:#D0D1D3;" d="M323.891,290.373c-6.161,0-11.421-4.694-12.002-10.952l-11.274-121.31
	c-0.617-6.635,4.263-12.516,10.899-13.131c6.611-0.629,12.516,4.261,13.131,10.899l11.274,121.31
	c0.617,6.635-4.263,12.516-10.899,13.131C324.641,290.357,324.265,290.373,323.891,290.373z"/>
<path style="fill:#FF5419;" d="M316.216,434.502h12.791c9.664,0,17.498-7.833,17.498-17.498V284.746
	c0-9.664-7.833-17.498-17.498-17.498h-12.791c-9.664,0-17.498,7.833-17.498,17.498v132.258
	C298.718,426.668,306.552,434.502,316.216,434.502z"/>
<path style="fill:#D0D1D3;" d="M256,223.203c-37.795,0-68.542-30.748-68.542-68.542S218.205,86.118,256,86.118
	s68.542,30.748,68.542,68.542S293.795,223.203,256,223.203z M256,110.252c-24.486,0-44.408,19.921-44.408,44.408
	s19.921,44.408,44.408,44.408s44.408-19.921,44.408-44.408S280.486,110.252,256,110.252z"/>
<path style="fill:#A6A8AA;" d="M324.542,154.66c0-37.795-30.748-68.542-68.542-68.542v24.135c24.486,0,44.408,19.921,44.408,44.408
	S280.486,199.068,256,199.068v24.135C293.795,223.201,324.542,192.455,324.542,154.66z"/>
<g>
</g>
<g>
</g>
<g>
</g>
<g>
</g>
<g>
</g>
<g>
</g>
<g>
</g>
<g>
</g>
<g>
</g>
<g>
</g>
<g>
</g>
<g>
</g>
<g>
</g>
<g>
</g>
<g>
</g>
</svg>
