<?xml version="1.0" encoding="iso-8859-1"?>
<!-- Generator: Adobe Illustrator 19.0.0, SVG Export Plug-In . SVG Version: 6.00 Build 0)  -->
<svg version="1.1" id="Layer_1" xmlns="http://www.w3.org/2000/svg" xmlns:xlink="http://www.w3.org/1999/xlink" x="0px" y="0px"
	 viewBox="0 0 512 512" style="enable-background:new 0 0 512 512;" xml:space="preserve">
<circle style="fill:#FFEDB5;" cx="256" cy="256" r="256"/>
<path style="fill:#FEE187;" d="M512,256c0-7.527-0.345-14.972-0.981-22.333l-143.62-143.62h-81.374l-2.407,279.264l-11.385,22.878
	l-31.749,2.298l-15.012-61.342l1.796-118.519l-20.399-15.515h-48.271l-18.373,19.673v90.731
	c-16.17-10.936-22.225-14.846-29.443-25.035l-4.708,12.276l28.829,28.829v47.985l-16.429,36.731l98.783,98.783
	C229.893,511.002,242.829,512,256,512C397.384,512,512,397.384,512,256z"/>
<path style="fill:#FFC61B;" d="M256,406.842c-20.437,0-37.064-16.627-37.064-37.064V227.556c0-10.931-8.894-19.825-19.825-19.825
	H168.67c-10.931,0-19.825,8.894-19.825,19.825v85.333c0,4.761-3.858,8.62-8.62,8.62s-8.62-3.858-8.62-8.62v-85.333
	c0-20.437,16.627-37.064,37.064-37.064h30.441c20.437,0,37.064,16.627,37.064,37.064v142.222c0,10.931,8.894,19.825,19.825,19.825
	c10.931,0,19.825-8.894,19.825-19.825v-256c0-20.437,16.627-37.064,37.064-37.064h26.065c20.437,0,37.064,16.627,37.064,37.064
	v85.333c0,4.761-3.858,8.62-8.62,8.62s-8.62-3.858-8.62-8.62v-85.333c0-10.931-8.894-19.825-19.825-19.825h-26.065
	c-10.931,0-19.825,8.894-19.825,19.825v256C293.064,390.215,276.437,406.842,256,406.842z"/>
<path style="fill:#EAA22F;" d="M338.954,76.714h-26.065c-20.437,0-37.064,16.627-37.064,37.064v256
	c0,10.931-8.894,19.825-19.825,19.825c-0.193,0-0.381-0.024-0.574-0.029v17.239c0.193,0.003,0.381,0.029,0.574,0.029
	c20.437,0,37.064-16.627,37.064-37.064v-256c0-10.931,8.894-19.825,19.825-19.825h26.065c10.931,0,19.825,8.894,19.825,19.825
	v85.333c0,4.761,3.858,8.62,8.62,8.62s8.62-3.858,8.62-8.62v-85.333C376.018,93.341,359.393,76.714,338.954,76.714z"/>
<path style="fill:#D35933;" d="M140.226,421.853L140.226,421.853c-14.496,0-26.248-11.752-26.248-26.248V290.609h52.498v104.996
	C166.476,410.102,154.724,421.853,140.226,421.853z"/>
<path style="fill:#B54324;" d="M166.476,300.949h-52.498c-5.272,0-9.545-4.274-9.545-9.545l0,0c0-5.272,4.274-9.545,9.545-9.545
	h52.498c5.272,0,9.545,4.274,9.545,9.545l0,0C176.021,296.676,171.748,300.949,166.476,300.949z"/>
<path style="fill:#D35933;" d="M367.399,310.662L367.399,310.662c-14.496,0-26.248-11.752-26.248-26.248V179.417h52.498v104.996
	C393.647,298.908,381.895,310.662,367.399,310.662z"/>
<path style="fill:#B54324;" d="M393.647,189.757h-52.498c-5.272,0-9.545-4.274-9.545-9.545l0,0c0-5.272,4.274-9.545,9.545-9.545
	h52.498c5.272,0,9.545,4.274,9.545,9.545l0,0C403.192,185.484,398.919,189.757,393.647,189.757z"/>
<g>
</g>
<g>
</g>
<g>
</g>
<g>
</g>
<g>
</g>
<g>
</g>
<g>
</g>
<g>
</g>
<g>
</g>
<g>
</g>
<g>
</g>
<g>
</g>
<g>
</g>
<g>
</g>
<g>
</g>
</svg>
