<?xml version="1.0" encoding="iso-8859-1"?>
<!-- Generator: Adobe Illustrator 19.0.0, SVG Export Plug-In . SVG Version: 6.00 Build 0)  -->
<svg version="1.1" id="Layer_1" xmlns="http://www.w3.org/2000/svg" xmlns:xlink="http://www.w3.org/1999/xlink" x="0px" y="0px"
	 viewBox="0 0 512.002 512.002" style="enable-background:new 0 0 512.002 512.002;" xml:space="preserve">
<circle style="fill:#273B7A;" cx="256.001" cy="256" r="256"/>
<path style="fill:#121149;" d="M512.001,256c0-15.391-1.36-30.463-3.963-45.106l-88.276-88.276l-121.201,138.59l-28.193-28.193
	L103.321,363.427L252.75,511.96c1.084,0.014,2.165,0.041,3.251,0.041C397.385,512,512.001,397.384,512.001,256z"/>
<path style="fill:#FF7F4F;" d="M380.984,369.778H118.95c-12.378,0-22.411-10.033-22.411-22.411V164.633
	c0-12.378,10.033-22.411,22.411-22.411h262.034V369.778z"/>
<g>
	<path style="fill:#D35933;" d="M96.54,256.574v90.793c0,12.378,10.033,22.411,22.411,22.411h262.034V256.574L96.54,256.574
		L96.54,256.574z"/>
	<path style="fill:#D35933;" d="M399.875,369.778h-31.749c-14.796,0-26.793-11.995-26.793-26.793V140.569
		c0.002-14.796,11.997-26.791,26.793-26.791h31.749c14.796,0,26.793,11.995,26.793,26.791v202.416
		C426.668,357.783,414.673,369.778,399.875,369.778z"/>
</g>
<path style="fill:#B54324;" d="M341.334,256.574v86.411c0,14.796,11.995,26.793,26.793,26.793h31.749
	c14.796,0,26.793-11.995,26.793-26.793v-86.411L341.334,256.574L341.334,256.574z"/>
<g>
</g>
<g>
</g>
<g>
</g>
<g>
</g>
<g>
</g>
<g>
</g>
<g>
</g>
<g>
</g>
<g>
</g>
<g>
</g>
<g>
</g>
<g>
</g>
<g>
</g>
<g>
</g>
<g>
</g>
</svg>
