<?xml version="1.0" encoding="iso-8859-1"?>
<!-- Generator: Adobe Illustrator 19.0.0, SVG Export Plug-In . SVG Version: 6.00 Build 0)  -->
<svg version="1.1" id="Layer_1" xmlns="http://www.w3.org/2000/svg" xmlns:xlink="http://www.w3.org/1999/xlink" x="0px" y="0px"
	 viewBox="0 0 512 512" style="enable-background:new 0 0 512 512;" xml:space="preserve">
<circle style="fill:#FEE187;" cx="256" cy="256" r="256"/>
<path style="fill:#FFC61B;" d="M288.782,509.918c115.171-14.722,206.419-105.97,221.137-221.143l-140.141-140.14l-36.197,50.476
	l-23.712,0.428l-167.727,163.74L288.782,509.918z"/>
<circle style="fill:#FF6262;" cx="256" cy="256" r="156.444"/>
<g>
	<path style="fill:#FF314F;" d="M256,99.556c-0.191,0-0.383,0.007-0.574,0.007v312.875c0.191,0,0.383,0.007,0.574,0.007
		c86.402,0,156.444-70.042,156.444-156.444S342.402,99.556,256,99.556z"/>
	<path style="fill:#FF314F;" d="M361.267,140.269c-3.977-3.618-8.144-7.03-12.479-10.228c-28.291,4.012-59.914,6.147-92.788,6.147
		s-64.496-2.136-92.788-6.147c-4.334,3.198-8.502,6.609-12.479,10.228c32.499,5.275,69.28,7.987,105.267,7.987
		S328.768,145.544,361.267,140.269z"/>
	<path style="fill:#FF314F;" d="M397.705,189.647c-1.757-3.746-3.655-7.415-5.692-10.992C354.88,187.97,306.924,193.077,256,193.077
		s-98.88-5.108-136.013-14.42c-2.038,3.577-3.936,7.244-5.692,10.992c39.533,10.202,91.398,15.498,141.705,15.498
		S358.172,199.849,397.705,189.647z"/>
	<path style="fill:#FF314F;" d="M256,248.544c-53.803,0-104.312-5.694-142.222-16.034c-4.249-1.158-8.197-2.345-11.888-3.548
		c-0.696,4.001-1.239,8.056-1.626,12.155C141.015,253.93,199.49,260.611,256,260.611s114.984-6.682,155.736-19.494
		c-0.388-4.099-0.929-8.154-1.626-12.155c-3.691,1.203-7.639,2.388-11.888,3.548C360.312,242.85,309.803,248.544,256,248.544z"/>
	<path style="fill:#FF314F;" d="M256,306.855c-53.803,0-104.312-5.694-142.222-16.034c-3.922-1.069-7.594-2.162-11.038-3.269
		c0.95,4.636,2.114,9.192,3.463,13.667c40.376,11.645,95.98,17.703,149.797,17.703s109.421-6.058,149.799-17.701
		c1.35-4.475,2.513-9.033,3.463-13.667c-3.444,1.107-7.116,2.2-11.038,3.269C360.312,301.161,309.803,306.855,256,306.855z"/>
	<path style="fill:#FF314F;" d="M132.656,352.239c4.055,5.191,8.432,10.118,13.098,14.751c33.692,5.825,72.409,8.821,110.245,8.821
		s76.553-2.996,110.245-8.819c4.667-4.636,9.042-9.563,13.098-14.751c-35.083,7.451-78.029,11.504-123.344,11.504
		S167.739,359.691,132.656,352.239z"/>
</g>
<g>
	<path style="fill:#A30F44;" d="M361.267,140.269c-3.977-3.618-8.144-7.03-12.479-10.228c-28.291,4.012-59.914,6.147-92.788,6.147
		c-0.193,0-0.381-0.005-0.574-0.005v12.069c0.191,0,0.383,0.003,0.574,0.003C291.987,148.256,328.768,145.544,361.267,140.269z"/>
	<path style="fill:#A30F44;" d="M397.705,189.647c-1.757-3.746-3.655-7.415-5.692-10.992C354.88,187.97,306.924,193.077,256,193.077
		c-0.191,0-0.383-0.003-0.574-0.003v12.067c0.191,0,0.383,0.003,0.574,0.003C306.307,205.145,358.172,199.849,397.705,189.647z"/>
	<path style="fill:#A30F44;" d="M411.736,241.118c-0.388-4.099-0.929-8.154-1.626-12.155c-3.691,1.203-7.639,2.388-11.888,3.548
		c-37.91,10.34-88.419,16.034-142.222,16.034c-0.191,0-0.383-0.003-0.574-0.003v12.069c0.191,0,0.383,0.002,0.574,0.002
		C312.51,260.611,370.984,253.93,411.736,241.118z"/>
	<path style="fill:#A30F44;" d="M398.222,290.821c-37.91,10.34-88.419,16.034-142.222,16.034c-0.191,0-0.383-0.003-0.574-0.003
		v12.067c0.191,0,0.383,0.003,0.574,0.003c53.817,0,109.421-6.058,149.799-17.701c1.35-4.475,2.513-9.033,3.463-13.667
		C405.816,288.659,402.144,289.752,398.222,290.821z"/>
	<path style="fill:#A30F44;" d="M256,363.744c-0.191,0-0.383-0.003-0.574-0.003v12.067c0.191,0,0.383,0.003,0.574,0.003
		c37.836,0,76.553-2.996,110.245-8.819c4.667-4.636,9.042-9.563,13.098-14.751C344.261,359.691,301.315,363.744,256,363.744z"/>
</g>
<g>
</g>
<g>
</g>
<g>
</g>
<g>
</g>
<g>
</g>
<g>
</g>
<g>
</g>
<g>
</g>
<g>
</g>
<g>
</g>
<g>
</g>
<g>
</g>
<g>
</g>
<g>
</g>
<g>
</g>
</svg>
