<?xml version="1.0" encoding="iso-8859-1"?>
<!-- Generator: Adobe Illustrator 19.0.0, SVG Export Plug-In . SVG Version: 6.00 Build 0)  -->
<svg version="1.1" id="Layer_1" xmlns="http://www.w3.org/2000/svg" xmlns:xlink="http://www.w3.org/1999/xlink" x="0px" y="0px"
	 viewBox="0 0 512 512" style="enable-background:new 0 0 512 512;" xml:space="preserve">
<circle style="fill:#C92F00;" cx="256" cy="256" r="256"/>
<path style="fill:#930000;" d="M295.419,508.978c98.182-15.176,177.924-86.14,205.855-179.484L308.85,137.069l-61.755,218.629
	l8.373,8.373l-77.236,27.717L295.419,508.978z"/>
<path style="fill:#273B7A;" d="M312.889,178.855H199.111V146.03c0-6.625,5.37-11.997,11.997-11.997h89.786
	c6.625,0,11.995,5.37,11.995,11.997V178.855z"/>
<path style="fill:#121149;" d="M312.889,146.029c0-6.625-5.37-11.995-11.995-11.995h-45.468v44.822h57.463V146.029z"/>
<path style="fill:#FFC61B;" d="M194.515,398.222h122.971c13.171,0,23.847-10.676,23.847-23.847v-179.86
	c0-13.171-10.676-23.849-23.847-23.849H194.515c-13.172,0-23.849,10.676-23.849,23.849v179.86
	C170.667,387.546,181.343,398.222,194.515,398.222z"/>
<path style="fill:#EAA22F;" d="M317.487,170.667h-62.061v227.556h62.061c13.171,0,23.847-10.676,23.847-23.847V194.513
	C341.333,181.343,330.657,170.667,317.487,170.667z"/>
<rect x="170.667" y="227.556" style="fill:#FEE187;" width="170.667" height="113.778"/>
<rect x="255.431" y="227.556" style="fill:#FFC61B;" width="85.907" height="113.778"/>
<path style="fill:#273B7A;" d="M251.685,324.958c-0.905,0-1.827-0.205-2.694-0.638c-2.981-1.491-4.189-5.115-2.698-8.095
	l12.874-25.747h-16.096c-2.091,0-4.034-1.083-5.134-2.862c-1.1-1.777-1.198-3.999-0.264-5.87l17.239-34.478
	c1.489-2.981,5.111-4.189,8.095-2.698c2.981,1.491,4.189,5.115,2.698,8.095l-12.874,25.747h16.098c2.091,0,4.034,1.083,5.134,2.862
	c1.1,1.777,1.198,3.999,0.264,5.87l-17.239,34.478C256.031,323.736,253.899,324.958,251.685,324.958z"/>
<g>
	<path style="fill:#121149;" d="M265.707,252.664c1.489-2.981,0.281-6.604-2.698-8.095c-2.691-1.343-5.885-0.478-7.582,1.888v26.771
		L265.707,252.664z"/>
	<path style="fill:#121149;" d="M274.063,281.272c-1.1-1.779-3.043-2.862-5.134-2.862h-13.503v12.067h3.741l-3.741,7.482v25.697
		c0.676-0.533,1.252-1.214,1.662-2.036l17.239-34.478C275.261,285.272,275.161,283.05,274.063,281.272z"/>
</g>
<g>
</g>
<g>
</g>
<g>
</g>
<g>
</g>
<g>
</g>
<g>
</g>
<g>
</g>
<g>
</g>
<g>
</g>
<g>
</g>
<g>
</g>
<g>
</g>
<g>
</g>
<g>
</g>
<g>
</g>
</svg>
