<?xml version="1.0" encoding="iso-8859-1"?>
<!-- Generator: Adobe Illustrator 19.0.0, SVG Export Plug-In . SVG Version: 6.00 Build 0)  -->
<svg version="1.1" id="Layer_1" xmlns="http://www.w3.org/2000/svg" xmlns:xlink="http://www.w3.org/1999/xlink" x="0px" y="0px"
	 viewBox="0 0 512 512" style="enable-background:new 0 0 512 512;" xml:space="preserve">
<circle style="fill:#FFC61B;" cx="256" cy="256" r="256"/>
<path style="fill:#EAA22F;" d="M510.866,280.061L308.489,77.684l-52.202,55.918v242.243L256,375.524v59.187l33.904,1.581
	l-19.968,7.039l-88.926,13.221l54.644,54.644c6.713,0.527,13.496,0.803,20.346,0.803C389.27,512,498.736,410.16,510.866,280.061z"/>
<path style="fill:#3D3A3A;" d="M179.286,133.603c0,42.175,34.037,76.39,76.14,76.7v-153.4
	C213.323,57.213,179.286,91.427,179.286,133.603z"/>
<path style="fill:#272525;" d="M256,56.889c-0.193,0-0.381,0.014-0.574,0.014v153.398c0.193,0.002,0.381,0.014,0.574,0.014
	c42.368,0,76.714-34.345,76.714-76.714S298.368,56.889,256,56.889z"/>
<path style="fill:#3D3A3A;" d="M265.481,425.484V199.111c0-5.236-4.246-9.481-9.481-9.481c-5.236,0-9.481,4.246-9.481,9.481v226.373
	c-36.936,1.948-65.508,15.108-65.508,31.066h149.98C330.99,440.594,302.418,427.432,265.481,425.484z"/>
<path style="fill:#272525;" d="M265.481,425.484V199.111c0-5.236-4.246-9.481-9.481-9.481c-0.193,0-0.383,0.017-0.574,0.029v266.893
	h75.564C330.99,440.594,302.418,427.432,265.481,425.484z"/>
<ellipse style="fill:#808183;" cx="256" cy="133.603" rx="41.069" ry="76.714"/>
<path style="fill:#59595B;" d="M256,56.889c-0.193,0-0.383,0.022-0.574,0.028v153.374c0.191,0.005,0.381,0.028,0.574,0.028
	c22.681,0,41.069-34.345,41.069-76.714S278.681,56.889,256,56.889z"/>
<g>
</g>
<g>
</g>
<g>
</g>
<g>
</g>
<g>
</g>
<g>
</g>
<g>
</g>
<g>
</g>
<g>
</g>
<g>
</g>
<g>
</g>
<g>
</g>
<g>
</g>
<g>
</g>
<g>
</g>
</svg>
