<?xml version="1.0" encoding="iso-8859-1"?>
<!-- Generator: Adobe Illustrator 19.0.0, SVG Export Plug-In . SVG Version: 6.00 Build 0)  -->
<svg version="1.1" id="Layer_1" xmlns="http://www.w3.org/2000/svg" xmlns:xlink="http://www.w3.org/1999/xlink" x="0px" y="0px"
	 viewBox="0 0 512 512" style="enable-background:new 0 0 512 512;" xml:space="preserve">
<circle style="fill:#FF7F4F;" cx="256" cy="256" r="256"/>
<path style="fill:#D35933;" d="M507.985,301.404L259.718,53.298l-19.808,277.404l-2.37,43.17L208.3,415.153l92.872,92.872
	C406.271,489.315,489.179,406.471,507.985,301.404z"/>
<path style="fill:#FFFFFF;" d="M289.071,178.697l-27.9-55.798v-66.01c0-2.857-2.315-5.172-5.172-5.172s-5.172,2.315-5.172,5.172
	v66.01l-27.9,55.798c-1.276,2.555-0.241,5.661,2.313,6.939c0.743,0.371,1.533,0.546,2.31,0.546c1.896,0,3.722-1.048,4.63-2.86
	l18.646-37.292v53.081c0,2.857,2.315,5.172,5.172,5.172s5.172-2.315,5.172-5.172V146.03l18.646,37.293
	c0.907,1.812,2.732,2.86,4.63,2.86c0.777,0,1.567-0.178,2.31-0.546C289.311,184.358,290.347,181.253,289.071,178.697z"/>
<path style="fill:#D0D1D3;" d="M289.071,178.697l-27.9-55.798v-66.01c0-2.857-2.315-5.172-5.172-5.172v152.566
	c2.857,0,5.172-2.315,5.172-5.172V146.03l18.646,37.293c0.907,1.812,2.732,2.86,4.63,2.86c0.777,0,1.567-0.178,2.31-0.546
	C289.311,184.358,290.347,181.253,289.071,178.697z"/>
<path style="fill:#3F3A3A;" d="M275.732,426.667h-39.464c-21.949,0-39.743-17.794-39.743-39.743V210.41
	c0-21.949,17.794-39.743,39.743-39.743h39.464c21.949,0,39.743,17.794,39.743,39.743v176.514
	C315.475,408.872,297.681,426.667,275.732,426.667z"/>
<path style="fill:#272525;" d="M275.732,170.667H256v256h19.732c21.949,0,39.743-17.794,39.743-39.743V210.41
	C315.475,188.461,297.681,170.667,275.732,170.667z"/>
<g>
	<rect x="196.525" y="355.987" style="fill:#FFC61B;" width="118.949" height="13.791"/>
	<rect x="196.525" y="227.556" style="fill:#FFC61B;" width="118.949" height="13.791"/>
</g>
<g>
	<rect x="256" y="355.987" style="fill:#EAA22F;" width="59.475" height="13.791"/>
	<rect x="256" y="227.556" style="fill:#EAA22F;" width="59.475" height="13.791"/>
</g>
<g>
</g>
<g>
</g>
<g>
</g>
<g>
</g>
<g>
</g>
<g>
</g>
<g>
</g>
<g>
</g>
<g>
</g>
<g>
</g>
<g>
</g>
<g>
</g>
<g>
</g>
<g>
</g>
<g>
</g>
</svg>
