<?xml version="1.0" encoding="iso-8859-1"?>
<!-- Generator: Adobe Illustrator 19.0.0, SVG Export Plug-In . SVG Version: 6.00 Build 0)  -->
<svg version="1.1" id="Layer_1" xmlns="http://www.w3.org/2000/svg" xmlns:xlink="http://www.w3.org/1999/xlink" x="0px" y="0px"
	 viewBox="0 0 512 512" style="enable-background:new 0 0 512 512;" xml:space="preserve">
<circle style="fill:#FFEDB5;" cx="256" cy="256" r="256"/>
<path style="fill:#FEE187;" d="M287.651,510.052c121.696-15.007,216.933-115.412,223.923-239.416L262.428,21.488l0.853,38.612
	l-13.822,3.639l29.512,29.512l-14.614,15.515L233.8,78.208l-3.26,26.841l29.343,7.578l5.068,229.498l-16.708,10.412l-71.83,46.276
	L287.651,510.052z"/>
<path style="fill:#808183;" d="M256,123.259c-20.913,0-37.926-17.013-37.926-37.926c0-5.235,4.246-9.481,9.481-9.481
	c5.236,0,9.481,4.246,9.481,9.481c0,10.455,8.507,18.963,18.963,18.963c10.455,0,18.963-8.507,18.963-18.963
	S266.455,66.37,256,66.37c-5.236,0-9.481-4.246-9.481-9.481V28.444c0-5.236,4.246-9.481,9.481-9.481
	c5.236,0,9.481,4.246,9.481,9.481v20.163c16.341,4.22,28.444,19.085,28.444,36.726C293.926,106.246,276.913,123.259,256,123.259z"/>
<path style="fill:#59595B;" d="M265.481,48.607V28.444c0-5.236-4.246-9.481-9.481-9.481c-0.193,0-0.383,0.017-0.574,0.029v47.349
	c0.191,0.012,0.381,0.029,0.574,0.029c10.455,0,18.963,8.507,18.963,18.963s-8.507,18.963-18.963,18.963
	c-0.193,0-0.381-0.022-0.574-0.029v18.978c0.191,0.002,0.381,0.014,0.574,0.014c20.913,0,37.926-17.013,37.926-37.926
	C293.926,67.694,281.821,52.829,265.481,48.607z"/>
<path style="fill:#383535;" d="M335.26,249.585c-15.588-16.477-24.723-38.009-24.723-60.692v-0.753
	c0-26.884-19.458-49.209-45.056-53.7V85.333c0-5.235-4.246-9.481-9.481-9.481c-5.236,0-9.481,4.246-9.481,9.481v49.107
	c-25.598,4.489-45.056,26.815-45.056,53.7v0.762c0,22.337-8.539,43.879-24.036,59.964c-19.406,20.144-31.139,47.726-30.475,78.058
	c1.274,58.296,49.142,105.787,107.446,106.625c60.976,0.876,110.68-48.29,110.68-109.065
	C365.077,295.472,353.74,269.119,335.26,249.585z"/>
<path style="fill:#272525;" d="M365.077,324.486c0-29.013-11.336-55.368-29.815-74.9c-15.588-16.477-24.723-38.009-24.723-60.692
	v-0.753c0-26.884-19.458-49.209-45.056-53.7V85.333c0-5.235-4.246-9.481-9.481-9.481c-0.193,0-0.383,0.017-0.574,0.029V433.54
	C315.928,433.848,365.077,384.917,365.077,324.486z"/>
<path style="fill:#808183;" d="M283.269,188.895v-0.753c0-30.12-12.209-54.537-27.269-54.537l0,0
	c-15.06,0-27.269,24.417-27.269,54.537v0.762c0,22.337-4.27,43.879-12.017,59.964c-9.702,20.144-15.569,47.726-15.238,78.058
	c0.638,58.296,24.571,105.787,53.724,106.625c30.487,0.876,55.339-48.29,55.339-109.065c0-29.013-5.668-55.368-14.908-74.9
	C287.835,233.108,283.269,211.577,283.269,188.895z"/>
<path style="fill:#59595B;" d="M310.537,324.486c0-29.013-5.668-55.368-14.908-74.9c-7.794-16.477-12.36-38.009-12.36-60.692v-0.753
	c0-30.12-12.209-54.537-27.269-54.537c-0.193,0-0.383,0.021-0.574,0.029v299.913C285.81,434.169,310.537,385.108,310.537,324.486z"
	/>
<g>
</g>
<g>
</g>
<g>
</g>
<g>
</g>
<g>
</g>
<g>
</g>
<g>
</g>
<g>
</g>
<g>
</g>
<g>
</g>
<g>
</g>
<g>
</g>
<g>
</g>
<g>
</g>
<g>
</g>
</svg>
