<?xml version="1.0" encoding="iso-8859-1"?>
<!-- Generator: Adobe Illustrator 19.0.0, SVG Export Plug-In . SVG Version: 6.00 Build 0)  -->
<svg version="1.1" id="Layer_1" xmlns="http://www.w3.org/2000/svg" xmlns:xlink="http://www.w3.org/1999/xlink" x="0px" y="0px"
	 viewBox="0 0 512 512" style="enable-background:new 0 0 512 512;" xml:space="preserve">
<circle style="fill:#273B7A;" cx="256" cy="256" r="256"/>
<path style="fill:#121149;" d="M511.65,269.441L328.404,86.195l-12.945,128.415L186.182,85.333l-19.728,135.23l-48.223,48.223
	l-1.995,56.529l183.027,183.027C415.742,488.512,505.413,390.016,511.65,269.441z"/>
<rect x="155.152" y="85.333" style="fill:#FFC61B;" width="31.03" height="142.222"/>
<rect x="170.374" y="85.333" style="fill:#EAA22F;" width="15.801" height="142.222"/>
<path style="fill:#FF7F4F;" d="M170.667,352.539c-37.547,0-68.094-30.548-68.094-68.094s30.548-68.094,68.094-68.094
	s68.094,30.548,68.094,68.094S208.213,352.539,170.667,352.539z M170.667,238.761c-25.19,0-45.683,20.494-45.683,45.683
	c0,25.19,20.494,45.684,45.683,45.684s45.684-20.494,45.684-45.684C216.35,259.255,195.856,238.761,170.667,238.761z"/>
<path style="fill:#D35933;" d="M170.667,216.35c-0.097,0-0.191,0.007-0.286,0.007v22.411c0.097,0,0.191-0.007,0.286-0.007
	c25.19,0,45.684,20.494,45.684,45.683c0,25.19-20.494,45.684-45.684,45.684c-0.097,0-0.191-0.007-0.286-0.007v22.411
	c0.097,0,0.191,0.007,0.286,0.007c37.547,0,68.094-30.548,68.094-68.094S208.213,216.35,170.667,216.35z"/>
<rect x="297.374" y="86.195" style="fill:#FFC61B;" width="31.03" height="198.249"/>
<rect x="313.458" y="86.195" style="fill:#EAA22F;" width="14.939" height="198.249"/>
<path style="fill:#FF7F4F;" d="M312.889,409.428c-37.547,0-68.094-30.548-68.094-68.094s30.548-68.094,68.094-68.094
	s68.094,30.548,68.094,68.094S350.436,409.428,312.889,409.428z M312.889,295.65c-25.19,0-45.684,20.494-45.684,45.684
	c0,25.19,20.494,45.684,45.684,45.684c25.19,0,45.684-20.494,45.684-45.684C358.572,316.144,338.079,295.65,312.889,295.65z"/>
<path style="fill:#D35933;" d="M380.983,341.333c0-37.354-30.237-67.768-67.518-68.08v22.411
	c24.924,0.312,45.108,20.673,45.108,45.67c0,24.997-20.184,45.358-45.108,45.668v22.411
	C350.746,409.102,380.983,378.687,380.983,341.333z"/>
<g>
</g>
<g>
</g>
<g>
</g>
<g>
</g>
<g>
</g>
<g>
</g>
<g>
</g>
<g>
</g>
<g>
</g>
<g>
</g>
<g>
</g>
<g>
</g>
<g>
</g>
<g>
</g>
<g>
</g>
</svg>
