<?xml version="1.0" encoding="iso-8859-1"?>
<!-- Generator: Adobe Illustrator 19.0.0, SVG Export Plug-In . SVG Version: 6.00 Build 0)  -->
<svg version="1.1" id="Layer_1" xmlns="http://www.w3.org/2000/svg" xmlns:xlink="http://www.w3.org/1999/xlink" x="0px" y="0px"
	 viewBox="0 0 512 512" style="enable-background:new 0 0 512 512;" xml:space="preserve">
<circle style="fill:#FF7F4F;" cx="256" cy="256" r="256"/>
<path style="fill:#D35933;" d="M310.789,506.103c101.317-22.095,180.21-104.172,197.606-207.167L287.887,78.429l-42.518,230.438
	l-44.032-12.283l-15.155,33.085l54.481,54.481l-0.178,1.143l2.205,2.205l-17.337,33.168L310.789,506.103z"/>
<g>
	<path style="fill:#808183;" d="M314.182,167.65H197.818l19.813-79.25c2.034-8.135,9.342-13.841,17.727-13.841h41.284
		c8.385,0,15.693,5.706,17.727,13.841L314.182,167.65z"/>
	<path style="fill:#808183;" d="M197.818,330.559h116.364l-19.813,79.25c-2.034,8.135-9.342,13.841-17.727,13.841h-41.284
		c-8.385,0-15.693-5.706-17.727-13.841L197.818,330.559z"/>
</g>
<g>
	<path style="fill:#59595B;" d="M294.369,88.4c-2.034-8.135-9.342-13.841-17.727-13.841H256v93.091h58.182L294.369,88.4z"/>
	<path style="fill:#59595B;" d="M256,330.559v93.091h20.642c8.385,0,15.694-5.706,17.727-13.841l19.813-79.25H256z"/>
</g>
<path style="fill:#71E2EF;" d="M307.717,330.559H204.283c-9.997,0-18.101-8.104-18.101-18.101V185.751
	c0-9.997,8.104-18.101,18.101-18.101h103.434c9.997,0,18.101,8.104,18.101,18.101v126.707
	C325.818,322.455,317.714,330.559,307.717,330.559z"/>
<path style="fill:#38C6D9;" d="M307.717,167.65H256v162.909h51.717c9.997,0,18.101-8.104,18.101-18.101V185.751
	C325.818,175.754,317.714,167.65,307.717,167.65z"/>
<path style="fill:#3A3737;" d="M307.717,337.455H204.283c-13.783,0-24.997-11.214-24.997-24.997V185.751
	c0-13.783,11.214-24.997,24.997-24.997h103.434c13.783,0,24.997,11.214,24.997,24.997v126.707
	C332.714,326.241,321.5,337.455,307.717,337.455z M204.283,174.545c-6.178,0-11.205,5.027-11.205,11.205v126.707
	c0,6.178,5.027,11.205,11.205,11.205h103.434c6.178,0,11.205-5.027,11.205-11.205V185.751c0-6.178-5.027-11.205-11.205-11.205
	H204.283z"/>
<path style="fill:#272525;" d="M307.717,160.754H256v13.791h51.717c6.178,0,11.205,5.027,11.205,11.205v126.707
	c0,6.178-5.027,11.205-11.205,11.205H256v13.791h51.717c13.783,0,24.997-11.214,24.997-24.997V185.751
	C332.714,171.968,321.5,160.754,307.717,160.754z"/>
<path style="fill:#C92F00;" d="M209.455,242.274c0-12.853,10.419-23.273,23.273-23.273S256,229.421,256,242.274
	c0-12.853,10.419-23.273,23.273-23.273c12.853,0,23.273,10.419,23.273,23.273c0,29.479-46.545,54.174-46.545,54.174
	S209.455,270.343,209.455,242.274z"/>
<path style="fill:#930000;" d="M302.545,242.274c0-12.853-10.419-23.273-23.273-23.273c-12.85,0-23.266,10.414-23.273,23.262v54.182
	C256.012,296.439,302.545,271.75,302.545,242.274z"/>
<g>
</g>
<g>
</g>
<g>
</g>
<g>
</g>
<g>
</g>
<g>
</g>
<g>
</g>
<g>
</g>
<g>
</g>
<g>
</g>
<g>
</g>
<g>
</g>
<g>
</g>
<g>
</g>
<g>
</g>
</svg>
