<?xml version="1.0" encoding="iso-8859-1"?>
<!-- Generator: Adobe Illustrator 19.0.0, SVG Export Plug-In . SVG Version: 6.00 Build 0)  -->
<svg version="1.1" id="Layer_1" xmlns="http://www.w3.org/2000/svg" xmlns:xlink="http://www.w3.org/1999/xlink" x="0px" y="0px"
	 viewBox="0 0 512 512" style="enable-background:new 0 0 512 512;" xml:space="preserve">
<circle style="fill:#FEE187;" cx="256" cy="256" r="256"/>
<path style="fill:#FFC61B;" d="M510.547,283.319l-99.85-99.85l-14.115,19.77l-83.692-83.694l-111.909,7.737v173.261L97.085,324.158
	l186.373,186.373C402.953,497.788,497.867,402.834,510.547,283.319z"/>
<path style="fill:#273B7A;" d="M290.118,218.505H221.88c-18.734,0-33.975-15.243-33.975-33.976v-39.791
	c0-18.734,15.241-33.976,33.975-33.976h68.237c18.734,0,33.976,15.243,33.976,33.976v39.791
	C324.094,203.262,308.852,218.505,290.118,218.505z M221.88,133.172c-6.377,0-11.564,5.189-11.564,11.566v39.791
	c0,6.377,5.187,11.566,11.564,11.566h68.237c6.377,0,11.566-5.189,11.566-11.566v-39.791c0-6.377-5.189-11.566-11.566-11.566H221.88
	z"/>
<path style="fill:#121149;" d="M290.118,110.761h-34.692v22.411h34.692c6.377,0,11.566,5.189,11.566,11.566v39.791
	c0,6.377-5.189,11.566-11.566,11.566h-34.692v22.411h34.692c18.734,0,33.976-15.243,33.976-33.976v-39.791
	C324.094,126.004,308.852,110.761,290.118,110.761z"/>
<path style="fill:#386895;" d="M377.678,341.333H134.32c-27.055,0-48.987-21.933-48.987-48.988v-72.692
	c0-27.053,21.932-48.986,48.987-48.986h243.359c27.055,0,48.988,21.933,48.988,48.987v72.692
	C426.667,319.4,404.733,341.333,377.678,341.333z"/>
<path style="fill:#273B7A;" d="M377.678,170.667H255.424v170.667h122.254c27.055,0,48.988-21.933,48.988-48.988v-72.692
	C426.667,192.598,404.733,170.667,377.678,170.667z"/>
<rect x="142.222" y="170.667" style="fill:#38C6D9;" width="28.444" height="170.667"/>
<rect x="341.333" y="170.667" style="fill:#02B2B2;" width="28.444" height="170.667"/>
<rect x="199.111" y="226.694" style="fill:#E09112;" width="113.778" height="10.343"/>
<rect x="255.431" y="226.694" style="fill:#FF5419;" width="57.458" height="10.343"/>
<rect x="208.162" y="240.485" style="fill:#FFC61B;" width="10.343" height="20.687"/>
<g>
</g>
<g>
</g>
<g>
</g>
<g>
</g>
<g>
</g>
<g>
</g>
<g>
</g>
<g>
</g>
<g>
</g>
<g>
</g>
<g>
</g>
<g>
</g>
<g>
</g>
<g>
</g>
<g>
</g>
</svg>
