<?xml version="1.0" encoding="iso-8859-1"?>
<!-- Generator: Adobe Illustrator 19.0.0, SVG Export Plug-In . SVG Version: 6.00 Build 0)  -->
<svg version="1.1" id="Layer_1" xmlns="http://www.w3.org/2000/svg" xmlns:xlink="http://www.w3.org/1999/xlink" x="0px" y="0px"
	 viewBox="0 0 512 512" style="enable-background:new 0 0 512 512;" xml:space="preserve">
<circle style="fill:#386895;" cx="256" cy="256" r="256"/>
<path style="fill:#273B7A;" d="M277.068,511.131c117.851-9.602,213.107-99.016,231.646-214.113L356.242,144.546l-83.885,78.255
	l-80.58-80.579l-21.683,59.475l60.275,60.275l-32.406,30.23l49.636,49.636l-98.426,41.4L277.068,511.131z"/>
<path style="fill:#FF6262;" d="M318.598,153.229c0,0-57.503,31.832-135.54,0l50.26,101.655h33.885L318.598,153.229z"/>
<path style="fill:#FF314F;" d="M318.598,153.229c0,0-26.502,14.641-67.913,14.114v87.542h16.518L318.598,153.229z"/>
<path style="fill:#FFAD9E;" d="M149.173,349.353C99.542,315.811,115.29,254.2,115.29,254.2c25.741,0,45.821-22.337,43.061-47.931
	c-3.427-31.773-10.183-37.895-14.491-53.039c-1.827-6.425,2.988-12.809,9.668-12.809h32.406c4.963,0,9.337,3.537,10.087,8.444
	c4.067,26.615,27.057,64.946,54.81,64.946s50.743-38.331,54.81-64.946c0.75-4.906,5.122-8.444,10.087-8.444h32.406
	c6.68,0,11.495,6.384,9.668,12.809c-4.308,15.145-11.064,21.266-14.491,53.039c-2.76,25.595,17.32,47.931,43.063,47.931
	c0,0,15.746,61.609-33.883,95.153H149.173z"/>
<g>
	<path style="fill:#FF6262;" d="M386.369,254.2c-25.743,0-45.825-22.337-43.063-47.931c3.427-31.773,10.183-37.895,14.491-53.039
		c1.827-6.427-2.988-12.809-9.668-12.809h-32.406c-4.963,0-9.337,3.537-10.087,8.444c-4.067,26.615-27.057,64.946-54.81,64.946
		c-0.048,0-0.095-0.005-0.141-0.007v135.547h101.798C402.115,315.809,386.369,254.2,386.369,254.2z"/>
	<rect x="149.17" y="349.349" style="fill:#FF6262;" width="203.317" height="33.885"/>
</g>
<rect x="250.69" y="349.349" style="fill:#FF314F;" width="101.797" height="33.885"/>
<g>
</g>
<g>
</g>
<g>
</g>
<g>
</g>
<g>
</g>
<g>
</g>
<g>
</g>
<g>
</g>
<g>
</g>
<g>
</g>
<g>
</g>
<g>
</g>
<g>
</g>
<g>
</g>
<g>
</g>
</svg>
