<?xml version="1.0" encoding="iso-8859-1"?>
<!-- Generator: Adobe Illustrator 19.0.0, SVG Export Plug-In . SVG Version: 6.00 Build 0)  -->
<svg version="1.1" id="Layer_1" xmlns="http://www.w3.org/2000/svg" xmlns:xlink="http://www.w3.org/1999/xlink" x="0px" y="0px"
	 viewBox="0 0 512.002 512.002" style="enable-background:new 0 0 512.002 512.002;" xml:space="preserve">
<circle style="fill:#FFC61B;" cx="256.001" cy="256" r="256"/>
<path style="fill:#EAA22F;" d="M512.001,256c0-10.54-0.652-20.928-1.889-31.135L396.609,111.363l-29.158,45.57l-15.098-15.098
	l-48.345,14.21l39.034,39.034l-10.669,16.675v81.736L181.935,143.051l-36.612,1.588l-1.193-0.091l-10.245,0.588l-17.284,1.612
	l-3.868,0.798l-4.846,4.794l183.006,183.118l-171.979,23.226l37.952,37.952l-8.278,8.097L255.854,512
	c0.05,0,0.098,0.002,0.148,0.002C397.385,512,512.001,397.384,512.001,256z"/>
<g>
	<path style="fill:#272525;" d="M359.952,405.552c-2.846,0-5.585-1.57-6.946-4.289l-25.986-51.972
		c-1.915-3.832-0.362-8.492,3.47-10.409c3.839-1.915,8.492-0.362,10.409,3.47l25.986,51.972c1.915,3.832,0.362,8.492-3.47,10.409
		C362.3,405.289,361.118,405.552,359.952,405.552z"/>
	<path style="fill:#272525;" d="M152.049,405.552c-1.165,0-2.348-0.264-3.463-0.821c-3.832-1.917-5.385-6.577-3.47-10.409
		l25.986-51.972c1.917-3.831,6.572-5.385,10.409-3.47c3.832,1.917,5.385,6.577,3.47,10.409l-25.986,51.972
		C157.635,403.98,154.897,405.552,152.049,405.552z"/>
</g>
<polygon style="fill:#808183;" points="353.779,325.032 281.915,325.032 348.954,144.548 373.07,144.548 "/>
<polygon style="fill:#A6A8AA;" points="144.63,246.984 185.416,246.984 147.369,144.548 133.681,144.548 "/>
<path style="fill:#444444;" d="M377.753,111.18l-19.104,19.104c-2.477,2.477-5.837,3.868-9.338,3.868h-35.004
	c-7.294,0-13.207,5.913-13.207,13.207v0.426c0,7.294,5.913,13.207,13.207,13.207h59.152c5.003,0,9.576-2.827,11.814-7.301
	l13.634-27.267c4.391-8.782-1.995-19.115-11.814-19.115l0,0C383.591,107.311,380.231,108.703,377.753,111.18z"/>
<path style="fill:#808183;" d="M182.433,218.376l173.659,14.26c35.007,2.875,61.955,32.127,61.955,67.251l0,0
	c0,35.126-26.948,64.378-61.955,67.251l-173.659,14.26c-47.649,3.913-88.479-33.702-88.479-81.511l0,0
	C93.954,252.078,134.784,214.462,182.433,218.376z"/>
<path style="fill:#59595B;" d="M356.093,232.636l-96.068-7.889v150.281l96.068-7.889c35.007-2.875,61.955-32.125,61.955-67.251l0,0
	C418.048,264.761,391.1,235.51,356.093,232.636z"/>
<circle style="fill:#D0D1D3;" cx="170.892" cy="299.891" r="51.976"/>
<path style="fill:#272525;" d="M359.945,304.202h-26.431l-21.885-21.883c-2.02-2.02-5.292-2.02-7.313,0
	c-2.02,2.02-2.02,5.294,0,7.313l14.572,14.57h-10.916c-4.284,0-7.758,3.474-7.758,7.758s3.474,7.758,7.758,7.758h51.972
	c4.284,0,7.758-3.474,7.758-7.758S364.229,304.202,359.945,304.202z"/>
<path style="fill:#444444;" d="M168.94,156.044H116.97c-7.177,0-12.993-5.816-12.993-12.993l0,0c0-7.177,5.816-12.993,12.993-12.993
	h51.972c7.177,0,12.993,5.816,12.993,12.993l0,0C181.933,150.228,176.117,156.044,168.94,156.044z"/>
<g>
</g>
<g>
</g>
<g>
</g>
<g>
</g>
<g>
</g>
<g>
</g>
<g>
</g>
<g>
</g>
<g>
</g>
<g>
</g>
<g>
</g>
<g>
</g>
<g>
</g>
<g>
</g>
<g>
</g>
</svg>
