<?xml version="1.0" encoding="iso-8859-1"?>
<!-- Generator: Adobe Illustrator 19.0.0, SVG Export Plug-In . SVG Version: 6.00 Build 0)  -->
<svg version="1.1" id="Layer_1" xmlns="http://www.w3.org/2000/svg" xmlns:xlink="http://www.w3.org/1999/xlink" x="0px" y="0px"
	 viewBox="0 0 512 512" style="enable-background:new 0 0 512 512;" xml:space="preserve">
<circle style="fill:#273B7A;" cx="256" cy="256" r="256"/>
<path style="fill:#121149;" d="M500.241,332.893L398.605,231.257l-111.861,15.262l-8.046-2.874H130.155l-44.822,92.422
	l175.868,175.868C373.517,509.695,468.087,435.129,500.241,332.893z"/>
<path style="fill:#FFFFFF;" d="M122.935,341.333H96.554c-9.514,0-16.51-8.971-14.238-18.261l13.652-55.848
	c1.612-6.59,7.489-11.224,14.238-11.224h26.381c9.514,0,16.51,8.971,14.238,18.261l-13.652,55.848
	C135.563,336.699,129.686,341.333,122.935,341.333z"/>
<g>
	<path style="fill:#D0D1D3;" d="M389.065,341.333h26.381c9.514,0,16.51-8.971,14.238-18.261l-13.652-55.848
		c-1.612-6.59-7.489-11.224-14.238-11.224h-26.381c-9.514,0-16.51,8.971-14.238,18.261l13.652,55.848
		C376.437,336.699,382.314,341.333,389.065,341.333z"/>
	<path style="fill:#D0D1D3;" d="M401.048,284.444H110.952c-11.771,0-19.427-12.386-14.162-22.914l12.61-25.222
		c2.682-5.365,8.164-8.752,14.162-8.752h264.873c5.997,0,11.479,3.389,14.162,8.752l12.61,25.222
		C420.473,272.058,412.819,284.444,401.048,284.444z"/>
</g>
<path style="fill:#A6A8AA;" d="M415.21,261.53l-12.61-25.222c-2.682-5.365-8.164-8.752-14.162-8.752h-133.01v56.889h145.622
	C412.819,284.444,420.473,272.058,415.21,261.53z"/>
<g>
</g>
<g>
</g>
<g>
</g>
<g>
</g>
<g>
</g>
<g>
</g>
<g>
</g>
<g>
</g>
<g>
</g>
<g>
</g>
<g>
</g>
<g>
</g>
<g>
</g>
<g>
</g>
<g>
</g>
</svg>
