<?xml version="1.0" encoding="iso-8859-1"?>
<!-- Generator: Adobe Illustrator 19.0.0, SVG Export Plug-In . SVG Version: 6.00 Build 0)  -->
<svg version="1.1" id="Layer_1" xmlns="http://www.w3.org/2000/svg" xmlns:xlink="http://www.w3.org/1999/xlink" x="0px" y="0px"
	 viewBox="0 0 512 512" style="enable-background:new 0 0 512 512;" xml:space="preserve">
<circle style="fill:#FFEDB5;" cx="256" cy="256" r="256"/>
<path style="fill:#FEE187;" d="M156.444,357.554l149.552,149.552c105.239-20.837,187.271-106.165,203.19-213.09L296.603,81.43
	l-41.769,5.053v10.059L216.81,98.08l38.024,38.024v85.83L156.444,357.554z"/>
<path style="fill:#121149;" d="M146.392,132.098l35.562,30.913c4.91,4.268,5.43,11.709,1.162,16.618l0,0
	c-4.268,4.91-11.709,5.43-16.618,1.162l-35.562-30.913c-4.91-4.268-5.43-11.709-1.162-16.618l0,0
	C134.041,128.35,141.481,127.829,146.392,132.098z"/>
<rect x="241.778" y="85.333" style="fill:#59595B;" width="28.444" height="56.889"/>
<rect x="255.431" y="85.333" style="fill:#272525;" width="14.796" height="56.889"/>
<circle style="fill:#273B7A;" cx="256" cy="256" r="142.222"/>
<path style="fill:#121149;" d="M256,113.778c-0.193,0-0.381,0.014-0.574,0.014v284.415c0.193,0,0.381,0.014,0.574,0.014
	c78.546,0,142.222-63.676,142.222-142.222S334.546,113.778,256,113.778z"/>
<circle style="fill:#71E2EF;" cx="256" cy="256" r="113.778"/>
<path style="fill:#02B2B2;" d="M256,142.222c-0.193,0-0.381,0.014-0.574,0.014v227.526c0.193,0.002,0.381,0.014,0.574,0.014
	c62.838,0,113.778-50.94,113.778-113.778S318.838,142.222,256,142.222z"/>
<path style="fill:#273B7A;" d="M284.444,103.003h-56.889c-7.854,0-14.222-6.368-14.222-14.222l0,0
	c0-7.854,6.368-14.222,14.222-14.222h56.889c7.854,0,14.222,6.368,14.222,14.222l0,0
	C298.667,96.635,292.299,103.003,284.444,103.003z"/>
<path style="fill:#121149;" d="M284.444,74.559h-29.019v28.444h29.019c7.854,0,14.222-6.368,14.222-14.222
	S292.299,74.559,284.444,74.559z"/>
<path style="fill:#262560;" d="M262.034,235.323v-54.744c0-3.332-2.701-6.034-6.034-6.034s-6.034,2.701-6.034,6.034v54.744
	c-8.961,2.612-15.515,10.873-15.515,20.677c0,11.902,9.647,21.549,21.549,21.549s21.549-9.647,21.549-21.549
	C277.549,246.196,270.995,237.935,262.034,235.323z"/>
<path style="fill:#1D1948;" d="M262.034,235.323v-54.744c0-3.332-2.701-6.034-6.034-6.034c-0.197,0-0.383,0.04-0.574,0.059v102.917
	c0.193,0.005,0.381,0.029,0.574,0.029c11.902,0,21.549-9.647,21.549-21.549C277.549,246.196,270.995,237.935,262.034,235.323z"/>
<g>
</g>
<g>
</g>
<g>
</g>
<g>
</g>
<g>
</g>
<g>
</g>
<g>
</g>
<g>
</g>
<g>
</g>
<g>
</g>
<g>
</g>
<g>
</g>
<g>
</g>
<g>
</g>
<g>
</g>
</svg>
