<?xml version="1.0" encoding="iso-8859-1"?>
<!-- Generator: Adobe Illustrator 19.0.0, SVG Export Plug-In . SVG Version: 6.00 Build 0)  -->
<svg version="1.1" id="Layer_1" xmlns="http://www.w3.org/2000/svg" xmlns:xlink="http://www.w3.org/1999/xlink" x="0px" y="0px"
	 viewBox="0 0 512 512" style="enable-background:new 0 0 512 512;" xml:space="preserve">
<circle style="fill:#FF7F4F;" cx="256" cy="256" r="256"/>
<path style="fill:#D35933;" d="M489.544,360.991L260.28,131.727l-88.607,34.63v165.352l17.565,17.565l-76.671,24.211L251.02,511.936
	c1.657,0.031,3.315,0.064,4.979,0.064C359.97,512,449.46,450.019,489.544,360.991z"/>
<polygon style="fill:#59595B;" points="185.634,333.074 106.97,333.074 180.352,135.515 206.748,135.515 "/>
<path style="fill:#808183;" d="M379.863,389.947H149.376c-27.277,0-49.39-22.113-49.39-49.39l0,0c0-27.277,22.113-49.39,49.39-49.39
	h230.486c27.277,0,49.39,22.113,49.39,49.39l0,0C429.253,367.835,407.14,389.947,379.863,389.947z"/>
<g>
	<path style="fill:#59595B;" d="M99.988,340.471c0,0.029-0.002,0.057-0.002,0.086l0,0c0,27.277,22.113,49.39,49.39,49.39h230.486
		c27.277,0,49.39-22.113,49.39-49.39l0,0c0-0.029-0.002-0.057-0.002-0.086H99.988z"/>
	<rect x="165.84" y="316.613" style="fill:#59595B;" width="197.56" height="47.894"/>
</g>
<rect x="165.84" y="340.471" style="fill:#272525;" width="197.56" height="24.033"/>
<circle style="fill:#FFFFFF;" cx="149.376" cy="340.558" r="32.927"/>
<path style="fill:#D0D1D3;" d="M116.453,340.471c0,0.029-0.005,0.057-0.005,0.086c0,18.185,14.741,32.927,32.927,32.927
	s32.927-14.741,32.927-32.927c0-0.029-0.003-0.057-0.005-0.086H116.453z"/>
<circle style="fill:#FFFFFF;" cx="379.863" cy="340.558" r="32.927"/>
<path style="fill:#D0D1D3;" d="M346.939,340.471c0,0.029-0.005,0.057-0.005,0.086c0,18.185,14.741,32.927,32.927,32.927
	c18.185,0,32.927-14.741,32.927-32.927c0-0.029-0.003-0.057-0.003-0.086H346.939z"/>
<path style="fill:#444444;" d="M170.586,98.354l23.436,23.437c3.039,3.039,7.159,4.746,11.457,4.746h42.941
	c8.949,0,16.201,7.254,16.201,16.201v0.522c0,8.949-7.254,16.201-16.201,16.201h-72.564c-6.137,0-11.747-3.467-14.491-8.956
	l-16.725-33.449c-5.389-10.773,2.445-23.449,14.489-23.449l0,0C163.426,93.608,167.546,95.315,170.586,98.354z"/>
<g>
</g>
<g>
</g>
<g>
</g>
<g>
</g>
<g>
</g>
<g>
</g>
<g>
</g>
<g>
</g>
<g>
</g>
<g>
</g>
<g>
</g>
<g>
</g>
<g>
</g>
<g>
</g>
<g>
</g>
</svg>
