<?xml version="1.0" encoding="iso-8859-1"?>
<!-- Generator: Adobe Illustrator 19.0.0, SVG Export Plug-In . SVG Version: 6.00 Build 0)  -->
<svg version="1.1" id="Layer_1" xmlns="http://www.w3.org/2000/svg" xmlns:xlink="http://www.w3.org/1999/xlink" x="0px" y="0px"
	 viewBox="0 0 512 512" style="enable-background:new 0 0 512 512;" xml:space="preserve">
<circle style="fill:#273B7A;" cx="256" cy="256" r="256"/>
<path style="fill:#121149;" d="M294.976,509.052c96.57-14.751,175.369-83.47,204.698-174.406L281.641,116.614l-1.381,236.308
	l-74.112,67.305L294.976,509.052z"/>
<path style="fill:#71E2EF;" d="M298.236,271.069v-37.94c0-3.662,0.876-7.271,2.551-10.526l9.549-18.537
	c1.677-3.255,2.551-6.865,2.551-10.526v-28.331c0-12.695-10.292-22.987-22.985-22.987h-67.806
	c-12.695,0-22.985,10.292-22.985,22.987v28.331c0,3.662,0.876,7.271,2.551,10.526l9.549,18.537
	c1.677,3.255,2.551,6.865,2.551,10.526v37.94c0,3.662-0.876,7.271-2.551,10.526l-9.549,18.537
	c-1.677,3.255-2.551,6.865-2.551,10.526v93.022c0,12.695,10.292,22.985,22.985,22.985h67.806c12.695,0,22.985-10.292,22.985-22.985
	v-93.022c0-3.662-0.876-7.271-2.551-10.526l-9.549-18.537C299.111,278.34,298.236,274.73,298.236,271.069z"/>
<path style="fill:#38C6D9;" d="M300.787,222.601l9.549-18.537c1.677-3.255,2.551-6.865,2.551-10.526v-28.331
	c0-12.695-10.292-22.985-22.985-22.985H256v284.444h33.902c12.695,0,22.985-10.292,22.985-22.985v-93.024
	c0-3.662-0.876-7.271-2.551-10.526l-9.549-18.537c-1.677-3.255-2.551-6.865-2.551-10.526v-37.94
	C298.236,229.466,299.111,225.857,300.787,222.601z"/>
<path style="fill:#FFFFFF;" d="M284.444,142.222h-56.889v-18.82c0-5.315,4.31-9.625,9.625-9.625h37.64
	c5.315,0,9.625,4.31,9.625,9.625V142.222z"/>
<path style="fill:#D0D1D3;" d="M284.444,123.402c0-5.315-4.31-9.625-9.625-9.625H256v28.444h28.444V123.402z"/>
<path style="fill:#02B2B2;" d="M298.93,227.556h-85.863c0.455,1.817,0.695,3.686,0.695,5.572v37.94
	c0,3.662-0.876,7.271-2.551,10.526l-1.467,2.851h92.512l-1.467-2.85c-1.677-3.255-2.551-6.865-2.551-10.526v-37.94
	C298.236,231.241,298.477,229.373,298.93,227.556z"/>
<path style="fill:#386895;" d="M300.787,281.595c-1.677-3.255-2.551-6.865-2.551-10.526v-37.94c0-1.886,0.241-3.756,0.695-5.572H256
	v56.889h46.256L300.787,281.595z"/>
<g>
</g>
<g>
</g>
<g>
</g>
<g>
</g>
<g>
</g>
<g>
</g>
<g>
</g>
<g>
</g>
<g>
</g>
<g>
</g>
<g>
</g>
<g>
</g>
<g>
</g>
<g>
</g>
<g>
</g>
</svg>
