<?xml version="1.0" encoding="iso-8859-1"?>
<!-- Generator: Adobe Illustrator 19.0.0, SVG Export Plug-In . SVG Version: 6.00 Build 0)  -->
<svg version="1.1" id="Layer_1" xmlns="http://www.w3.org/2000/svg" xmlns:xlink="http://www.w3.org/1999/xlink" x="0px" y="0px"
	 viewBox="0 0 512 512" style="enable-background:new 0 0 512 512;" xml:space="preserve">
<g>
	<circle style="fill:#273B7A;" cx="256" cy="256" r="256"/>
	<circle style="fill:#273B7A;" cx="256" cy="256" r="256"/>
</g>
<path style="fill:#121149;" d="M294.409,509.131c115.238-17.339,205.307-111.492,216.421-228.655L339.901,109.547l-41.598,4.903
	L281.51,97.658l-1.526,18.951l-36.657,4.32l33.606,33.606l-9.075,112.749l-17.174,27.505l-58.37,112.25L294.409,509.131z"/>
<path style="fill:#71E2EF;" d="M322.943,163.859h-23.78v-12.067h23.78c9.785,0,17.744-7.961,17.744-17.746
	s-7.959-17.744-17.744-17.744h-47.557v-12.067h47.557c16.437,0,29.812,13.374,29.812,29.812
	C352.754,150.485,339.38,163.859,322.943,163.859z"/>
<rect x="233.951" y="97.658" style="fill:#FFC61B;" width="47.557" height="23.778"/>
<rect x="255.431" y="97.658" style="fill:#EAA22F;" width="26.083" height="23.778"/>
<path style="fill:#FF7F4F;" d="M219.422,166.291h76.619c5.108,0,9.247-4.141,9.247-9.247v-29.063c0-5.108-4.141-9.247-9.247-9.247
	h-76.619c-5.108,0-9.247,4.141-9.247,9.247v29.062C210.175,162.151,214.316,166.291,219.422,166.291z"/>
<path style="fill:#D35933;" d="M296.041,118.734h-40.615v47.557h40.615c5.108,0,9.247-4.141,9.247-9.247v-29.062
	C305.288,122.875,301.149,118.734,296.041,118.734z"/>
<path style="fill:#FFFFFF;" d="M208.855,414.342h97.754c12.404,0,22.457-10.054,22.457-22.457V175.238
	c0-12.404-10.054-22.457-22.457-22.457h-97.754c-12.404,0-22.457,10.054-22.457,22.457v216.647
	C186.397,404.287,196.451,414.342,208.855,414.342z"/>
<path style="fill:#D0D1D3;" d="M306.609,152.781h-51.183v261.561h51.183c12.404,0,22.457-10.056,22.457-22.457V175.238
	C329.068,162.835,319.012,152.781,306.609,152.781z"/>
<g>
	<rect x="210.179" y="209.351" style="fill:#FEE187;" width="95.108" height="5.765"/>
	<rect x="210.179" y="242.64" style="fill:#FEE187;" width="95.108" height="5.765"/>
	<rect x="210.179" y="275.928" style="fill:#FEE187;" width="95.108" height="5.765"/>
	<rect x="210.179" y="309.217" style="fill:#FEE187;" width="95.108" height="5.765"/>
	<rect x="210.179" y="342.506" style="fill:#FEE187;" width="95.108" height="5.765"/>
	<rect x="210.179" y="375.794" style="fill:#FEE187;" width="95.108" height="5.765"/>
</g>
<g>
	<rect x="255.431" y="209.351" style="fill:#FFC61B;" width="49.862" height="5.765"/>
	<rect x="255.431" y="242.64" style="fill:#FFC61B;" width="49.862" height="5.765"/>
	<rect x="255.431" y="275.928" style="fill:#FFC61B;" width="49.862" height="5.765"/>
	<rect x="255.431" y="309.217" style="fill:#FFC61B;" width="49.862" height="5.765"/>
	<rect x="255.431" y="342.506" style="fill:#FFC61B;" width="49.862" height="5.765"/>
	<rect x="255.431" y="375.794" style="fill:#FFC61B;" width="49.862" height="5.765"/>
</g>
<g>
</g>
<g>
</g>
<g>
</g>
<g>
</g>
<g>
</g>
<g>
</g>
<g>
</g>
<g>
</g>
<g>
</g>
<g>
</g>
<g>
</g>
<g>
</g>
<g>
</g>
<g>
</g>
<g>
</g>
</svg>
