<?xml version="1.0" encoding="iso-8859-1"?>
<!-- Generator: Adobe Illustrator 19.0.0, SVG Export Plug-In . SVG Version: 6.00 Build 0)  -->
<svg version="1.1" id="Layer_1" xmlns="http://www.w3.org/2000/svg" xmlns:xlink="http://www.w3.org/1999/xlink" x="0px" y="0px"
	 viewBox="0 0 512 512" style="enable-background:new 0 0 512 512;" xml:space="preserve">
<circle style="fill:#FFC61B;" cx="256" cy="256" r="256"/>
<path style="fill:#EAA22F;" d="M510.621,282.681L377.327,149.352l-99.366,165.666l-48.574-49.431l-94.11,126.08l120.327,120.327
	c0.133,0,0.264,0.005,0.396,0.005C388.374,512,497.276,411.527,510.621,282.681z"/>
<path style="fill:#273B7A;" d="M151.869,398.222h208.262c13.421,0,24.3-10.88,24.3-24.3v-207.4c0-13.421-10.88-24.3-24.3-24.3
	H151.869c-13.421,0-24.3,10.88-24.3,24.3v207.4C127.569,387.343,138.449,398.222,151.869,398.222z"/>
<path style="fill:#121149;" d="M360.131,142.222H255.426v256h104.705c13.421,0,24.3-10.88,24.3-24.3v-207.4
	C384.431,153.102,373.551,142.222,360.131,142.222z"/>
<path style="fill:#71E2EF;" d="M304.13,224.671c-31.396-9.392-64.864-9.392-96.261,0c-4.972,1.488-10.235-1.214-11.991-6.097
	c-4.21-11.693-8.42-23.388-12.629-35.081c-1.91-5.304,1.038-11.085,6.423-12.748c43.21-13.341,89.448-13.341,132.658,0
	c5.385,1.664,8.333,7.444,6.423,12.748c-4.21,11.693-8.42,23.388-12.629,35.081C314.365,223.456,309.103,226.159,304.13,224.671z"/>
<path style="fill:#38C6D9;" d="M322.329,170.744c-21.79-6.728-44.349-10.054-66.903-9.995v56.889
	c16.408-0.057,32.821,2.282,48.704,7.034c4.973,1.488,10.235-1.214,11.993-6.097c4.21-11.693,8.42-23.388,12.629-35.081
	C330.662,178.188,327.716,172.408,322.329,170.744z"/>
<path style="fill:#386895;" d="M232.153,369.778h-66.082c-5.317,0-9.626-4.31-9.626-9.625v-94.527c0-5.317,4.31-9.625,9.626-9.625
	h66.082c5.317,0,9.625,4.31,9.625,9.625v94.527C241.778,365.468,237.468,369.778,232.153,369.778z"/>
<path style="fill:#273B7A;" d="M345.931,369.778h-66.082c-5.317,0-9.625-4.31-9.625-9.625v-94.527c0-5.317,4.31-9.625,9.625-9.625
	h66.082c5.317,0,9.625,4.31,9.625,9.625v94.527C355.556,365.468,351.246,369.778,345.931,369.778z"/>
<path style="fill:#121149;" d="M229.559,219.746l-19.947-39.893c-0.636-1.276-2.189-1.791-3.47-1.157
	c-1.277,0.64-1.795,2.191-1.157,3.47l19.256,38.51C226.011,220.338,227.783,220.031,229.559,219.746z"/>
<g>
</g>
<g>
</g>
<g>
</g>
<g>
</g>
<g>
</g>
<g>
</g>
<g>
</g>
<g>
</g>
<g>
</g>
<g>
</g>
<g>
</g>
<g>
</g>
<g>
</g>
<g>
</g>
<g>
</g>
</svg>
