<?xml version="1.0" encoding="iso-8859-1"?>
<!-- Generator: Adobe Illustrator 19.0.0, SVG Export Plug-In . SVG Version: 6.00 Build 0)  -->
<svg version="1.1" id="Layer_1" xmlns="http://www.w3.org/2000/svg" xmlns:xlink="http://www.w3.org/1999/xlink" x="0px" y="0px"
	 viewBox="0 0 512 512" style="enable-background:new 0 0 512 512;" xml:space="preserve">
<circle style="fill:#FFC61B;" cx="256" cy="256" r="256"/>
<path style="fill:#EAA22F;" d="M287.525,510.066c116.772-14.341,209.206-107.308,222.746-224.327l-96.53-96.53l-187.983,10.206
	v8.047l-84.606-37.657v195.167l29.475,10.554l69.937-12.641l-44.822,26.433l-2.462,26.507L287.525,510.066z"/>
<path style="fill:#3D3838;" d="M313.246,95.677H197.761c-5.549,0-10.869,2.205-14.793,6.128l-81.66,81.66
	c-3.924,3.924-6.128,9.245-6.128,14.793v115.484c0,5.549,2.205,10.869,6.128,14.793l81.66,81.66
	c3.924,3.924,9.245,6.128,14.793,6.128h115.484c5.549,0,10.869-2.205,14.793-6.128l81.66-81.66
	c3.924-3.924,6.128-9.245,6.128-14.793V198.258c0-5.549-2.205-10.869-6.128-14.793l-81.66-81.66
	C324.115,97.882,318.793,95.677,313.246,95.677z M198.918,256c0,31.251-25.335,56.585-56.585,56.585l0,0V199.416l0,0
	C173.584,199.415,198.918,224.749,198.918,256L198.918,256z M368.673,284.896c0,16.768-18.942,27.017-32.632,17.336
	c-14.491-10.247-23.952-27.134-23.952-46.232l0,0c0-19.097,9.461-35.985,23.952-46.232c13.691-9.681,32.634,0.569,32.634,17.336
	L368.673,284.896z"/>
<path style="fill:#272525;" d="M409.698,183.465l-81.66-81.66c-3.924-3.924-9.245-6.127-14.793-6.127h-58.316v320.646h58.316
	c5.549,0,10.869-2.205,14.793-6.127l81.66-81.66c3.924-3.924,6.127-9.245,6.127-14.793V198.261
	C415.827,192.709,413.622,187.387,409.698,183.465z M368.673,284.896c0,16.768-18.942,27.017-32.634,17.336
	c-14.491-10.247-23.952-27.134-23.952-46.232l0,0c0-19.097,9.461-35.987,23.952-46.232c13.691-9.681,32.634,0.569,32.634,17.336
	L368.673,284.896z"/>
<circle style="fill:#808183;" cx="255.5" cy="256" r="32.754"/>
<path style="fill:#59595B;" d="M255.504,223.246c-0.193,0-0.381,0.026-0.574,0.029v65.45c0.193,0.003,0.381,0.029,0.574,0.029
	c18.089,0,32.754-14.665,32.754-32.754S273.592,223.246,255.504,223.246z"/>
<circle style="fill:#272525;" cx="255.5" cy="256" r="19.825"/>
<g>
	<path style="fill:#808183;" d="M261.965,198.218h-11.928c-11.367,0-20.614-9.247-20.614-20.613v-5.965
		c0-3.808,3.088-6.896,6.896-6.896s6.896,3.088,6.896,6.896v5.965c0,3.762,3.06,6.821,6.823,6.821h11.928
		c3.763,0,6.823-3.06,6.823-6.821v-11.929c0-3.763-3.06-6.823-6.823-6.823h-25.647c-2.095,0-4.074-0.952-5.382-2.586
		c-1.31-1.633-1.805-3.774-1.346-5.816l5.456-24.359c0.705-3.15,3.501-5.389,6.728-5.389h32.692c3.808,0,6.896,3.088,6.896,6.896
		c0,3.808-3.087,6.896-6.896,6.896h-27.17l-2.367,10.568h17.036c11.367,0,20.614,9.247,20.614,20.614v11.929
		C282.579,188.971,273.33,198.218,261.965,198.218z"/>
	<path style="fill:#808183;" d="M261.965,393.912h-11.928c-11.367,0-20.614-9.247-20.614-20.614v-5.965
		c0-3.808,3.088-6.896,6.896-6.896s6.896,3.088,6.896,6.896v5.965c0,3.763,3.06,6.823,6.823,6.823h11.928
		c3.763,0,6.823-3.06,6.823-6.823V361.37c0-3.763-3.06-6.823-6.823-6.823h-25.647c-2.095,0-4.074-0.952-5.382-2.586
		c-1.31-1.633-1.805-3.774-1.346-5.816l5.456-24.361c0.705-3.15,3.501-5.389,6.728-5.389h32.692c3.808,0,6.896,3.088,6.896,6.896
		s-3.087,6.896-6.896,6.896h-27.17l-2.367,10.569h17.036c11.367,0,20.614,9.247,20.614,20.614v11.928
		C282.579,384.665,273.33,393.912,261.965,393.912z"/>
</g>
<g>
	<path style="fill:#59595B;" d="M274.466,134.496c3.808,0,6.896-3.088,6.896-6.896c0-3.808-3.087-6.896-6.896-6.896h-19.537v13.791
		H274.466z"/>
	<path style="fill:#59595B;" d="M261.965,145.061h-7.035v13.791h7.035c3.763,0,6.823,3.06,6.823,6.823v11.929
		c0,3.762-3.06,6.821-6.823,6.821h-7.035v13.791h7.035c11.367,0,20.614-9.247,20.614-20.613v-11.929
		C282.579,154.31,273.33,145.061,261.965,145.061z"/>
	<path style="fill:#59595B;" d="M274.466,330.187c3.808,0,6.896-3.088,6.896-6.896s-3.087-6.896-6.896-6.896h-19.537v13.791H274.466
		z"/>
	<path style="fill:#59595B;" d="M261.965,340.756h-7.035v13.791h7.035c3.763,0,6.823,3.06,6.823,6.823v11.928
		c0,3.763-3.06,6.823-6.823,6.823h-7.035v13.791h7.035c11.367,0,20.614-9.247,20.614-20.614V361.37
		C282.579,350.003,273.33,340.756,261.965,340.756z"/>
</g>
<g>
</g>
<g>
</g>
<g>
</g>
<g>
</g>
<g>
</g>
<g>
</g>
<g>
</g>
<g>
</g>
<g>
</g>
<g>
</g>
<g>
</g>
<g>
</g>
<g>
</g>
<g>
</g>
<g>
</g>
</svg>
