<?xml version="1.0" encoding="iso-8859-1"?>
<!-- Generator: Adobe Illustrator 19.0.0, SVG Export Plug-In . SVG Version: 6.00 Build 0)  -->
<svg version="1.1" id="Layer_1" xmlns="http://www.w3.org/2000/svg" xmlns:xlink="http://www.w3.org/1999/xlink" x="0px" y="0px"
	 viewBox="0 0 512.002 512.002" style="enable-background:new 0 0 512.002 512.002;" xml:space="preserve">
<circle style="fill:#FFEDB5;" cx="256.001" cy="256" r="256"/>
<path style="fill:#FEE187;" d="M505.519,313.477l-88.028-88.028l-22.93,25.426l-87.678-87.678l-62.723,48.209l-48.209-48.209
	l-95.061,195.662l153.117,153.117c0.665,0.005,1.326,0.026,1.993,0.026C377.624,512,479.433,427.186,505.519,313.477z"/>
<circle style="fill:#353333;" cx="199.112" cy="256" r="142.222"/>
<path style="fill:#272525;" d="M199.112,113.778c-0.193,0-0.381,0.014-0.574,0.014v284.415c0.193,0,0.381,0.014,0.574,0.014
	c78.546,0,142.222-63.676,142.222-142.222S277.658,113.778,199.112,113.778z"/>
<circle style="fill:#59595B;" cx="199.112" cy="256" r="113.778"/>
<path style="fill:#464647;" d="M199.112,142.222c-0.193,0-0.381,0.014-0.574,0.014v227.526c0.193,0.002,0.381,0.014,0.574,0.014
	c62.838,0,113.778-50.94,113.778-113.778C312.89,193.162,261.95,142.222,199.112,142.222z"/>
<circle style="fill:#353333;" cx="199.112" cy="256" r="40.227"/>
<path style="fill:#272525;" d="M227.556,227.556c-8.001-8.001-18.534-11.904-29.018-11.755v80.398
	c10.485,0.148,21.018-3.753,29.018-11.755C243.266,268.734,243.266,243.266,227.556,227.556z"/>
<circle style="fill:#FFEDB5;" cx="199.112" cy="256" r="15.515"/>
<circle style="fill:#353333;" cx="340.248" cy="297.012" r="105.296"/>
<path style="fill:#272525;" d="M340.257,191.712c-0.121,0-0.238,0.009-0.359,0.009v210.587c0.121,0,0.238,0.009,0.359,0.009
	c58.156,0,105.301-47.145,105.301-105.301C445.558,238.857,398.413,191.712,340.257,191.712z"/>
<circle style="fill:#59595B;" cx="340.248" cy="297.012" r="84.242"/>
<path style="fill:#464647;" d="M340.257,212.773c-0.121,0-0.238,0.009-0.359,0.009v168.464c0.121,0,0.238,0.009,0.359,0.009
	c46.525,0,84.242-37.716,84.242-84.242S386.782,212.773,340.257,212.773z"/>
<circle style="fill:#353333;" cx="340.248" cy="297.012" r="29.784"/>
<path style="fill:#272525;" d="M361.316,275.954c-5.906-5.906-13.677-8.799-21.418-8.706v59.533
	c7.742,0.093,15.512-2.8,21.418-8.706C372.947,306.443,372.947,287.585,361.316,275.954z"/>
<circle style="fill:#FFEDB5;" cx="340.248" cy="297.012" r="11.488"/>
<g>
</g>
<g>
</g>
<g>
</g>
<g>
</g>
<g>
</g>
<g>
</g>
<g>
</g>
<g>
</g>
<g>
</g>
<g>
</g>
<g>
</g>
<g>
</g>
<g>
</g>
<g>
</g>
<g>
</g>
</svg>
