<?xml version="1.0" encoding="iso-8859-1"?>
<!-- Generator: Adobe Illustrator 19.0.0, SVG Export Plug-In . SVG Version: 6.00 Build 0)  -->
<svg version="1.1" id="Layer_1" xmlns="http://www.w3.org/2000/svg" xmlns:xlink="http://www.w3.org/1999/xlink" x="0px" y="0px"
	 viewBox="0 0 512 512" style="enable-background:new 0 0 512 512;" xml:space="preserve">
<circle style="fill:#273B7A;" cx="256" cy="256" r="256"/>
<path style="fill:#121149;" d="M256.143,511.998c115.628-0.064,213.311-76.79,245.012-182.101L261.782,90.524l-7.147,149.961
	H153.715l-82.323,86.762L256.143,511.998z"/>
<path style="fill:#FFFFFF;" d="M390.094,261.477l-28.444-28.444c-1.617-1.617-3.808-2.526-6.094-2.526H264.62V96.904
	c0-4.761-3.858-8.62-8.62-8.62c-4.761,0-8.62,3.858-8.62,8.62v133.603h-90.936c-2.286,0-4.479,0.907-6.094,2.526l-28.444,28.444
	c-3.367,3.365-3.367,8.823,0,12.188c3.363,3.367,8.825,3.367,12.188,0l25.921-25.919h191.969l25.921,25.919
	c1.683,1.684,3.889,2.526,6.094,2.526c2.205,0,4.413-0.841,6.094-2.526C393.461,270.3,393.461,264.842,390.094,261.477z"/>
<path style="fill:#D0D1D3;" d="M390.094,261.477l-28.444-28.444c-1.617-1.617-3.808-2.526-6.094-2.526H264.62V96.904
	c0-4.761-3.858-8.62-8.62-8.62c-0.197,0-0.381,0.045-0.574,0.059v159.403h96.559l25.921,25.919c1.683,1.684,3.889,2.526,6.094,2.526
	c2.205,0,4.413-0.841,6.094-2.526C393.461,270.3,393.461,264.842,390.094,261.477z"/>
<path style="fill:#D35933;" d="M71.392,327.247L71.392,327.247c-7.74-7.268-8.125-19.437-0.855-27.177l39.488-42.056
	c7.268-7.742,19.437-8.125,27.177-0.855l0,0c7.74,7.268,8.125,19.437,0.855,27.177l-39.488,42.056
	C91.301,334.133,79.132,334.515,71.392,327.247z"/>
<path style="fill:#B54324;" d="M440.608,327.247L440.608,327.247c7.74-7.268,8.125-19.437,0.855-27.177l-39.488-42.056
	c-7.268-7.742-19.437-8.125-27.177-0.855l0,0c-7.74,7.268-8.125,19.437-0.855,27.177l39.488,42.056
	C420.698,334.133,432.868,334.515,440.608,327.247z"/>
<g>
</g>
<g>
</g>
<g>
</g>
<g>
</g>
<g>
</g>
<g>
</g>
<g>
</g>
<g>
</g>
<g>
</g>
<g>
</g>
<g>
</g>
<g>
</g>
<g>
</g>
<g>
</g>
<g>
</g>
</svg>
