<?xml version="1.0" encoding="iso-8859-1"?>
<!-- Generator: Adobe Illustrator 19.0.0, SVG Export Plug-In . SVG Version: 6.00 Build 0)  -->
<svg version="1.1" id="Layer_1" xmlns="http://www.w3.org/2000/svg" xmlns:xlink="http://www.w3.org/1999/xlink" x="0px" y="0px"
	 viewBox="0 0 512 512" style="enable-background:new 0 0 512 512;" xml:space="preserve">
<circle style="fill:#D35933;" cx="256" cy="256" r="256"/>
<path style="fill:#B54324;" d="M300.373,508.157c101.86-17.801,183.008-95.81,205.433-196.003l-65.134-68.386l-22.252,8.625
	l-140.35-140.35l3.122,144.634l-70.732,4.024l-35.328-35.328l0.929,37.285l-114.664,6.525L300.373,508.157z"/>
<rect x="170.667" y="247.38" style="fill:#FFEDB5;" width="56.889" height="17.239"/>
<rect x="170.667" y="256" style="fill:#FFC61B;" width="56.889" height="8.62"/>
<rect x="273.808" y="247.38" style="fill:#FEE187;" width="56.889" height="17.239"/>
<rect x="273.808" y="256" style="fill:#FFC61B;" width="56.889" height="8.62"/>
<g>
	<path style="fill:#FFFFFF;" d="M330.702,234.451h92.229c11.902,0,21.549,9.647,21.549,21.549l0,0
		c0,11.902-9.647,21.549-21.549,21.549h-92.229L330.702,234.451z"/>
	<path style="fill:#FFFFFF;" d="M170.667,277.549H78.438c-11.902,0-21.549-9.647-21.549-21.549l0,0
		c0-11.902,9.647-21.549,21.549-21.549h92.229V277.549z"/>
</g>
<g>
	<path style="fill:#D0D1D3;" d="M330.702,256v21.549h92.229c11.902,0,21.549-9.647,21.549-21.549H330.702z"/>
	<path style="fill:#D0D1D3;" d="M56.889,256c0,11.902,9.647,21.549,21.549,21.549h92.229V256H56.889z"/>
</g>
<path style="fill:#3D3A3A;" d="M256,407.704L256,407.704c-19.518,0-35.34-15.822-35.34-35.34V139.636
	c0-19.518,15.822-35.34,35.34-35.34l0,0c19.518,0,35.34,15.822,35.34,35.34v232.727C291.34,391.882,275.518,407.704,256,407.704z"/>
<path style="fill:#272525;" d="M220.66,256v116.364c0,19.518,15.822,35.34,35.34,35.34s35.34-15.822,35.34-35.34V256H220.66z"/>
<g>
	<path style="fill:#FFC61B;" d="M331.564,223.246L331.564,223.246c4.284,0,7.758,3.474,7.758,7.758v49.993
		c0,4.284-3.474,7.758-7.758,7.758l0,0c-4.284,0-7.758-3.474-7.758-7.758v-49.993C323.806,226.718,327.28,223.246,331.564,223.246z"
		/>
	<path style="fill:#FFC61B;" d="M169.805,288.754L169.805,288.754c-4.284,0-7.758-3.474-7.758-7.758v-49.993
		c0-4.284,3.474-7.758,7.758-7.758l0,0c4.284,0,7.758,3.474,7.758,7.758v49.993C177.562,285.281,174.089,288.754,169.805,288.754z"
		/>
</g>
<g>
	<path style="fill:#EAA22F;" d="M323.806,256v24.997c0,4.284,3.474,7.758,7.758,7.758s7.758-3.474,7.758-7.758V256H323.806z"/>
	<path style="fill:#EAA22F;" d="M162.047,256v24.997c0,4.284,3.474,7.758,7.758,7.758c4.284,0,7.758-3.474,7.758-7.758V256H162.047z
		"/>
</g>
<g>
</g>
<g>
</g>
<g>
</g>
<g>
</g>
<g>
</g>
<g>
</g>
<g>
</g>
<g>
</g>
<g>
</g>
<g>
</g>
<g>
</g>
<g>
</g>
<g>
</g>
<g>
</g>
<g>
</g>
</svg>
