<?xml version="1.0" encoding="iso-8859-1"?>
<!-- Generator: Adobe Illustrator 19.0.0, SVG Export Plug-In . SVG Version: 6.00 Build 0)  -->
<svg version="1.1" id="Layer_1" xmlns="http://www.w3.org/2000/svg" xmlns:xlink="http://www.w3.org/1999/xlink" x="0px" y="0px"
	 viewBox="0 0 512 512" style="enable-background:new 0 0 512 512;" xml:space="preserve">
<circle style="fill:#273B7A;" cx="256" cy="256" r="256"/>
<path style="fill:#121149;" d="M302.337,507.806c99.1-18.12,178.255-93.296,202.192-190.236L393.39,206.431l-65.334,36.292
	l-43.611-43.611l-41.015,26.793l41.032,41.032l-71.854,39.914l-79.15-79.15l-19.68-2.503l87.786,87.786l-7.025,3.903l11.112,11.112
	l-72.225,10.899L302.337,507.806z"/>
<path style="fill:#FF7F4F;" d="M377.68,199.111h-64.791v14.222c0,7.854-6.368,14.222-14.222,14.222s-14.222-6.368-14.222-14.222
	v-14.222h-83.928c-20.577,0-39.672,7.177-54.679,19.189c0.441-1.584,0.696-3.244,0.696-4.967c0-10.219-8.313-18.532-18.532-18.532
	s-18.532,8.313-18.532,18.532c0,10.219,8.313,18.532,18.532,18.532c1.672,0,3.284-0.243,4.825-0.659
	c-11.59,14.2-18.708,32.127-19.035,51.779c-0.8,47.795,37.705,86.792,85.32,86.792c47.128,0,85.333-38.205,85.333-85.333h93.234
	c11.345,0,20.544-9.197,20.544-20.544v-44.247C398.222,208.308,389.025,199.111,377.68,199.111z M118.088,213.333
	c0-5.467,4.446-9.912,9.912-9.912c5.466,0,9.912,4.446,9.912,9.912s-4.446,9.912-9.912,9.912
	C122.533,223.246,118.088,218.8,118.088,213.333z"/>
<g>
	<path style="fill:#D35933;" d="M377.68,199.111h-64.791v14.222c0,7.854-6.368,14.222-14.222,14.222s-14.222-6.368-14.222-14.222
		v-14.222h-83.928c-1.096,0-2.184,0.031-3.272,0.071v170.548c0.622,0.014,1.241,0.048,1.867,0.048
		c47.128,0,85.333-38.205,85.333-85.333h93.234c11.345,0,20.544-9.197,20.544-20.544v-44.247
		C398.222,208.308,389.025,199.111,377.68,199.111z"/>
	<circle style="fill:#D35933;" cx="199.111" cy="284.444" r="28.444"/>
</g>
<path style="fill:#B54324;" d="M199.111,256c-0.631,0-1.246,0.053-1.867,0.095v56.701c0.621,0.04,1.236,0.095,1.867,0.095
	c15.71,0,28.444-12.734,28.444-28.444C227.556,268.734,214.821,256,199.111,256z"/>
<g>
</g>
<g>
</g>
<g>
</g>
<g>
</g>
<g>
</g>
<g>
</g>
<g>
</g>
<g>
</g>
<g>
</g>
<g>
</g>
<g>
</g>
<g>
</g>
<g>
</g>
<g>
</g>
<g>
</g>
</svg>
