<?xml version="1.0" encoding="iso-8859-1"?>
<!-- Generator: Adobe Illustrator 19.0.0, SVG Export Plug-In . SVG Version: 6.00 Build 0)  -->
<svg version="1.1" id="Layer_1" xmlns="http://www.w3.org/2000/svg" xmlns:xlink="http://www.w3.org/1999/xlink" x="0px" y="0px"
	 viewBox="0 0 302.588 302.588" style="enable-background:new 0 0 302.588 302.588;" xml:space="preserve">
<g>
	<g>
		<path style="fill:#662621;" d="M128.717,189.227h45.107c0,0,1.025,20.772-21.512,20.772S128.683,193.435,128.717,189.227z"/>
	</g>
	<g>
		<rect x="134.461" y="166.581" style="fill:#DDC29B;" width="34" height="51"/>
	</g>
	<g>
		<path style="fill:#79302A;" d="M151.477,219.951c17.719,0,32.222-12.558,33.482-28.475l-11.135-2.249
			c0,11.481-9.837,20.788-22.385,20.788c-12.549,0-22.722-9.307-22.722-20.788l-10.728,2.166
			C119.205,207.349,133.728,219.951,151.477,219.951z"/>
	</g>
	<g>
		<path style="fill:#79302A;" d="M273.692,214.495c-2.161-13.69-14.684-24.034-29.412-27.008c-0.181-0.037-0.557-0.219-0.724-0.146
			c-31.091,13.531-18.869,74.335-15.592,105.24c18.92-5.241,35.944-12.364,50.33-20.945
			C278.293,271.635,275.926,228.651,273.692,214.495z"/>
	</g>
	<g>
		<path style="fill:#79302A;" d="M58.261,187.487c-14.728,2.974-27.255,13.317-29.412,27.008c-2.223,14.109-4.556,56.95-4.556,56.95
			c14.362,8.612,31.379,15.764,50.296,21.034c3.27-30.872,15.454-91.622-15.603-105.138
			C58.818,187.268,58.442,187.45,58.261,187.487z"/>
	</g>
	<g>
		<g>
			<path style="fill:#C63C22;" d="M196.948,299.118c0,0-28.323,3.338-45.493,3.463c-15.862,0.115-31.227-1.209-45.842-3.463
				c-10.816-36.667-11.997-75.677-12.082-113.612c12.947,2.42,24.457,5.887,24.457,5.887c1.216,15.956,15.74,28.557,33.489,28.557
				c17.719,0,32.222-12.558,33.482-28.475c0,0,11.301-3.428,24.07-5.855C208.943,223.52,207.753,262.488,196.948,299.118"/>
		</g>
	</g>
	<g>
		<path style="fill:#E8D8BF;" d="M236.624,111.301c0-7.098-4.379-13.164-10.578-15.671c0.222-2.471,0.341-4.918,0.341-7.327
			c0-41.38-33.545-56.194-74.925-56.194S76.536,46.923,76.536,88.303c0,2.409,0.118,4.856,0.341,7.327
			c-6.199,2.507-10.578,8.573-10.578,15.671c0,9.179,12.356,21.685,21.646,22.107c13.249,26.661,36.74,48.551,63.516,48.551
			s50.267-21.89,63.516-48.551C224.267,132.986,236.624,120.48,236.624,111.301z"/>
	</g>
	<g>
		<path style="fill:#DDCDB6;" d="M226.024,95.63c0.222-2.471,0.341-4.918,0.341-7.327c0-41.38-33.545-56.194-74.925-56.194
			S76.514,46.923,76.514,88.303c0,2.409,0.118,4.856,0.341,7.327c-6.199,2.507-10.578,8.573-10.578,15.671
			c0,9.179,12.356,21.685,21.646,22.107c13.249,26.661,36.74,48.551,63.516,48.551s50.267-21.89,63.516-48.551
			c9.29-0.422,21.646-12.928,21.646-22.107C236.602,104.203,232.223,98.136,226.024,95.63z M151.439,179.489
			c-31.403,0-56.86-51.012-56.86-83.904s25.457-45.281,56.86-45.281s56.86,12.389,56.86,45.281S182.842,179.489,151.439,179.489z"/>
	</g>
	<g>
		<path style="fill:#79302A;" d="M243.83,100.414c-0.478-5.571-3.159-7.87-5.831-8.755c2.237-91.248-86.616-89.367-86.616-89.367
			S62.508,0.411,64.768,91.695c-2.634,0.913-5.248,3.227-5.718,8.72c-0.927,10.81,0.73,27.619,11.847,32.683
			c0.231,0.919,0.442,1.82,0.687,2.752l7.023,3.687c0,0-6.665-27.039,8.714-45.475c13.096-15.699,47.385-9.481,64.062-9.481
			s50.966-6.218,64.062,9.481c15.379,18.436,10.014,45.475,10.014,45.475l5.722-3.687c0.24-0.912,0.446-1.792,0.672-2.692
			C243.089,128.167,244.76,111.266,243.83,100.414z"/>
	</g>
	<g>
		<path style="fill:#682521;" d="M243.83,100.414c-0.478-5.571-3.159-7.87-5.831-8.755c2.237-91.248-86.616-89.367-86.616-89.367
			S62.508,0.411,64.768,91.695c-2.634,0.913-5.248,3.227-5.718,8.72c-0.824,9.617,0.402,23.975,8.509,30.594
			c-1.298-5.881-1.422-12.273-1.022-17.345c0.433-5.493,2.834-7.807,5.255-8.72c-2.077-91.283,79.596-89.403,79.596-89.403
			s81.653-1.881,79.597,89.367c2.455,0.885,4.92,3.185,5.358,8.755c0.4,5.073,0.276,11.467-1.023,17.35
			C243.429,124.394,244.654,110.032,243.83,100.414z"/>
	</g>
	<g>
		<path style="fill:#E74C3C;" d="M164.007,84.162h-25.135c-3,0-5.433-2.432-5.433-5.433V5.433c0-3,2.432-5.433,5.433-5.433h25.135
			c3,0,5.433,2.432,5.433,5.433V78.73C169.44,81.73,167.007,84.162,164.007,84.162z"/>
	</g>
	<path style="fill:#2B2B2B;" d="M230.716,115.223l0.057-37.293c0-1.207-0.545-2.35-1.482-3.108c-0.938-0.76-2.169-1.059-3.35-0.804
		c-0.573,0.12-58.374,12.05-149.307-0.053c-1.139-0.148-2.295,0.197-3.162,0.956c-0.868,0.759-1.365,1.855-1.365,3.009l0.052,37.293
		l13.302,57.402c0.324,1.396,1.371,2.512,2.742,2.925l62.185,18.735c0.377,0.113,0.766,0.17,1.154,0.17
		c0.359,0,0.72-0.049,1.069-0.146l62.942-17.458c1.439-0.399,2.536-1.567,2.845-3.029L230.716,115.223
		C230.716,115.22,230.715,115.225,230.716,115.223z M222.773,82.734v29.049c-7.776,2.33-32.23,8.708-67.333,8.884V87.45
		C189.815,87.527,213.178,84.348,222.773,82.734z M216.839,142.436c-6.987,2.091-29.648,8.031-61.399,8.073v-21.705
		c31.926-0.102,55.209-5.279,66.019-8.278L216.839,142.436z M81.479,120.151c24.321,5.745,46.552,8.118,65.961,8.571v21.672
		c-18.16-0.543-38.878-3.094-61.081-9.246L81.479,120.151z M147.44,87.372v33.224c-19.791-0.433-42.551-2.9-67.333-9.011V82.481
		C105.421,85.676,127.997,87.049,147.44,87.372z M88.41,149.977c21.497,5.597,41.453,8.004,59.029,8.55v26.515l-54.71-16.484
		L88.41,149.977z M155.44,185.223v-26.57c0.035,0,0.072,0.001,0.107,0.001c28.081,0,49.174-4.556,59.419-7.332l-3.894,18.471
		L155.44,185.223z"/>
	<g>
		<path style="fill:#EDB7AB;" d="M228.055,283.426c2.513-23.744,20.917-54.216,20.933-77.756
			c-0.001-6.799-1.536-13.018-5.433-18.329c-4.183-5.702-21.134-4.873-35.109-2.355c-0.744,0.134-1.279,0.783-1.281,1.539
			c-0.07,37.498,0.463,76.383-10.218,112.593c10.78-1.662,21.153-3.891,31.007-6.635
			C227.658,289.603,227.717,286.573,228.055,283.426z"/>
	</g>
	<g>
		<path style="fill:#EDB7AB;" d="M58.985,187.341c-19.136,26.144,18.874,74.266,15.604,105.138
			c9.859,2.747,20.238,4.977,31.024,6.64c-10.722-36.347-10.592-75.454-10.671-113.085c-0.001-0.576-0.409-1.069-0.976-1.17
			C79.911,182.34,63.2,181.583,58.985,187.341z"/>
	</g>
</g>
<g>
</g>
<g>
</g>
<g>
</g>
<g>
</g>
<g>
</g>
<g>
</g>
<g>
</g>
<g>
</g>
<g>
</g>
<g>
</g>
<g>
</g>
<g>
</g>
<g>
</g>
<g>
</g>
<g>
</g>
</svg>
