<?xml version="1.0" encoding="iso-8859-1"?>
<!-- Generator: Adobe Illustrator 19.0.0, SVG Export Plug-In . SVG Version: 6.00 Build 0)  -->
<svg version="1.1" id="Layer_1" xmlns="http://www.w3.org/2000/svg" xmlns:xlink="http://www.w3.org/1999/xlink" x="0px" y="0px"
	 viewBox="0 0 300.834 300.834" style="enable-background:new 0 0 300.834 300.834;" xml:space="preserve">
<g>
	<g>
		<path style="fill:#25375E;" d="M129.762,187.479h41.269c0,0,0.938,20.772-19.681,20.772S129.73,191.687,129.762,187.479z"/>
	</g>
	<g>
		<rect x="133.586" y="164.833" style="fill:#DDC29B;" width="34" height="51"/>
	</g>
	<g>
		<g>
			<path style="fill:#B8C9F1;" d="M150.566,300.833c-0.642,0-1.28-0.013-1.921-0.017
				C148.652,300.827,149.605,300.833,150.566,300.833z"/>
			<path style="fill:#B8C9F1;" d="M251.564,228.043c-2.925-13.486-10.192-20.402-23.667-23.377l-46.679-12.626
				c-0.848,11.704-17.103,25.826-30.633,33.713v0.25c-13.398-7.797-29.812-22.185-30.639-34.045L71.23,206.333
				c-13.475,2.974-20.075,10.514-23,24l-14.008,39.363c13.14,8.612,28.709,15.764,46.016,21.034
				c20.701,6.304,43.894,9.905,68.406,10.085c-0.006-0.008,0.508-0.019,1.941-0.033l0,0c28.226-0.444,50.229-3.971,69.979-9.951
				c17.31-5.241,32.886-12.364,46.047-20.945L251.564,228.043z"/>
		</g>
		<path style="fill:#B8C9F1;" d="M155.563,300.783c-1.66,0.032-3.325,0.05-4.997,0.05
			C152.238,300.833,153.902,300.815,155.563,300.783z"/>
		<polygon style="fill:#3A4C81;" points="155.564,300.783 155.564,300.783 155.563,300.783 		"/>
	</g>
	<g>
		<path style="fill:#E8D8BF;" d="M235.747,109.553c0-7.098-4.379-13.164-10.578-15.671c0.222-2.471,0.341-4.918,0.341-7.327
			c0-41.38-33.545-56.194-74.925-56.194S75.66,45.175,75.66,86.555c0,2.409,0.118,4.856,0.341,7.327
			c-6.199,2.507-10.578,8.573-10.578,15.671c0,9.179,12.356,21.685,21.646,22.107c13.249,26.661,36.74,48.551,63.516,48.551
			s50.267-21.89,63.516-48.551C223.392,131.238,235.747,118.733,235.747,109.553z"/>
	</g>
	<g>
		<path style="fill:#4A6093;" d="M122.53,198.065c-1.449-2.943-2.402-5.8-2.584-8.419l-49.688,10.967
			c-13.475,2.974-23.985,13.522-26.91,27.008l-9.126,42.076c8.232,5.396,17.418,10.217,27.388,14.363
			c1.965-9.081,5.625-25.831,9.954-44.81C77.483,213.294,115.744,200.197,122.53,198.065z"/>
	</g>
	<g>
		<path style="fill:#4A6093;" d="M178.303,198.065c1.449-2.943,2.402-5.8,2.584-8.419l49.688,10.967
			c13.475,2.974,23.985,13.522,26.91,27.008l9.126,42.076c-8.232,5.396-17.418,10.217-27.388,14.363
			c-1.965-9.081-5.625-25.831-9.954-44.81C223.351,213.294,185.09,200.197,178.303,198.065z"/>
	</g>
	<g>
		<path style="fill:#DDCDB6;" d="M225.148,93.882c0.222-2.471,0.341-4.918,0.341-7.327c0-41.38-33.545-56.194-74.925-56.194
			S75.638,45.175,75.638,86.555c0,2.409,0.118,4.856,0.341,7.327c-6.199,2.507-10.578,8.573-10.578,15.671
			c0,9.179,12.356,21.685,21.646,22.107c13.249,26.661,36.74,48.551,63.516,48.551s50.267-21.89,63.516-48.551
			c9.29-0.422,21.646-12.928,21.646-22.107C235.726,102.455,231.348,96.389,225.148,93.882z M150.564,177.741
			c-31.403,0-56.86-51.012-56.86-83.904s25.457-45.281,56.86-45.281s56.86,12.389,56.86,45.281S181.967,177.741,150.564,177.741z"/>
	</g>
	<g>
		<path style="fill:#2B2B2B;" d="M225.488,100.417c0,0-2.945,17.667-15.679,29.381c0,0,8.949-21.809,3.059-33.587"/>
	</g>
	<g>
		<path style="fill:#2B2B2B;" d="M75.638,100.417c0,0,2.945,17.667,15.679,29.381c0,0-8.949-21.809-3.059-33.587"/>
	</g>
	<g>
		<path style="fill:#B8C9F1;" d="M232.842,80.414L68.23,80.333l4.737-45.905c2.079-13.857,13.215-24.584,27.139-26.144l50.124-5.617
			l50.763,5.638c13.937,1.548,25.089,12.28,27.17,26.148L232.842,80.414z"/>
	</g>
	<g>
		<ellipse style="fill:#4A6093;" cx="150.564" cy="3.333" rx="8.167" ry="3.333"/>
	</g>
	<g>
		<g>
			<path style="fill:#A8BBE2;" d="M228.163,34.452c-2.081-13.868-13.232-24.6-27.17-26.148l-50.43-5.601l38.997,5.601
				c10.777,1.548,19.401,12.28,21.01,26.148l3.66,45.881l18.611,0.08L228.163,34.452z"/>
		</g>
		<g>
			<path style="fill:#A8BBE2;" d="M111.546,8.284l38.727-5.612l-0.043-0.005l-50.124,5.617c-13.925,1.56-25.06,12.288-27.139,26.144
				L68.23,80.333h18.667l3.663-45.905C92.167,20.571,100.778,9.844,111.546,8.284z"/>
		</g>
	</g>
	<g>
		<path style="fill:#4A6093;" d="M150.564,92.361c25.624,0,51.074,15.297,63.252,23.808c3.949,2.76,8.874,0.331,10.394-5.107
			l8.633-30.648C199.01,50.411,150.564,51,150.564,51s-48.501-0.67-82.334,29.333l8.526,30.747
			c1.518,5.432,6.436,7.864,10.384,5.114C99.351,107.689,124.914,92.361,150.564,92.361z"/>
	</g>
	<path style="fill:#3A4C81;" d="M163.672,230.355l-0.623,0.46v69.71c1.026-0.049,2.048-0.105,3.068-0.166v-68.005
		c12.423-9.513,20.552-26.031,22.572-30.439c-0.998-0.42-1.946-0.805-2.849-1.16C183.788,205.166,175.618,221.537,163.672,230.355z"
		/>
	<path style="fill:#394C81;" d="M137.785,300.512v-69.697l-0.623-0.46c-11.933-8.808-20.111-25.187-22.166-29.6
		c-0.903,0.355-1.852,0.74-2.849,1.16c2.02,4.408,10.149,20.927,22.571,30.439v67.986
		C135.738,300.403,136.76,300.461,137.785,300.512z"/>
	<path style="fill:#3A4C81;" d="M182.226,189.941l-11.194-2.462c0,11.481-20.481,28.354-20.481,28.354s-20.788-16.873-20.789-28.354
		l-10.063,2.221c0.996,14.275,11.985,32.903,25.865,37.74v73.344c1.661,0.032,3.328,0.05,5.001,0.05c1.672,0,3.337-0.018,4.997-0.05
		h0.001v-73.329C169.438,222.653,181.193,204.193,182.226,189.941z"/>
</g>
<g>
</g>
<g>
</g>
<g>
</g>
<g>
</g>
<g>
</g>
<g>
</g>
<g>
</g>
<g>
</g>
<g>
</g>
<g>
</g>
<g>
</g>
<g>
</g>
<g>
</g>
<g>
</g>
<g>
</g>
</svg>
