<?xml version="1.0" encoding="iso-8859-1"?>
<!-- Generator: Adobe Illustrator 19.0.0, SVG Export Plug-In . SVG Version: 6.00 Build 0)  -->
<svg version="1.1" id="Layer_1" xmlns="http://www.w3.org/2000/svg" xmlns:xlink="http://www.w3.org/1999/xlink" x="0px" y="0px"
	 viewBox="0 0 297.996 297.996" style="enable-background:new 0 0 297.996 297.996;" xml:space="preserve">
<g>
	<g>
		<path style="fill:#897263;" d="M166.167,182.792V161.5h-34v21.287c0,4.017-3.03,7.383-7.025,7.796
			c-13.84,1.432-44.326,4.679-56.302,6.696c-13.608,2.292-23.985,13.522-26.91,27.008l-9.126,42.076
			c13.14,8.612,28.709,15.764,46.016,21.034c21.242,6.469,45.262,6.269,70.485,6.269c25.092,0,48.681,0.239,69.84-6.167
			c17.31-5.241,32.886-12.364,46.047-20.945l-9.167-42.266c-2.925-13.486-13.303-24.711-26.91-27.008
			c-11.894-2.008-42.156-5.255-55.93-6.691C169.194,190.172,166.167,186.807,166.167,182.792z"/>
	</g>
	<g>
		<path style="fill:#998272;" d="M234.33,106.22c0-7.098-4.379-13.164-10.578-15.671c0.222-2.471,0.341-4.918,0.341-7.327
			c0-41.38-33.545-76.025-74.925-76.025S74.242,41.842,74.242,83.222c0,2.409,0.118,4.856,0.341,7.327
			c-6.199,2.507-10.578,8.573-10.578,15.671c0,9.179,12.356,21.685,21.646,22.107c13.249,26.661,36.74,48.551,63.516,48.551
			s50.267-21.89,63.516-48.551C221.973,127.905,234.33,115.399,234.33,106.22z"/>
	</g>
	<g>
		<path style="fill:#D5F5E6;" d="M215.185,254.5v-59.18c-6.362-0.803-13.604-1.643-20.54-2.418V213.5
			c0,25.129-20.371,45.5-45.5,45.5s-45.5-20.371-45.5-45.5v-20.617c-7.031,0.78-14.384,1.628-20.833,2.438V254.5
			c0,0,0.866,17.403-8.353,31.511c1.443,0.474,2.893,1.105,4.361,1.552c21.242,6.469,45.104,10.433,70.326,10.433
			c25.092,0,48.839-3.925,69.999-10.331c1.497-0.453,2.964-1.105,4.435-1.586C214.315,271.959,215.185,254.5,215.185,254.5z"/>
	</g>
	<path style="fill:#356272;" d="M221.123,286.866c1.62-0.508,3.237-1.019,4.825-1.56c-0.067-0.206-0.152-0.408-0.277-0.598
		c-8.687-13.239-7.996-29.919-7.988-30.084c0.002-0.041,0.003-0.083,0.003-0.124v-59.181c0-1.26-0.938-2.323-2.188-2.48
		c-5.687-0.717-12.609-1.531-20.575-2.422c-0.709-0.078-1.414,0.146-1.944,0.621s-0.833,1.152-0.833,1.863V213.5
		c0,23.71-19.29,43-43,43s-43-19.29-43-43v-20.617c0-0.711-0.303-1.389-0.833-1.862c-0.529-0.475-1.238-0.699-1.942-0.622
		c-8.133,0.902-15.154,1.724-20.869,2.442c-1.251,0.157-2.188,1.221-2.188,2.48V254.5c0,0.04,0.001,0.082,0.003,0.122
		c0.008,0.166,0.695,16.794-7.948,30.021c-0.12,0.184-0.204,0.38-0.27,0.58c1.589,0.543,3.197,1.067,4.818,1.577
		c8.973-14.201,8.457-30.978,8.397-32.358v-56.913c4.567-0.563,9.873-1.184,15.833-1.852V213.5c0,26.468,21.532,48,48,48
		s48-21.532,48-48v-17.802c5.817,0.657,11.024,1.271,15.54,1.828v56.916C212.626,255.825,212.106,272.651,221.123,286.866z"/>
	<g>
		<path style="fill:#877161;" d="M223.729,90.549c0.222-2.471,0.341-4.918,0.341-7.327c0-41.38-33.545-75.888-74.925-75.888
			S74.22,41.842,74.22,83.222c0,2.409,0.118,4.856,0.341,7.327c-6.199,2.507-10.578,8.573-10.578,15.671
			c0,9.179,12.356,21.685,21.646,22.107c13.249,26.661,36.74,48.551,63.516,48.551s50.267-21.89,63.516-48.551
			c9.29-0.422,21.646-12.928,21.646-22.107C234.307,99.122,229.929,93.055,223.729,90.549z M149.145,174.408
			c-31.403,0-56.86-51.012-56.86-83.904S117.742,28,149.145,28s56.86,29.613,56.86,62.504S180.548,174.408,149.145,174.408z"/>
	</g>
	<g>
		<path style="fill:#2B2B2B;" d="M152.562,56h-6.833c-4.741,0-8.583-3.843-8.583-8.583V8.583c0-4.741,3.843-8.583,8.583-8.583h6.833
			c4.741,0,8.584,3.843,8.584,8.583v38.833C161.146,52.157,157.303,56,152.562,56z"/>
	</g>
	<g>
		<path style="fill:#2B2B2B;" d="M110.949,18.291c1.265,8.819,3.686,22.352,7.742,33.383c0.973,2.645,0.245,5.724-1.752,7.391
			l-2.563,2.14c-2.357,1.968-5.627,1.296-7.264-1.507c-4.226-7.238-11.722-20.909-14.873-31.856c-0.765-2.657,0.101-5.583,2.107-7.1
			l8.689-6.573C106.168,11.8,110.329,13.971,110.949,18.291z"/>
	</g>
	<g>
		<path style="fill:#2B2B2B;" d="M83.409,54.164c2.778,3.762,6.717,8.312,11.22,11.203c1.888,1.212,2.337,3.771,0.895,5.491
			l-4.817,5.744c-0.596,0.711-1.436,1.167-2.357,1.284c-2.604,0.333-8.287,0.807-13.793-0.414c-2.072-0.459-3.325-2.579-2.732-4.617
			l5.099-17.542C77.773,52.388,81.599,51.713,83.409,54.164z"/>
	</g>
	<g>
		<path style="fill:#2B2B2B;" d="M187.385,18.291c-1.265,8.819-3.686,22.352-7.742,33.383c-0.973,2.645-0.245,5.724,1.752,7.391
			l2.563,2.14c2.357,1.968,5.627,1.296,7.264-1.507c4.226-7.238,11.722-20.909,14.873-31.856c0.765-2.657-0.101-5.583-2.107-7.1
			l-8.689-6.573C192.167,11.8,188.005,13.971,187.385,18.291z"/>
	</g>
	<g>
		<path style="fill:#2B2B2B;" d="M214.926,54.164c-2.778,3.762-6.717,8.312-11.22,11.203c-1.888,1.212-2.337,3.771-0.895,5.491
			l4.817,5.744c0.596,0.711,1.436,1.167,2.357,1.284c2.604,0.333,8.287,0.807,13.793-0.414c2.072-0.459,3.325-2.579,2.732-4.617
			l-5.099-17.542C220.561,52.388,216.735,51.713,214.926,54.164z"/>
	</g>
</g>
<g>
</g>
<g>
</g>
<g>
</g>
<g>
</g>
<g>
</g>
<g>
</g>
<g>
</g>
<g>
</g>
<g>
</g>
<g>
</g>
<g>
</g>
<g>
</g>
<g>
</g>
<g>
</g>
<g>
</g>
</svg>
