<?xml version="1.0" encoding="iso-8859-1"?>
<!-- Generator: Adobe Illustrator 19.0.0, SVG Export Plug-In . SVG Version: 6.00 Build 0)  -->
<svg version="1.1" id="Layer_1" xmlns="http://www.w3.org/2000/svg" xmlns:xlink="http://www.w3.org/1999/xlink" x="0px" y="0px"
	 viewBox="0 0 297.296 297.296" style="enable-background:new 0 0 297.296 297.296;" xml:space="preserve">
<g>
	<g>
		<path style="fill:#555A5E;" d="M179.343,8.51c0,0,14-12,35.5-7.5s49.5,14,35,105c-14.5,91,12,102.5,12,102.5s-39-7-68-62
			S179.343,8.51,179.343,8.51z"/>
	</g>
	<g>
		<path style="fill:#292D30;" d="M196.676,6.853c21.5,4.5,49.5,14,35,105c-6.513,40.873-4.753,65.701-0.839,80.659
			c17.249,13.528,31.006,15.998,31.006,15.998s-26.5-11.5-12-102.5c14.5-91-13.5-100.5-35-105
			c-15.058-3.152-26.429,1.788-31.896,5.032C187.063,5.659,191.662,5.804,196.676,6.853z"/>
	</g>
	<g>
		<path style="fill:#DDC29B;" d="M127.703,160.01v21.292c0,4.014-3.324,6.226-7.019,7.796
			c-18.626,7.912-38.376,11.412-49.154,14.954c-13.109,4.309-23.985,13.522-26.91,27.008l-9.167,34.003
			c13.161,8.581,28.737,15.705,46.047,20.945c21.159,6.406,38.16,6.834,63.253,6.834l1.924-1.667
			c25.092,0,40.065,1.239,61.225-5.167c17.31-5.241,32.886-12.364,46.047-20.945l-9.167-34.003
			c-2.925-13.486-13.8-22.699-26.91-27.008c-10.778-3.542-30.528-7.042-49.154-14.954c-3.695-1.569-7.019-3.781-7.019-7.796V160.01
			H127.703z"/>
	</g>
	<g>
		<path style="fill:#E8D8BF;" d="M229.861,104.73c0-7.098-4.379-13.164-10.578-15.671c0.222-2.471,0.341-4.918,0.341-7.327
			c0-41.38-33.545-56.194-74.925-56.194S69.773,40.352,69.773,81.732c0,2.409,0.118,4.856,0.341,7.327
			c-6.199,2.507-10.578,8.573-10.578,15.671c0,9.179,12.356,21.685,21.646,22.107c13.249,26.661,36.74,48.551,63.516,48.551
			s50.267-21.89,63.516-48.551C217.504,126.415,229.861,113.909,229.861,104.73z"/>
	</g>
	<g>
		<path style="fill:#ED9AA5;" d="M211.444,202.175c-3.933-1.059-8.466-2.184-13.359-3.474c-0.001,0.018-0.002,0.041-0.003,0.06
			c-0.359,7.045-5.32,58.082-53.404,58.082s-52.999-51.037-53.356-58.082c-0.001-0.019-0.002-0.042-0.003-0.06
			c-4.894,1.29-9.427,2.415-13.359,3.474c1.272,7.064,7.886,32.735,3.5,57.923c3.231,4.172,10.15,14.74,10.624,28.95
			c16.631,4.487,31.845,6.959,52.619,6.961c20.757-0.002,35.961-2.47,52.576-6.949c1.254-13.988,7.879-25.202,10.595-29.358
			C203.623,234.642,210.178,209.203,211.444,202.175z"/>
	</g>
	<g>
		<g>
			<path style="fill:#D95459;" d="M73.423,283.361c4.214-7.417,6.727-15.518,8.107-23.659c3.047,3.842,10.447,14.679,10.595,29.358
				c-3.461-0.933-6.978-1.947-10.624-3.051C78.758,285.179,76.075,284.285,73.423,283.361z"/>
		</g>
	</g>
	<g>
		<path style="fill:#DDCDB6;" d="M219.261,89.059c0.222-2.471,0.341-4.918,0.341-7.327c0-41.38-33.545-56.194-74.925-56.194
			S69.751,40.352,69.751,81.732c0,2.409,0.118,4.856,0.341,7.327c-6.199,2.507-10.578,8.573-10.578,15.671
			c0,9.179,12.356,21.685,21.646,22.107c13.249,26.661,36.74,48.551,63.516,48.551s50.267-21.89,63.516-48.551
			c9.29-0.422,21.646-12.928,21.646-22.107C229.839,97.632,225.46,91.565,219.261,89.059z M144.676,172.918
			c-31.403,0-56.86-51.012-56.86-83.904s25.457-45.281,56.86-45.281s56.86,12.389,56.86,45.281S176.079,172.918,144.676,172.918z"/>
	</g>
	<g>
		<path style="fill:#292D30;" d="M89.343,93.177c-12.477,9.585,1.667,67,1.667,67C83.063,144,70.214,103.729,67.692,88.401
			C54.272,6.82,133.493-2.606,163.782,4.01c98.562,21.528,45.043,123.5,45.043,123.5s3.594-25.66-3.148-33.667
			C189.677,74.843,139.677,54.51,89.343,93.177z"/>
	</g>
	<g>
		<g>
			<path style="fill:#0F0F0F;" d="M163.782,19.848c42.795,9.347,56.911,33.86,59.194,58.607
				c2.466-29.349-7.202-63.088-59.194-74.445C134.709-2.34,60.569,6.102,66.53,78.933C71.82,20.717,136.969,13.992,163.782,19.848z"
				/>
		</g>
	</g>
	<g>
		<path style="fill:#D95459;" d="M217.1,96.913c-47.974-15.687-96.872-15.687-144.847,0c-3.378,1.105-6.56-3.562-7.148-10.423
			c-0.312-3.64-0.624-7.279-0.936-10.919c-0.604-7.043,1.751-13.694,5.219-14.828c49.872-16.31,100.704-16.31,150.577,0
			c3.468,1.134,5.823,7.785,5.219,14.828c-0.312,3.64-0.624,7.279-0.936,10.919C223.659,93.35,220.478,98.017,217.1,96.913z"/>
	</g>
	<g>
		<path style="fill:#D95459;" d="M190.191,196.536c-0.794,9.366-6.715,48.271-45.511,48.271c-38.795,0-44.681-38.905-45.47-48.271
			c-3.157,0.908-6.233,1.736-9.166,2.502c0.916,11.081,7.893,60.665,54.632,60.665c46.738,0,53.759-49.585,54.68-60.665
			C196.424,198.272,193.348,197.444,190.191,196.536z"/>
		<g>
			<path style="fill:#ECF0F1;" d="M144.724,297.296c-0.008,0-0.015,0-0.023,0s-0.015,0-0.023,0H144.724z"/>
		</g>
		<g>
			<path style="fill:#ECF0F1;" d="M144.72,278.253c-0.007,0-0.013,0-0.019,0s-0.013,0-0.019,0H144.72z"/>
		</g>
	</g>
	<g>
		<path style="fill:#D95459;" d="M215.979,283.361c-4.214-7.417-6.727-15.518-8.107-23.659
			c-3.047,3.842-10.447,14.679-10.595,29.358c3.461-0.933,6.978-1.947,10.624-3.051
			C210.644,285.179,213.326,284.285,215.979,283.361z"/>
	</g>
</g>
<g>
</g>
<g>
</g>
<g>
</g>
<g>
</g>
<g>
</g>
<g>
</g>
<g>
</g>
<g>
</g>
<g>
</g>
<g>
</g>
<g>
</g>
<g>
</g>
<g>
</g>
<g>
</g>
<g>
</g>
</svg>
