<?xml version="1.0" encoding="iso-8859-1"?>
<!-- Generator: Adobe Illustrator 19.0.0, SVG Export Plug-In . SVG Version: 6.00 Build 0)  -->
<svg version="1.1" id="Layer_1" xmlns="http://www.w3.org/2000/svg" xmlns:xlink="http://www.w3.org/1999/xlink" x="0px" y="0px"
	 viewBox="0 0 292.487 292.487" style="enable-background:new 0 0 292.487 292.487;" xml:space="preserve">
<g>
	<g>
		<path style="fill:#897263;" d="M163.412,177.778v-21.292h-34v21.287c0,4.017-3.03,7.383-7.025,7.796
			c-13.84,1.432-44.326,4.679-56.302,6.696c-13.608,2.292-23.985,13.522-26.91,27.008l-9.126,42.076
			c13.14,8.612,28.709,15.764,46.016,21.034c21.242,6.469,45.769,5.269,70.992,5.269c25.092,0,48.174,1.239,69.333-5.167
			c17.31-5.241,32.886-12.364,46.048-20.945l-9.167-42.266c-2.925-13.486-13.303-24.711-26.91-27.008
			c-11.894-2.008-42.156-5.255-55.93-6.691C166.439,185.158,163.412,181.793,163.412,177.778z"/>
	</g>
	<g>
		<path style="fill:#998272;" d="M231.575,101.206c0-7.098-4.379-13.164-10.578-15.671c0.222-2.471,0.341-4.918,0.341-7.327
			c0-41.38-33.545-76.025-74.925-76.025S71.487,36.828,71.487,78.208c0,2.409,0.118,4.856,0.341,7.327
			c-6.199,2.507-10.578,8.573-10.578,15.671c0,9.179,12.356,21.685,21.646,22.107c13.249,26.661,36.74,48.551,63.516,48.551
			s50.267-21.89,63.516-48.551C219.218,122.891,231.575,110.385,231.575,101.206z"/>
	</g>
	<g>
		<path style="fill:#2B2B2B;" d="M212.43,248.506v-60.528c-6.362-0.821-13.604-1.681-20.54-2.473v21.068
			c0,25.701-20.371,46.536-45.5,46.536s-45.5-20.835-45.5-46.536v-21.086c-7.031,0.798-14.384,1.665-20.833,2.493v60.527
			c0,0,0.866,17.8-8.353,32.229c1.443,0.485,2.893,0.961,4.361,1.418c21.242,6.616,45.104,10.333,70.326,10.333
			c25.092,0,48.839-3.676,69.999-10.229c1.497-0.464,2.964-0.961,4.435-1.453C211.561,266.363,212.43,248.506,212.43,248.506z"/>
	</g>
	<path style="fill:#FFFFFF;" d="M218.368,281.852c1.62-0.508,3.237-1.019,4.825-1.56c-0.067-0.206-0.152-0.408-0.277-0.598
		c-8.687-13.239-7.996-29.919-7.988-30.084c0.002-0.041,0.003-0.083,0.003-0.124v-61.989c0-1.26-0.938-2.322-2.188-2.48
		c-5.671-0.716-12.594-1.53-20.575-2.423c-0.708-0.081-1.414,0.147-1.944,0.621c-0.53,0.475-0.833,1.152-0.833,1.863v23.408
		c0,23.71-19.29,43-43,43s-43-19.29-43-43V185.06c0-0.711-0.303-1.389-0.832-1.862c-0.53-0.475-1.238-0.7-1.943-0.622
		c-8.041,0.891-15.063,1.712-20.869,2.441c-1.25,0.157-2.188,1.22-2.188,2.48v61.988c0,0.04,0.001,0.082,0.003,0.122
		c0.008,0.166,0.695,16.794-7.948,30.021c-0.12,0.184-0.204,0.38-0.27,0.58c1.589,0.543,3.197,1.067,4.818,1.577
		c8.973-14.201,8.457-30.978,8.397-32.358v-59.723c4.619-0.568,9.925-1.188,15.833-1.852v20.632c0,26.468,21.532,48,48,48
		s48-21.532,48-48v-20.611c5.826,0.658,11.034,1.271,15.54,1.829v59.725C209.871,250.811,209.352,267.637,218.368,281.852z"/>
	<g>
		<path style="fill:#877161;" d="M220.975,85.535c0.222-2.471,0.341-4.918,0.341-7.327c0-41.38-33.545-56.194-74.925-56.194
			S71.465,36.828,71.465,78.208c0,2.409,0.118,4.856,0.341,7.327c-6.199,2.507-10.578,8.573-10.578,15.671
			c0,9.179,12.356,21.685,21.646,22.107c13.249,26.661,36.74,48.551,63.516,48.551s50.267-21.89,63.516-48.551
			c9.29-0.422,21.646-12.928,21.646-22.107C231.553,94.108,227.174,88.041,220.975,85.535z M146.39,169.394
			c-31.403,0-56.86-51.012-56.86-83.904s25.457-45.281,56.86-45.281s56.86,12.389,56.86,45.281S177.793,169.394,146.39,169.394z"/>
	</g>
	<g>
		<g>
			<path style="fill:#595B5B;" d="M83.058,115.986l-11.728,6.056c8.977,18.063,23.667,36.939,42.478,47.764v-9.382
				C98.415,150.22,90.784,131.534,83.058,115.986z"/>
		</g>
		<g>
			<path style="fill:#595B5B;" d="M221.494,122.042l-9.437-10.056c-7.51,15.112-16.964,37.334-31.75,47.574v9.471
				C198.497,158.098,212.725,139.688,221.494,122.042z"/>
		</g>
		<g>
			<path style="fill:#BDC3C7;" d="M146.359,167.303c-11.463,0-22.106-3.461-31.697-9.105c-1.594-0.938-3.604,0.242-3.604,2.091
				v7.702c0,0.874,0.468,1.688,1.233,2.111c10.313,5.706,21.742,9.168,34.068,9.168c12.906,0,24.821-3.806,35.508-9.999
				c0.741-0.429,1.191-1.229,1.191-2.086v-7.693c0-1.884-2.066-3.072-3.67-2.085C169.454,163.521,158.354,167.303,146.359,167.303z"
				/>
		</g>
	</g>
	<g>
		<path style="fill:#2B2B2B;" d="M146.391,0c-40,0-77.538,13.153-86.038,27.153s-6.5,63-6.5,63s3,52.5,23,52s18.5-21,12-34.5
			s-4-30.5-4-30.5s0.731-8.833,9.064-6.5s28.474,11.667,52.474,11.667s44-9.333,52.334-11.667c8.333-2.333,9.064,6.5,9.064,6.5
			s2.5,17-4,30.5s-8,34,12,34.5s23-52,23-52s2-49-6.5-63S186.391,0,146.391,0z"/>
	</g>
	<g>
		<path style="fill:#595B5B;" d="M120.557,53.319h51.666c3.59,0,6.5-2.91,6.5-6.5v-22c0-3.59-2.91-6.5-6.5-6.5h-51.666
			c-3.59,0-6.5,2.91-6.5,6.5v22C114.057,50.409,116.967,53.319,120.557,53.319z"/>
	</g>
</g>
<g>
</g>
<g>
</g>
<g>
</g>
<g>
</g>
<g>
</g>
<g>
</g>
<g>
</g>
<g>
</g>
<g>
</g>
<g>
</g>
<g>
</g>
<g>
</g>
<g>
</g>
<g>
</g>
<g>
</g>
</svg>
