<?xml version="1.0" encoding="iso-8859-1"?>
<!-- Generator: Adobe Illustrator 19.0.0, SVG Export Plug-In . SVG Version: 6.00 Build 0)  -->
<svg version="1.1" id="Layer_1" xmlns="http://www.w3.org/2000/svg" xmlns:xlink="http://www.w3.org/1999/xlink" x="0px" y="0px"
	 viewBox="0 0 291.309 291.309" style="enable-background:new 0 0 291.309 291.309;" xml:space="preserve">
<g>
	<g>
		<path style="fill:#5E4534;" d="M47.443,266.48h196.422L233.627,194c-2.419-17.129-17.079-29.863-34.378-29.863H92.058
			c-17.299,0-31.958,12.735-34.378,29.863L47.443,266.48z"/>
	</g>
	<g>
		<path style="fill:#E67E22;" d="M33.321,165.475h224.666c6.996,0,12.667-5.671,12.667-12.667v-36
			c0-6.996-5.671-12.667-12.667-12.667H33.321c-6.996,0-12.667,5.671-12.667,12.667v36
			C20.654,159.804,26.325,165.475,33.321,165.475z"/>
	</g>
	<g>
		<path style="fill:#D1691C;" d="M257.987,104.142H33.321c-6.996,0-12.667,5.671-12.667,12.667v17.5
			c0-6.996,5.671-12.667,12.667-12.667h224.667c6.996,0,12.667,5.671,12.667,12.667v-17.5
			C270.654,109.813,264.983,104.142,257.987,104.142z"/>
	</g>
	<g>
		<path style="fill:#5B5869;" d="M124.852,177.954h41.269c0,0,0.938,20.772-19.681,20.772S124.821,182.163,124.852,177.954z"/>
	</g>
	<path style="fill:#ECF0F1;" d="M248.571,219.309c-2.925-13.486-9.471-25.247-22.946-28.221l-59.503-13.134h-41.269l-59.504,13.134
		c-13.475,2.974-20.853,14.485-23.778,27.971l-9.5,38.75c13.14,8.612,25.951,18.127,43.258,23.398
		c21.242,6.469,45.104,10.102,70.326,10.102c25.092,0,48.839-3.595,69.999-10.001c17.31-5.241,26.255-12.668,39.417-21.249
		L248.571,219.309z"/>
	<g>
		<polygon style="fill:#DDC29B;" points="128.676,196.309 145.676,206.309 162.676,196.309 162.676,155.309 128.676,155.309 		"/>
	</g>
	<g>
		<path style="fill:#E8D8BF;" d="M230.838,100.029c0-7.098-4.379-13.164-10.578-15.671c0.222-2.471,0.341-4.918,0.341-7.327
			c0-41.38-33.545-56.194-74.925-56.194S70.75,35.65,70.75,77.03c0,2.409,0.118,4.856,0.341,7.327
			c-6.199,2.507-10.578,8.573-10.578,15.671c0,9.179,12.356,21.685,21.646,22.107c13.249,26.661,36.74,48.551,63.516,48.551
			s50.267-21.89,63.516-48.551C218.482,121.713,230.838,109.208,230.838,100.029z"/>
	</g>
	<g>
		<path style="fill:#BDC3C7;" d="M145.676,208.678c16.211,0,29.48-12.558,30.633-28.475l-10.188-2.249
			c0,11.481-9,20.788-20.481,20.788s-20.788-9.307-20.789-20.788l-9.816,2.166C116.149,196.077,129.437,208.678,145.676,208.678z"/>
	</g>
	<g>
		<path style="fill:#BDC3C7;" d="M252.534,218.096c-2.925-13.486-13.435-24.034-26.91-27.008l-0.662-0.146
			c-14.141,28.148-12.306,59.461-9.308,90.366c17.31-5.241,32.886-12.364,46.047-20.945L252.534,218.096z"/>
	</g>
	<g>
		<path style="fill:#BDC3C7;" d="M65.349,191.088c-13.475,2.974-23.985,13.522-26.91,27.008l-9.126,42.076
			c13.14,8.612,28.709,15.764,46.016,21.034c2.992-30.872,4.808-62.148-9.318-90.265L65.349,191.088z"/>
	</g>
	<g>
		<path style="fill:#A38671;" d="M102.321,174.975l-22.5,4.333v103.208c7.231,2.032,14.749,3.734,22.5,5.087V174.975z"/>
	</g>
	<g>
		<path style="fill:#A38671;" d="M211.487,282.522V179.309l-22.5-4.333v112.63C196.737,286.252,204.256,284.553,211.487,282.522z"/>
	</g>
	<g>
		<path style="fill:#DDCDB6;" d="M220.238,84.357c0.222-2.471,0.341-4.918,0.341-7.327c0-41.38-33.545-56.194-74.925-56.194
			S70.728,35.65,70.728,77.03c0,2.409,0.118,4.856,0.341,7.327c-6.199,2.507-10.578,8.573-10.578,15.671
			c0,9.179,12.356,21.685,21.646,22.107c13.249,26.661,36.74,48.551,63.516,48.551s50.267-21.89,63.516-48.551
			c9.29-0.422,21.646-12.928,21.646-22.107C230.816,92.931,226.437,86.864,220.238,84.357z M145.653,168.217
			c-31.403,0-56.86-51.012-56.86-83.904s25.457-45.281,56.86-45.281s56.86,12.389,56.86,45.281S177.056,168.217,145.653,168.217z"/>
	</g>
	<g>
		<path style="fill:#8E725E;" d="M220.821,70.809H70.487l7.63-40.948c1.898-13.857,12.064-24.584,24.777-26.144l13.728-1.816
			c19.07-2.523,38.388-2.535,57.461-0.037l14.307,1.874c12.724,1.548,22.905,12.28,24.805,26.148L220.821,70.809z"/>
	</g>
	<g>
		<path style="fill:#A38671;" d="M200.237,70.809H91.071l5.541-40.948c1.378-13.857,8.761-24.584,17.992-26.144l9.968-1.816
			c13.848-2.523,27.876-2.535,41.726-0.037l10.389,1.874c9.24,1.548,16.633,12.28,18.012,26.148L200.237,70.809z"/>
	</g>
	<g>
		<path style="fill:#5E4534;" d="M145.654,81.53c23.394,0,46.629,11.28,57.746,18.317c3.605,2.282,8.102,0.274,9.489-4.222
			l7.932-24.815c-30.888-24.805-75.167-23.474-75.167-23.474s-44.279-1.33-75.167,23.474l7.784,24.83
			c1.386,4.491,5.876,6.501,9.48,4.228C98.899,92.835,122.237,81.53,145.654,81.53z"/>
	</g>
</g>
<g>
</g>
<g>
</g>
<g>
</g>
<g>
</g>
<g>
</g>
<g>
</g>
<g>
</g>
<g>
</g>
<g>
</g>
<g>
</g>
<g>
</g>
<g>
</g>
<g>
</g>
<g>
</g>
<g>
</g>
</svg>
