<?xml version="1.0" encoding="iso-8859-1"?>
<!-- Generator: Adobe Illustrator 19.0.0, SVG Export Plug-In . SVG Version: 6.00 Build 0)  -->
<svg version="1.1" id="Layer_1" xmlns="http://www.w3.org/2000/svg" xmlns:xlink="http://www.w3.org/1999/xlink" x="0px" y="0px"
	 viewBox="0 0 293.455 293.455" style="enable-background:new 0 0 293.455 293.455;" xml:space="preserve">
<g>
	<g>
		<path style="fill:#2B2B2B;" d="M233.376,86.917c0,0-4.167,12.592-13.917,9.092l6.417-14.71L233.376,86.917z"/>
	</g>
	<g>
		<path style="fill:#2B2B2B;" d="M60.376,86.917c0,0,4.167,12.592,13.917,9.092l-6.417-14.71L60.376,86.917z"/>
	</g>
	<g>
		<path style="fill:#394C81;" d="M126.074,180.099h41.269c0,0,0.938,20.772-19.681,20.772S126.043,184.307,126.074,180.099z"/>
	</g>
	<g>
		<rect x="129.898" y="157.453" style="fill:#DDC29B;" width="34" height="51"/>
	</g>
	<g>
		<path style="fill:#E8D8BF;" d="M232.06,102.173c0-7.098-4.379-13.164-10.578-15.671c0.222-2.471,0.341-4.918,0.341-7.327
			c0-41.38-33.545-56.194-74.925-56.194S71.973,37.795,71.973,79.175c0,2.409,0.118,4.856,0.341,7.327
			c-6.199,2.507-10.578,8.573-10.578,15.671c0,9.179,12.356,21.685,21.646,22.107c13.249,26.661,36.74,48.551,63.516,48.551
			s50.267-21.89,63.516-48.551C219.704,123.858,232.06,111.353,232.06,102.173z"/>
	</g>
	<path style="fill:#99ABD5;" d="M253.757,220.241c-2.925-13.486-13.435-24.034-26.91-27.008l-49.316-10.885
		c-0.041,0.571-0.103,1.135-0.175,1.697c-1.937,15.103-14.828,26.778-30.459,26.778c-16.239,0-29.527-12.601-30.639-28.557
		L66.57,193.233c-13.475,2.974-23.985,13.522-26.91,27.008l-9.126,42.076c7.207,4.724,15.149,9.004,23.703,12.78
		c7.042,3.108,14.498,5.875,22.313,8.254c21.242,6.469,45.104,10.103,70.326,10.103c25.092,0,48.839-3.594,69.999-10.001
		c7.741-2.344,15.111-5.083,22.097-8.142c8.637-3.781,16.674-8.06,23.95-12.804L253.757,220.241z"/>
	<path style="fill:#394C81;" d="M217.875,217.313c-2.425-1.76-5.106-3.241-8.074-4.36c-24.9-9.388-30.975-25.458-32.356-30.471
		c-1.938,15.103-14.8,28.341-30.43,28.341c-16.239,0-29.527-12.601-30.639-28.557c0,0-2.215,19.188-32.715,30.688
		c-2.901,1.094-5.529,2.531-7.911,4.239c-19.11,13.703-18.051,43.957-17.205,56.928c7.042,3.108,10.31,6.851,18.124,9.231
		c21.242,6.469,45.104,10.103,70.326,10.103c25.093,0,48.839-3.594,69.999-10.001c7.741-2.344,9.731-4.107,16.717-7.166
		C234.603,263.487,236.944,231.155,217.875,217.313z"/>
	<g>
		<g>
			<path style="fill:#5065A1;" d="M217.875,217.313c-4.598,21.366-3.043,43.859-0.882,66.139c7.741-2.344,15.111-5.083,22.097-8.142
				C239.983,262.512,236.944,231.155,217.875,217.313z"/>
		</g>
		<g>
			<path style="fill:#5065A1;" d="M75.748,217.192c-19.11,13.703-22.24,44.933-21.394,57.904c7.042,3.108,14.498,5.875,22.313,8.254
				C78.828,261.061,80.372,238.562,75.748,217.192z"/>
		</g>
	</g>
	<g>
		<path style="fill:#DDCDB6;" d="M221.46,86.502c0.222-2.471,0.341-4.918,0.341-7.327c0-41.38-33.545-56.194-74.925-56.194
			S71.951,37.795,71.951,79.175c0,2.409,0.118,4.856,0.341,7.327c-6.199,2.507-10.578,8.573-10.578,15.671
			c0,9.179,12.356,21.685,21.646,22.107c13.249,26.661,36.74,48.551,63.516,48.551s50.267-21.89,63.516-48.551
			c9.29-0.422,21.646-12.928,21.646-22.107C232.038,95.075,227.66,89.009,221.46,86.502z M146.876,170.361
			c-31.403,0-56.86-51.012-56.86-83.904s25.457-45.281,56.86-45.281s56.86,12.389,56.86,45.281S178.279,170.361,146.876,170.361z"/>
	</g>
	<g>
		<path style="fill:#5E4534;" d="M67.793,83.008c0,0,3.25,21.25,14.87,34.522c0,0-5.58-27.102,0.38-39.022"/>
	</g>
	<g>
		<path style="fill:#5E4534;" d="M225.959,83.008c0,0-3.25,21.25-14.87,34.522c0,0,5.58-27.102-0.38-39.022"/>
	</g>
	<g>
		<rect x="134.71" y="4.953" style="fill:#2B2B2B;" width="24.833" height="30.167"/>
	</g>
	<g>
		<path style="fill:#2B2B2B;" d="M111.731,28.567L98.83,12.58L81.694,29.649l11.274,14.06c2.712,3.36,7.634,3.885,10.993,1.173
			l6.596-5.325C113.916,36.847,114.441,31.926,111.731,28.567z"/>
	</g>
	<g>
		<path style="fill:#2B2B2B;" d="M182.342,28.59l12.609-15.625L211.7,29.648l-11.019,13.743c-2.65,3.284-7.462,3.798-10.745,1.147
			l-6.447-5.204C180.205,36.683,179.692,31.873,182.342,28.59z"/>
	</g>
	<g>
		<path style="fill:#5065A1;" d="M146.811,212.703c16.211,0,31.982-14,30.72-30.356l-10.188-2.249c0,11.481-9,20.788-20.481,20.788
			s-20.788-9.307-20.789-20.788l-9.816,2.166C115.543,200.871,130.572,212.703,146.811,212.703z"/>
	</g>
	<g>
		<path style="fill:#828282;" d="M209.435,29.746l-9.406,11.655c-2.268,2.81-6.385,3.25-9.195,0.981l-5.517-4.453
			c-2.809-2.268-3.248-6.384-0.981-9.193l10.901-13.508c1.598-1.98,1.065-4.901-1.106-6.228c-9.447-5.772-20.093-9.013-31.354-9
			c-2.925,0.003-5.276,2.421-5.276,5.346v21.503c0,3.923-3.181,7.104-7.104,7.104h-7.042c-3.923,0-7.104-3.181-7.104-7.104V5.346
			c0-2.925-2.352-5.342-5.276-5.346c-11.262-0.013-21.907,3.228-31.354,9c-2.171,1.327-2.704,4.247-1.106,6.228l10.901,13.508
			c2.267,2.81,1.828,6.925-0.981,9.193l-5.517,4.453c-2.81,2.268-6.927,1.829-9.195-0.981l-9.405-11.655
			c-1.746-2.163-5.083-2.062-6.684,0.21c-10.75,15.255-17.257,35.171-17.257,56.961c0,0,85.167-25.963,173,0
			c0-21.79-6.507-41.706-17.257-56.961C214.518,27.684,211.181,27.582,209.435,29.746z"/>
	</g>
	<g>
		<path style="fill:#2B2B2B;" d="M60.984,75.553c18.508-6.992,91.992-30.6,171.787,0.027c-0.324-3.066-0.776-6.081-1.353-9.038
			c-47.28-17.099-91.635-15.878-121.245-11.583c-21.566,3.128-38.242,8.164-47.832,11.551
			C61.763,69.468,61.309,72.485,60.984,75.553z"/>
	</g>
</g>
<g>
</g>
<g>
</g>
<g>
</g>
<g>
</g>
<g>
</g>
<g>
</g>
<g>
</g>
<g>
</g>
<g>
</g>
<g>
</g>
<g>
</g>
<g>
</g>
<g>
</g>
<g>
</g>
<g>
</g>
</svg>
