<?xml version="1.0" encoding="iso-8859-1"?>
<!-- Generator: Adobe Illustrator 19.0.0, SVG Export Plug-In . SVG Version: 6.00 Build 0)  -->
<svg version="1.1" id="Layer_1" xmlns="http://www.w3.org/2000/svg" xmlns:xlink="http://www.w3.org/1999/xlink" x="0px" y="0px"
	 viewBox="0 0 296.126 296.126" style="enable-background:new 0 0 296.126 296.126;" xml:space="preserve">
<g>
	<path style="fill:#BDC3C7;" d="M259.979,219.57c-3.059-14.102-14.048-25.131-28.139-28.241l-51.568-16.75
		c-1.205,16.644-32.23,47.828-32.23,47.828s-30.677-31.229-31.841-47.914l-51.957,16.836c-14.09,3.11-25.08,14.14-28.138,28.241
		l-9.543,43.997c13.74,9.005,30.02,16.483,48.117,21.995c22.212,6.764,47.583,6.167,73.958,6.167
		c26.238,0,50.649,0.638,72.775-6.061c18.101-5.48,34.388-12.929,48.15-21.902L259.979,219.57z"/>
	<g>
		<path style="fill:#939799;" d="M180.273,169.579c-1.205,16.644-32.23,52.828-32.23,52.828s-30.677-36.229-31.841-52.914
			l-51.264,21.683c14.771,29.401,12.872,62.105,9.743,94.386c22.212,6.764,47.163,10.564,73.538,10.564
			c26.238,0,51.069-3.759,73.195-10.457c-3.135-32.316-5.054-65.059,9.733-94.492L180.273,169.579z"/>
	</g>
	<g>
		<path style="fill:#D5DEE2;" d="M106.043,148.688c0,0,8.392,20.126-9.163,38.656c-1.844,1.947-1.87,4.993-0.105,7.013
			l51.443,58.897l52.261-58.895c1.79-2.018,1.775-5.084-0.079-7.044c-17.519-18.523-9.136-38.628-9.136-38.628h-85.221V148.688z"/>
	</g>
	<g>
		<path style="fill:#BDC3C7;" d="M221.108,71.397c0,50.884-32.634,104.23-72.891,104.23s-72.891-53.346-72.891-104.23
			S107.961,0,148.218,0S221.108,20.513,221.108,71.397z"/>
	</g>
	<g>
		<path style="fill:#939799;" d="M205.372,71.397c0,39.899-25.589,84.34-57.155,84.34s-57.155-44.441-57.155-84.34
			s25.59-51.507,57.156-51.507S205.372,31.498,205.372,71.397z"/>
	</g>
	<g>
		<path style="fill:#7F8284;" d="M148.218,40.801c29.427,0,53.65,8.953,56.798,38.822c0.233-2.753,0.356-5.5,0.356-8.226
			c0-39.899-25.589-51.507-57.155-51.507S91.062,31.498,91.062,71.397c0,2.726,0.124,5.473,0.356,8.226
			C94.568,49.754,118.791,40.801,148.218,40.801z"/>
	</g>
</g>
<g>
</g>
<g>
</g>
<g>
</g>
<g>
</g>
<g>
</g>
<g>
</g>
<g>
</g>
<g>
</g>
<g>
</g>
<g>
</g>
<g>
</g>
<g>
</g>
<g>
</g>
<g>
</g>
<g>
</g>
</svg>
