<?xml version="1.0" encoding="iso-8859-1"?>
<!-- Generator: Adobe Illustrator 19.0.0, SVG Export Plug-In . SVG Version: 6.00 Build 0)  -->
<svg version="1.1" id="Layer_1" xmlns="http://www.w3.org/2000/svg" xmlns:xlink="http://www.w3.org/1999/xlink" x="0px" y="0px"
	 viewBox="0 0 296.386 296.386" style="enable-background:new 0 0 296.386 296.386;" xml:space="preserve">
<g>
	<g>
		<path style="fill:#EF9D9A;" d="M202.784,288.886c0.003,0.001,0.005,0.002,0.008,0.002l-0.001-0.004
			c2.81-0.779,5.664-1.609,8.603-2.499c7.938-2.403,15.49-5.22,22.633-8.374c8.434-3.724,16.288-7.925,23.414-12.571l-9.167-34.003
			c-2.925-13.486-13.8-22.699-26.91-27.008c-10.778-3.542-30.528-7.042-49.154-14.954c-2.647-1.125-5.097-2.583-6.278-4.794
			c-0.467-0.875-0.741-1.864-0.741-3.001v-21.292h-33.995v21.292c0,1.154-0.282,2.155-0.761,3.038
			c-1.188,2.191-3.625,3.639-6.258,4.758c-7.135,3.031-14.432,5.411-21.329,7.397c-11.108,3.199-19.862,8.329-26.511,10.515
			c-13.109,4.309-23.325,10.764-26.25,24.25l-7,32.5c13.161,8.581,25.44,15.009,42.75,20.25L202.784,288.886z"/>
	</g>
	<g>
		<g>
			<path style="fill:#EFC3BF;" d="M148.169,193.095c7.16,0,13.553-3.278,17.763-8.415c-0.467-0.875-0.741-1.864-0.741-3.001v-21.292
				h-33.995v21.292c0,1.154-0.282,2.155-0.761,3.038C134.645,189.832,141.026,193.095,148.169,193.095z"/>
		</g>
	</g>
	<g>
		<g>
			<path style="fill:#C0392B;" d="M157.836,228.386c-15,8.5-17.667,43.5-17.667,43.5c-25-27.334-17-63.75-17-63.75
				c-11,6.25-17.333,20.25-17.333,20.25c-5.278-12.911-4.586-24.167-2.989-31.515c-11.108,3.199-21.176,5.372-27.825,7.557
				c-13.109,4.309-23.985,13.522-26.91,27.008l-9.167,34.003c13.161,8.581,28.737,15.705,46.047,20.946
				c21.153,6.404,38.121,9.998,63.201,10c21.593-0.002,37.177-2.672,54.591-7.5C149.082,272.22,157.836,228.386,157.836,228.386z"/>
		</g>
		<g>
			<path style="fill:#DDC29B;" d="M148.215,296.386c-0.008,0-0.015,0-0.022,0s-0.015,0-0.023,0H148.215z"/>
		</g>
		<g>
			<path style="fill:#C0392B;" d="M202.792,248.091c-8.698,8.526-0.026,40.701-0.001,40.793c2.81-0.779,5.664-1.609,8.603-2.499
				c7.938-2.403,15.49-5.22,22.633-8.374C211.131,265.72,202.792,248.091,202.792,248.091z"/>
		</g>
		<g>
			<polygon style="fill:#F9B65F;" points="202.792,288.888 202.791,288.884 202.784,288.886 			"/>
		</g>
	</g>
	<g>
		<path style="fill:#E8D8BF;" d="M233.353,107.854c0-6.822-4.379-12.652-10.578-15.062c0.222-2.374,0.341-4.726,0.341-7.042
			c0-39.771-33.545-54.008-74.925-54.008S73.265,45.98,73.265,85.751c0,2.315,0.118,4.667,0.341,7.042
			c-6.199,2.409-10.578,8.24-10.578,15.062c0,8.822,12.356,20.841,21.646,21.247c13.249,25.624,36.74,46.663,63.516,46.663
			s50.267-21.039,63.516-46.663C220.996,128.696,233.353,116.677,233.353,107.854z"/>
	</g>
	<g>
		<g>
			<path style="fill:#D95459;" d="M148.215,296.386c-0.008,0-0.015,0-0.022,0s-0.015,0-0.023,0H148.215z"/>
		</g>
	</g>
	<g>
		<path style="fill:#E5D1B7;" d="M222.753,92.793c0.222-2.374,0.341-4.726,0.341-7.042c0-39.771-33.545-54.008-74.925-54.008
			S73.243,45.98,73.243,85.751c0,2.315,0.118,4.667,0.341,7.042c-6.199,2.409-10.578,8.24-10.578,15.062
			c0,8.822,12.356,20.841,21.646,21.247c13.249,25.624,36.74,46.663,63.516,46.663s50.267-21.039,63.516-46.663
			c9.29-0.406,21.646-12.425,21.646-21.247C233.331,101.032,228.952,95.202,222.753,92.793z M148.168,173.39
			c-31.403,0-56.86-49.028-56.86-80.64s25.457-43.52,56.86-43.52s56.86,11.907,56.86,43.52S179.571,173.39,148.168,173.39z"/>
	</g>
	<g>
		<ellipse style="fill:#E67E22;" cx="148.022" cy="22.105" rx="36" ry="22.105"/>
	</g>
	<g>
		<path style="fill:#F9B65F;" d="M69.824,92.91c0.483,10.324,4.594,27.642,15.452,39.263c0,0,5.322-34.39,20.232-48.258
			c16.028-14.907,33.856-14.162,42.779-14.162h-0.073c8.923,0,26.751-0.745,42.779,14.162c14.91,13.868,20.232,48.258,20.232,48.258
			c10.858-11.62,14.968-28.939,15.452-39.263c1.948-41.607-35.129-75.412-78.463-75.412S69.751,51.261,69.751,92.91H69.824z"/>
	</g>
	<g>
		<path style="fill:#E09B48;" d="M70.592,99.903c5.545-36.43,38.18-64.404,77.622-64.404c38.974,0,72.881,27.347,77.893,63.118
			c0.297-2.053,0.49-3.984,0.57-5.707c1.948-41.606-35.129-75.411-78.463-75.411S69.751,51.261,69.751,92.91h0.073
			C69.922,94.989,70.175,97.36,70.592,99.903z"/>
	</g>
</g>
<g>
</g>
<g>
</g>
<g>
</g>
<g>
</g>
<g>
</g>
<g>
</g>
<g>
</g>
<g>
</g>
<g>
</g>
<g>
</g>
<g>
</g>
<g>
</g>
<g>
</g>
<g>
</g>
<g>
</g>
</svg>
