<?xml version="1.0" encoding="iso-8859-1"?>
<!-- Generator: Adobe Illustrator 19.0.0, SVG Export Plug-In . SVG Version: 6.00 Build 0)  -->
<svg version="1.1" id="Layer_1" xmlns="http://www.w3.org/2000/svg" xmlns:xlink="http://www.w3.org/1999/xlink" x="0px" y="0px"
	 viewBox="0 0 300.552 300.552" style="enable-background:new 0 0 300.552 300.552;" xml:space="preserve">
<g>
	<path style="fill:#E5624C;" d="M229.226,94.804v70.922c0,7.845-6.36,14.205-14.205,14.205H90.263
		c-7.845,0-14.205-6.36-14.205-14.205V94.804c0-7.845,6.36-14.205,14.205-14.205h124.758
		C222.866,80.599,229.226,86.959,229.226,94.804z"/>
</g>
<g>
	<path style="fill:#34631C;" d="M130.992,187.198h38.529c0,0,0.876,20.772-18.375,20.772S130.963,191.406,130.992,187.198z"/>
</g>
<g>
	<rect x="133.445" y="164.552" style="fill:#DDC29B;" width="34" height="51"/>
</g>
<g>
	<path style="fill:#E8D8BF;" d="M235.607,109.272c0-7.098-4.379-13.164-10.578-15.671c0.222-2.471,0.341-4.918,0.341-7.327
		c0-41.38-33.545-56.194-74.925-56.194S75.519,44.894,75.519,86.274c0,2.409,0.118,4.856,0.341,7.327
		c-6.199,2.507-10.578,8.573-10.578,15.671c0,9.179,12.356,21.685,21.646,22.107c13.249,26.661,36.74,48.551,63.516,48.551
		s50.267-21.89,63.516-48.551C223.251,130.957,235.607,118.452,235.607,109.272z"/>
</g>
<g>
	<path style="fill:#BBBBBB;" d="M150.433,217.922c15.135,0,27.523-12.558,28.599-28.475l-9.511-2.249
		c0,11.481-8.402,20.788-19.121,20.788s-19.408-9.307-19.408-20.788l-9.164,2.166C122.867,205.321,135.272,217.922,150.433,217.922z
		"/>
</g>
<g>
	<path style="fill:#262628;" d="M75.439,200.332c-12.58,2.974-22.392,13.522-25.123,27.008l-8.52,42.076
		c12.268,8.612,26.803,15.763,42.961,21.034c19.685,6.421,42.311,10.044,65.666,10.098l-41.365-108.164L75.439,200.332z"/>
	<path style="fill:#262628;" d="M191.456,192.384l-41.033,108.164c23.355-0.053,45.659-3.626,65.343-10.047
		c16.161-5.241,30.703-12.314,42.99-20.895l-8.559-42.266c-2.731-13.486-12.543-24.034-25.123-27.008L191.456,192.384z"/>
</g>
<g>
	<path style="fill:#4A4A4C;" d="M250.198,227.34c-2.731-13.486-12.543-24.034-25.123-27.008l-0.618-0.146
		c-13.203,28.148-11.489,59.461-8.69,90.366c16.161-5.241,30.703-12.364,42.99-20.945L250.198,227.34z"/>
</g>
<g>
	<path style="fill:#4A4A4C;" d="M75.439,200.332c-12.58,2.974-22.392,13.522-25.123,27.008l-8.52,42.076
		c12.268,8.612,26.803,15.764,42.961,21.034c2.793-30.872,4.489-62.148-8.699-90.265L75.439,200.332z"/>
</g>
<g>
	<path style="fill:#4A4A4C;" d="M109.002,192.397l41.421,108.155l-47.68-52.145c-1.838-2.01-2.018-5.033-0.433-7.247l10.28-14.357
		l-8.225-3.638c-2.71-1.199-4.071-4.257-3.146-7.073L109.002,192.397z"/>
</g>
<g>
	<g>
		<path style="fill:#DBDDDD;" d="M179.033,189.447c-1.076,15.917-13.464,28.475-28.599,28.475
			c-15.161,0-27.566-12.601-28.605-28.557l-12.77,3.019l41.365,108.164l0,0l41.033-108.164L179.033,189.447z"/>
	</g>
</g>
<g>
	<path style="fill:#4A4A4C;" d="M191.512,192.397l-41.089,108.155l47.349-52.145c1.838-2.01,2.018-5.033,0.433-7.247l-10.28-14.357
		l8.225-3.638c2.71-1.199,4.071-4.257,3.146-7.073L191.512,192.397z"/>
</g>
<g>
	<path style="fill:#FFFFFF;" d="M150.409,218.719c0,0-11.07-5.167-20.57,8.083l-14.72-31.542c-1.529-3.277-0.082-7.171,3.216-8.654
		l15.129-6.803v10.5L150.409,218.719z"/>
</g>
<g>
	<path style="fill:#FFFFFF;" d="M150.473,218.719c0,0,11.07-5.167,20.57,8.083l14.72-31.542c1.529-3.277,0.082-7.171-3.216-8.654
		l-15.129-6.803v10.5L150.473,218.719z"/>
</g>
<g>
	<path style="fill:#DDCDB6;" d="M225.007,93.601c0.222-2.471,0.341-4.918,0.341-7.327c0-41.38-33.545-56.194-74.925-56.194
		S75.497,44.894,75.497,86.274c0,2.409,0.118,4.856,0.341,7.327c-6.199,2.507-10.578,8.573-10.578,15.671
		c0,9.179,12.356,21.685,21.646,22.107c13.249,26.661,36.74,48.551,63.516,48.551s50.267-21.89,63.516-48.551
		c9.29-0.422,21.646-12.928,21.646-22.107C235.585,102.174,231.206,96.108,225.007,93.601z M150.422,177.46
		c-31.403,0-56.86-51.012-56.86-83.904s25.457-45.281,56.86-45.281s56.86,12.389,56.86,45.281S181.825,177.46,150.422,177.46z"/>
</g>
<g>
	<path style="fill:#E67E22;" d="M86.71,101.159c-5.62,16.319,5.88,57.5,5.88,57.5c-7.947-16.177-16.63-43.781-19.151-59.109
		C60.018,17.969,139.24,8.543,169.527,15.159c98.562,21.528,48.562,131,48.562,131c-11.648-9.279-31.577-53.5-31.577-53.5
		c0.577,12.5-0.401,16.06-0.401,16.06c-27-6-41.521-24.06-41.521-24.06c8,16.5,19.5,24,19.5,24c-44-12.5-58.5-36.5-58.5-36.5
		S90.985,88.745,86.71,101.159z"/>
</g>
<g>
	<path style="fill:#474747;" d="M232.965,88.318l0.458,0.559c0,0-19.206,26.009-82.077,26.009S67.423,88.877,67.423,88.877
		l0.165-0.346L232.965,88.318z"/>
</g>
<g>
	<path style="fill:#2B2B2B;" d="M67.423,88.877c0-45.84,37.16-83,83-83s83,37.16,83,83H67.423z"/>
</g>
<g>
	<path style="fill:#333333;" d="M107.467,88.877c0-45.84,19.232-83,42.956-83s42.956,37.16,42.956,83H107.467z"/>
</g>
<g>
	<ellipse style="fill:#333333;" cx="150.423" cy="3.521" rx="6.777" ry="3.521"/>
</g>
<g>
</g>
<g>
</g>
<g>
</g>
<g>
</g>
<g>
</g>
<g>
</g>
<g>
</g>
<g>
</g>
<g>
</g>
<g>
</g>
<g>
</g>
<g>
</g>
<g>
</g>
<g>
</g>
<g>
</g>
</svg>
