<?xml version="1.0" encoding="iso-8859-1"?>
<!-- Generator: Adobe Illustrator 19.0.0, SVG Export Plug-In . SVG Version: 6.00 Build 0)  -->
<svg version="1.1" id="Layer_1" xmlns="http://www.w3.org/2000/svg" xmlns:xlink="http://www.w3.org/1999/xlink" x="0px" y="0px"
	 viewBox="0 0 298.25 298.25" style="enable-background:new 0 0 298.25 298.25;" xml:space="preserve">
<g>
	<g>
		<path style="fill:#5065A1;" d="M128.47,184.896h41.269c0,0,0.938,20.772-19.681,20.772S128.439,189.104,128.47,184.896z"/>
	</g>
	<g>
		<rect x="132.293" y="162.25" style="fill:#DDC29B;" width="34" height="51"/>
	</g>
	<g>
		<path style="fill:#E8D8BF;" d="M234.456,106.97c0-7.098-4.379-13.164-10.578-15.671c0.222-2.471,0.341-4.918,0.341-7.327
			c0-41.38-33.545-56.194-74.925-56.194S74.368,42.592,74.368,83.972c0,2.409,0.118,4.856,0.341,7.327
			c-6.199,2.507-10.578,8.573-10.578,15.671c0,9.179,12.356,21.685,21.646,22.107c13.249,26.661,36.74,48.551,63.516,48.551
			s50.267-21.89,63.516-48.551C222.099,128.655,234.456,116.149,234.456,106.97z"/>
	</g>
	<g>
		<path style="fill:#5065A1;" d="M256.152,225.037c-2.925-13.486-13.435-24.034-26.91-27.008l-0.662-0.146l-48.653-10.739
			c-1.153,15.917-14.422,28.475-30.633,28.475c-16.239,0-29.527-12.601-30.639-28.557L69.63,197.883l-0.663,0.146
			c-13.475,2.974-23.985,13.522-26.91,27.008l-9.126,42.076c13.14,8.612,28.709,15.764,46.016,21.034
			c21.242,6.469,45.104,10.103,70.326,10.103c25.092,0,48.839-3.594,69.999-10.001c17.31-5.241,32.886-12.365,46.047-20.946
			L256.152,225.037z"/>
	</g>
	<g>
		<path style="fill:#768DB7;" d="M84.326,289.7c19.862,5.49,41.83,8.55,64.948,8.55c6.714,0,13.328-0.265,19.826-0.765
			c44.588-38,50.137-106.256,50.137-106.256l-21.49-7.5C197.747,183.729,159.237,259.493,84.326,289.7z"/>
	</g>
	<g>
		<path style="fill:#394C81;" d="M164.804,297.778c2.838-0.17,5.654-0.383,8.447-0.645c20.03-18.226,31.661-42.209,38.156-60.701
			c8.571-24.398,10.254-44.171,10.321-45.001c0.092-1.134-0.594-2.188-1.668-2.563l-21.489-7.5c-1.179-0.412-2.486,0.11-3.053,1.228
			c-0.412,0.811-40.002,77.236-115.166,105.965c2.601,0.773,5.24,1.503,7.915,2.19c35.098-14.959,61.697-39.561,78.71-59
			c18.15-20.739,28.764-39.076,31.971-44.954l2.407,0.84c-2.068,6.62-9.629,28.357-25.931,51.029
			c-14.034,19.517-37.017,42.892-71.782,55.475c3.172,0.586,6.387,1.11,9.638,1.575c31.582-13.514,52.908-35.602,66.309-54.28
			c16.686-23.254,24.289-45.016,26.499-52.148l2.182,0.761c-0.896,6.048-4.432,25.546-15.166,46.914
			c-10.188,20.281-28.889,45.881-61.822,60.659c3.403,0.237,6.841,0.403,10.305,0.505c29.223-15.716,46.37-39.727,56.066-59.081
			c10.594-21.146,14.313-40.082,15.431-47.318l3.457,1.207C215.186,204.422,206.219,264.743,164.804,297.778z"/>
	</g>
	<g>
		<path style="fill:#DDCDB6;" d="M223.856,91.299c0.222-2.471,0.341-4.918,0.341-7.327c0-41.38-33.545-56.194-74.925-56.194
			S74.346,42.592,74.346,83.972c0,2.409,0.118,4.856,0.341,7.327c-6.199,2.507-10.578,8.573-10.578,15.671
			c0,9.179,12.356,21.685,21.646,22.107c13.249,26.661,36.74,48.551,63.516,48.551s50.267-21.89,63.516-48.551
			c9.29-0.422,21.646-12.928,21.646-22.107C234.434,99.872,230.055,93.805,223.856,91.299z M149.271,175.158
			c-31.403,0-56.86-51.012-56.86-83.904s25.457-45.281,56.86-45.281s56.86,12.389,56.86,45.281S180.674,175.158,149.271,175.158z"/>
	</g>
	<path style="fill:#3C5768;" d="M227.714,83.356c-0.037,0.231-3.841,23.447-15.536,46.3c-0.832,1.626-1.685,3.201-2.551,4.741
		c6.516-24.367,4.908-55.431,4.803-57.181l-4.99,0.301c0.032,0.542,3.879,54.591-12.074,74.552
		c-12.659,15.838-29.394,23.051-48.094,23.058c-18.7-0.007-35.435-7.22-48.094-23.058c-15.954-19.961-12.106-74.01-12.074-74.552
		l-4.99-0.301c-0.107,1.776-1.515,33.8,5.461,58.343c-1.095-1.902-2.166-3.866-3.209-5.904
		c-11.695-22.853-15.499-46.068-15.536-46.3l-4.938,0.787c0.155,0.974,3.939,24.131,15.968,47.683
		c16.129,31.582,39.432,48.283,67.39,48.302c0.014,0,0.031,0,0.045,0c27.958-0.019,51.261-16.72,67.39-48.302
		c12.028-23.552,15.813-46.709,15.968-47.683L227.714,83.356z"/>
	<g>
		<path style="fill:#5065A1;" d="M64.298,97.25c0-52.93,38.044-95.839,84.973-95.839s84.973,42.909,84.973,95.839
			C234.245,97.25,155.658,77.381,64.298,97.25z"/>
	</g>
	<g>
		<path style="fill:#3A5184;" d="M149.271,24.532c39.666,0,72.98,30.656,82.343,72.106c1.722,0.382,2.63,0.612,2.63,0.612
			c0-52.931-38.044-95.839-84.973-95.839S64.298,44.319,64.298,97.25c0.875-0.191,1.746-0.37,2.618-0.553
			C76.261,55.217,109.587,24.532,149.271,24.532z"/>
	</g>
	<g>
		<rect x="136.271" style="fill:#B8C9F1;" width="26" height="63.75"/>
	</g>
	<g>
		<circle style="fill:#394C81;" cx="149.271" cy="54.25" r="19.5"/>
	</g>
	<g>
		<circle style="fill:#B8C9F1;" cx="149.271" cy="54.25" r="12.834"/>
	</g>
	<g>
		<path style="fill:#394C81;" d="M149.107,217.25c16.211,0,31.998-13.833,30.819-30.106l-10.188-2.249
			c0,11.481-9,20.788-20.481,20.788s-20.788-9.307-20.789-20.788l-9.816,2.166C117.438,203.417,132.868,217.25,149.107,217.25z"/>
	</g>
</g>
<g>
</g>
<g>
</g>
<g>
</g>
<g>
</g>
<g>
</g>
<g>
</g>
<g>
</g>
<g>
</g>
<g>
</g>
<g>
</g>
<g>
</g>
<g>
</g>
<g>
</g>
<g>
</g>
<g>
</g>
</svg>
