<?xml version="1.0" encoding="iso-8859-1"?>
<!-- Generator: Adobe Illustrator 19.0.0, SVG Export Plug-In . SVG Version: 6.00 Build 0)  -->
<svg version="1.1" id="Layer_1" xmlns="http://www.w3.org/2000/svg" xmlns:xlink="http://www.w3.org/1999/xlink" x="0px" y="0px"
	 viewBox="0 0 297.443 297.443" style="enable-background:new 0 0 297.443 297.443;" xml:space="preserve">
<g>
	<path style="fill:#BDC3C7;" d="M253.536,225.278c-2.925-13.486-11.221-25.08-24.696-28.054l-59.503-13.134h-41.269l-59.503,13.133
		c-13.475,2.974-22.103,14.902-25.028,28.387l-7.5,38.667c13.14,8.612,25.202,17.794,42.509,23.064
		c21.242,6.469,45.104,10.102,70.326,10.102c25.092,0,48.839-3.595,69.999-10.001c17.31-5.241,28.838-13.085,42-21.666
		L253.536,225.278z"/>
	<g>
		<path style="fill:#2B2B2B;" d="M128.067,184.091h41.269c0,0,0.938,20.772-19.681,20.772S128.036,188.299,128.067,184.091z"/>
	</g>
	<g>
		<rect x="131.891" y="161.445" style="fill:#DDC29B;" width="34" height="51"/>
	</g>
	<g>
		<path style="fill:#E8D8BF;" d="M234.053,106.165c0-7.098-4.379-13.164-10.578-15.671c0.222-2.471,0.341-4.918,0.341-7.327
			c0-41.38-33.545-56.194-74.925-56.194S73.966,41.787,73.966,83.167c0,2.409,0.118,4.856,0.341,7.327
			c-6.2,2.506-10.579,8.573-10.579,15.671c0,9.179,12.356,21.685,21.646,22.107c13.249,26.661,36.74,48.551,63.516,48.551
			s50.267-21.89,63.516-48.551C221.697,127.85,234.053,115.344,234.053,106.165z"/>
	</g>
	<g>
		<path style="fill:#2B2B2B;" d="M255.749,224.232c-2.925-13.486-13.435-24.034-26.91-27.008l-0.662-0.146
			c-14.141,28.148-12.306,59.461-9.308,90.366c17.31-5.241,32.886-12.364,46.047-20.945L255.749,224.232z"/>
	</g>
	<g>
		<path style="fill:#2B2B2B;" d="M101.231,190.014l-17.733,3.914c12.162,30.907,13.262,64.734,13.361,98.128
			c5.602,1.197,11.352,2.192,17.212,3.003C114.131,259.829,108.781,224.221,101.231,190.014z"/>
	</g>
	<g>
		<path style="fill:#2B2B2B;" d="M196.173,190.014l17.733,3.914c-12.162,30.907-13.262,64.734-13.361,98.128
			c-5.602,1.197-11.352,2.192-17.212,3.003C183.272,259.829,188.623,224.221,196.173,190.014z"/>
	</g>
	<g>
		<path style="fill:#2B2B2B;" d="M180.457,186.545l-1.305-0.288l0,0l-9.816-2.167c0,11.481-20.468,28.354-20.468,28.354
			s-20.801-16.873-20.802-28.354l-9.816,2.166l-1.305,0.288c6.933,36.475,11.771,72.975,10.535,109.999
			c4.081,0.343,8.215,0.58,12.387,0.728V227.11c2.853,1.789,5.881,2.835,9.022,2.835c3.002,0,5.902-0.954,8.644-2.602v69.93
			c4.172-0.148,8.306-0.385,12.387-0.728C168.686,259.521,173.524,223.02,180.457,186.545z"/>
	</g>
	<g>
		<path style="fill:#2B2B2B;" d="M68.564,197.224c-13.475,2.974-23.985,13.522-26.91,27.008l-9.126,42.076
			c13.14,8.612,28.709,15.764,46.016,21.034c2.992-30.872,4.808-62.148-9.318-90.265L68.564,197.224z"/>
	</g>
	<g>
		<path style="fill:#5E5E5E;" d="M148.869,212.445c0,0-11.248-2-20.748,11.25l-14.72-31.542c-1.529-3.277-0.082-7.171,3.216-8.654
			l15.274-6.803v10.5L148.869,212.445z"/>
	</g>
	<g>
		<path style="fill:#5E5E5E;" d="M148.869,212.445c0,0,11.19-2,20.69,11.25l14.72-31.542c1.529-3.277,0.082-7.171-3.216-8.654
			l-15.171-6.77v10.5L148.869,212.445z"/>
	</g>
	<g>
		<path style="fill:#DDCDB6;" d="M223.453,90.494c0.222-2.471,0.341-4.918,0.341-7.327c0-41.38-33.545-56.194-74.925-56.194
			S73.944,41.787,73.944,83.167c0,2.409,0.118,4.856,0.341,7.327c-6.2,2.506-10.579,8.573-10.579,15.671
			c0,9.179,12.356,21.685,21.646,22.107c13.249,26.661,36.74,48.551,63.516,48.551s50.267-21.89,63.516-48.551
			c9.29-0.422,21.646-12.928,21.646-22.107C234.031,99.067,229.653,93,223.453,90.494z M148.869,174.353
			c-31.403,0-56.86-51.012-56.86-83.904s25.457-45.281,56.86-45.281s56.86,12.389,56.86,45.281S180.272,174.353,148.869,174.353z"/>
	</g>
	<g>
		<path style="fill:#2B2B2B;" d="M216.767,27.093C198.536,4.445,181.536,6.945,181.536,6.945c-34.5-21-97.48,9.655-107.5,38.327
			C67.38,64.32,69.23,79.834,71.984,89.803c2.86,10.352,7.551,28.142,16.551,39.642c0,0-4.608-14.967-5.606-28.235
			c72.847-9.274,96.594-44.71,96.594-44.71c9.593,23.011,25.059,34.296,34.421,39.299c0.275,13.212-5.111,30.145-5.111,30.145
			c9.08-8.352,12.517-23.038,14.905-30.693C228.769,79.123,235.966,50.941,216.767,27.093z"/>
	</g>
	<g>
		<g>
			<path d="M74.036,61.981c10.019-28.672,73-59.327,107.5-38.327c0,0,17-2.5,35.232,20.148c7.692,9.555,10.707,19.851,11.951,29.812
				c1.693-14.431,0.198-31.43-11.951-46.521C198.536,4.445,181.536,6.945,181.536,6.945c-34.5-21-97.48,9.655-107.5,38.327
				C69.344,58.7,68.85,70.371,69.953,79.58C70.579,74.141,71.843,68.256,74.036,61.981z"/>
		</g>
	</g>
</g>
<g>
</g>
<g>
</g>
<g>
</g>
<g>
</g>
<g>
</g>
<g>
</g>
<g>
</g>
<g>
</g>
<g>
</g>
<g>
</g>
<g>
</g>
<g>
</g>
<g>
</g>
<g>
</g>
<g>
</g>
</svg>
