<?xml version="1.0" encoding="iso-8859-1"?>
<!-- Generator: Adobe Illustrator 19.0.0, SVG Export Plug-In . SVG Version: 6.00 Build 0)  -->
<svg version="1.1" id="Layer_1" xmlns="http://www.w3.org/2000/svg" xmlns:xlink="http://www.w3.org/1999/xlink" x="0px" y="0px"
	 viewBox="0 0 298.163 298.163" style="enable-background:new 0 0 298.163 298.163;" xml:space="preserve">
<g>
	<g>
		<path style="fill:#DDC29B;" d="M166.25,183.126v-21.292h-34v21.287c0,4.017-3.03,7.383-7.025,7.796
			c-13.84,1.432-44.326,4.679-56.302,6.696c-13.608,2.292-23.985,13.522-26.91,27.008l-9.126,42.076
			c13.14,8.612,28.709,15.764,46.016,21.034c21.242,6.469,45.104,10.102,70.326,10.102c25.092,0,48.839-3.595,69.999-10.001
			c17.31-5.241,32.886-12.364,46.048-20.945l-9.167-42.266c-2.925-13.486-13.303-24.711-26.91-27.008
			c-11.894-2.008-42.156-5.255-55.93-6.691C169.277,190.505,166.25,187.14,166.25,183.126z"/>
	</g>
	<g>
		<path style="fill:#E8D8BF;" d="M234.413,106.553c0-7.098-4.379-13.164-10.578-15.671c0.222-2.471,0.341-4.918,0.341-7.327
			c0-41.38-33.545-56.194-74.925-56.194S74.325,42.175,74.325,83.555c0,2.409,0.118,4.856,0.341,7.327
			c-6.199,2.507-10.578,8.573-10.578,15.671c0,9.179,12.356,21.685,21.646,22.107c13.249,26.661,36.74,48.551,63.516,48.551
			s50.267-21.89,63.516-48.551C222.056,128.238,234.413,115.733,234.413,106.553z"/>
	</g>
	<g>
		<path style="fill:#79302A;" d="M215.268,254.833v-59.18c-6.362-0.803-13.604-1.643-20.54-2.418v20.599
			c0,25.129-20.371,45.5-45.5,45.5s-45.5-20.371-45.5-45.5v-20.617c-7.031,0.78-14.384,1.628-20.833,2.438v59.179
			c0,0,0.866,17.403-8.353,31.511c1.443,0.474,2.893,0.939,4.361,1.386c21.242,6.469,45.104,10.102,70.326,10.102
			c25.092,0,48.839-3.595,69.999-10.001c1.497-0.453,2.964-0.939,4.435-1.421C214.398,272.292,215.268,254.833,215.268,254.833z"/>
	</g>
	<g>
		<path style="fill:#DBB2A7;" d="M196.395,293.428v-27.762h-94.333v27.76c14.959,3.782,30.751,4.737,47.168,4.737
			C165.646,298.164,182.229,297.208,196.395,293.428z"/>
	</g>
	<g>
		<path style="fill:#662621;" d="M135.696,291.033v-2.27h-6.127c-0.773,0-1.354-0.176-1.74-0.525c-0.387-0.35-0.58-0.826-0.58-1.428
			c0-0.155,0.029-0.312,0.086-0.471c0.057-0.158,0.143-0.325,0.256-0.5c0.114-0.175,0.232-0.344,0.354-0.507
			c0.122-0.163,0.272-0.362,0.452-0.599l6.469-8.654c0.424-0.569,0.771-0.982,1.044-1.239c0.272-0.256,0.601-0.384,0.983-0.384
			c1.236,0,1.855,0.707,1.855,2.123v9.449h0.524c0.627,0,1.129,0.085,1.508,0.256c0.378,0.171,0.567,0.545,0.567,1.123
			c0,0.472-0.154,0.816-0.464,1.031c-0.31,0.216-0.773,0.324-1.392,0.324h-0.744v2.27c0,0.627-0.139,1.093-0.416,1.398
			c-0.276,0.305-0.646,0.457-1.11,0.457c-0.456,0-0.824-0.156-1.104-0.47C135.837,292.106,135.696,291.644,135.696,291.033z
			 M130.448,286.029h5.248v-7.093L130.448,286.029z"/>
		<path style="fill:#662621;" d="M143.473,279.229c0-0.813,0.222-1.581,0.666-2.301c0.443-0.721,1.094-1.296,1.953-1.728
			c0.858-0.432,1.861-0.646,3.009-0.646c0.969,0,1.819,0.126,2.552,0.378s1.342,0.601,1.83,1.044s0.851,0.944,1.087,1.501
			c0.236,0.558,0.354,1.149,0.354,1.776c0,0.798-0.206,1.51-0.617,2.137c-0.411,0.626-1.023,1.139-1.837,1.537
			c0.691,0.27,1.266,0.621,1.722,1.057c0.455,0.436,0.799,0.939,1.031,1.514c0.231,0.573,0.348,1.21,0.348,1.91
			c0,1.025-0.248,1.955-0.744,2.789c-0.497,0.835-1.226,1.487-2.186,1.959c-0.96,0.473-2.092,0.709-3.394,0.709
			c-1.351,0-2.507-0.236-3.467-0.709c-0.96-0.472-1.685-1.12-2.173-1.946s-0.732-1.752-0.732-2.777c0-2.189,1.033-3.69,3.101-4.505
			C144.308,282.146,143.473,280.913,143.473,279.229z M152.226,287.31c0-0.635-0.13-1.188-0.391-1.66s-0.627-0.834-1.099-1.086
			c-0.472-0.253-1.001-0.379-1.587-0.379c-0.83,0-1.526,0.276-2.087,0.83c-0.563,0.554-0.843,1.326-0.843,2.319
			c0,0.635,0.132,1.194,0.396,1.679s0.625,0.858,1.081,1.123c0.455,0.265,0.964,0.396,1.525,0.396c0.569,0,1.082-0.135,1.538-0.402
			c0.456-0.27,0.813-0.647,1.074-1.136S152.226,287.945,152.226,287.31z M149.174,276.885c-0.765,0-1.382,0.238-1.85,0.714
			c-0.468,0.477-0.701,1.089-0.701,1.838c0,0.691,0.239,1.268,0.72,1.727c0.48,0.46,1.099,0.689,1.855,0.689
			c0.383,0,0.73-0.061,1.044-0.183c0.313-0.122,0.581-0.291,0.806-0.507c0.224-0.215,0.396-0.472,0.519-0.769
			s0.184-0.625,0.184-0.983c0-0.479-0.108-0.911-0.324-1.293c-0.216-0.383-0.519-0.684-0.909-0.904
			C150.126,276.995,149.679,276.885,149.174,276.885z"/>
		<path style="fill:#662621;" d="M160.551,274.859h8.129c0.781,0,1.348,0.122,1.697,0.366s0.525,0.647,0.525,1.208
			c0,0.342-0.206,0.794-0.617,1.355s-0.879,1.183-1.403,1.861c-0.525,0.68-1.066,1.524-1.624,2.533s-1.068,2.242-1.531,3.699
			c-0.195,0.643-0.334,1.176-0.416,1.599c-0.081,0.423-0.17,0.973-0.268,1.647c-0.098,0.676-0.184,1.192-0.257,1.551
			c-0.171,0.83-0.413,1.406-0.727,1.728s-0.73,0.481-1.251,0.481c-0.496,0-0.896-0.173-1.196-0.519s-0.452-0.856-0.452-1.532
			c0-0.521,0.11-1.229,0.33-2.123c0.22-0.896,0.578-1.968,1.074-3.217s1.117-2.531,1.861-3.846c0.745-1.313,1.63-2.622,2.655-3.924
			h-6.53c-0.684,0-1.195-0.124-1.532-0.373c-0.338-0.248-0.507-0.637-0.507-1.166c0-0.561,0.179-0.923,0.537-1.086
			S159.907,274.859,160.551,274.859z"/>
	</g>
	<g>
		<path style="fill:#DDCDB6;" d="M223.812,90.882c0.222-2.471,0.341-4.918,0.341-7.327c0-41.38-33.545-56.194-74.925-56.194
			S74.303,42.175,74.303,83.555c0,2.409,0.118,4.856,0.341,7.327c-6.199,2.507-10.578,8.573-10.578,15.671
			c0,9.179,12.356,21.685,21.646,22.107c13.249,26.661,36.74,48.551,63.516,48.551s50.267-21.89,63.516-48.551
			c9.29-0.422,21.646-12.928,21.646-22.107C234.39,99.455,230.012,93.389,223.812,90.882z M149.228,174.741
			c-31.403,0-56.86-51.012-56.86-83.904s25.457-45.281,56.86-45.281s56.86,12.389,56.86,45.281S180.631,174.741,149.228,174.741z"/>
	</g>
	<g>
		<path style="fill:#F86E51;" d="M217.127,27.481C192.896-4.065,153.562,3.27,153.562,3.27
			c-23.5-12.695-69.148,13.719-79.167,42.391c-6.656,19.048-5.459,34.767-2.052,44.531c1.079,3.092,5.036,12.095,5.036,12.095l0,0
			c2.028,4.558,4.604,10.148,7.635,16.319c0,0-2.399-8.353-2.628-17.503c21.415-5.994,30.008-21.223,30.008-21.223v9.624
			c17.5-5.347,42.5-28.873,42.5-28.873l-2.5,9.09c18-0.535,27.488-12.832,27.488-12.832c9.598,23.023,25.075,34.307,34.435,39.307
			c0.001,11.266-5.125,23.763-5.125,23.763c7.027-6.464,10.803-14.833,13.363-20.885C228.81,84.293,237.248,53.676,217.127,27.481z"
			/>
	</g>
	<g>
		<g>
			<path style="fill:#DD5543;" d="M74.396,62.993c10.019-28.672,55.667-55.085,79.167-42.391c0,0,39.333-7.335,63.565,24.211
				c7.475,9.731,10.514,22.03,11.77,31.983c1.735-14.49,0.223-33.703-11.77-49.317C192.896-4.065,153.562,3.27,153.562,3.27
				c-23.5-12.695-69.148,13.719-79.167,42.391c-4.741,13.567-5.195,25.338-4.047,34.591C70.989,74.908,72.249,69.137,74.396,62.993z
				"/>
		</g>
	</g>
</g>
<g>
</g>
<g>
</g>
<g>
</g>
<g>
</g>
<g>
</g>
<g>
</g>
<g>
</g>
<g>
</g>
<g>
</g>
<g>
</g>
<g>
</g>
<g>
</g>
<g>
</g>
<g>
</g>
<g>
</g>
</svg>
