<?xml version="1.0" encoding="iso-8859-1"?>
<!-- Generator: Adobe Illustrator 19.0.0, SVG Export Plug-In . SVG Version: 6.00 Build 0)  -->
<svg version="1.1" id="Layer_1" xmlns="http://www.w3.org/2000/svg" xmlns:xlink="http://www.w3.org/1999/xlink" x="0px" y="0px"
	 viewBox="0 0 297.001 297.001" style="enable-background:new 0 0 297.001 297.001;" xml:space="preserve">
<g>
	<path style="fill:#4A697C;" d="M264.694,265.864l-9.126-42.076c-2.925-13.486-13.302-24.716-26.91-27.008
		c-9.688-1.632-31.485-4.068-46.788-5.698c0.01-0.007,0.02-0.013,0.03-0.02c-3.494-0.375-6.641-0.706-9.213-0.974
		c-3.993-0.416-7.019-3.781-7.019-7.796v-21.291h-34v21.287c0,4.017-3.03,7.383-7.025,7.796c-2.644,0.273-5.899,0.614-9.513,0.999
		c-15.303,1.629-37.101,4.066-46.788,5.698c-13.608,2.292-23.985,13.522-26.91,27.008l-9.126,42.076
		c10.271,6.732,22.033,12.567,34.943,17.313c3.605,1.325,7.295-2.429,11.073-1.279c21.242,6.468,45.104,10.102,70.326,10.102
		c25.092,0,48.839-3.594,69.999-10.001c3.805-1.152,7.511,2.589,11.141,1.26c-0.012-0.028-0.024-0.054-0.036-0.083
		C242.663,278.431,254.424,272.597,264.694,265.864z"/>
	<g>
		<path style="fill:#345065;" d="M229.752,283.177c-4.999-28.957-18.463-54.741-40.398-76.676
			c-4.384-3.654-6.097-9.444-7.483-15.418c0.01-0.007,0.02-0.013,0.03-0.02c-3.494-0.375-6.641-0.706-9.213-0.974
			c-3.993-0.416-7.019-3.781-7.019-7.796v-21.292h-34v21.287c0,4.017-3.03,7.383-7.025,7.796c-2.644,0.273-5.899,0.614-9.513,0.999
			c-1.386,5.974-3.099,11.765-7.483,15.418c-21.935,21.935-35.399,47.719-40.398,76.676c3.605,1.325,7.295,2.571,11.073,3.721
			c21.242,6.469,45.104,10.103,70.326,10.103c25.092,0,48.839-3.594,69.999-10.001c3.805-1.152,7.511-2.411,11.141-3.74
			C229.777,283.232,229.764,283.206,229.752,283.177z"/>
	</g>
	<g>
		<path style="fill:#E8D8BF;" d="M233.831,105.721c0-7.098-4.379-13.164-10.578-15.671c0.222-2.471,0.341-4.918,0.341-7.327
			c0-41.38-33.545-56.194-74.925-56.194S73.743,41.343,73.743,82.723c0,2.409,0.118,4.856,0.341,7.327
			c-6.199,2.507-10.578,8.573-10.578,15.671c0,9.179,12.356,21.685,21.646,22.107c13.249,26.661,36.74,48.551,63.516,48.551
			s50.267-21.89,63.516-48.551C221.475,127.406,233.831,114.9,233.831,105.721z"/>
	</g>
	<g>
		<path style="fill:#DDCDB6;" d="M223.232,90.05c0.222-2.471,0.341-4.918,0.341-7.327c0-41.38-33.545-56.194-74.925-56.194
			S73.722,41.343,73.722,82.723c0,2.409,0.118,4.856,0.341,7.327c-6.199,2.507-10.578,8.573-10.578,15.671
			c0,9.179,12.356,21.685,21.646,22.107c13.249,26.661,36.74,48.551,63.516,48.551s50.267-21.89,63.516-48.551
			c9.29-0.422,21.646-12.928,21.646-22.107C233.81,98.623,229.43,92.556,223.232,90.05z M148.646,173.909
			c-31.403,0-56.86-51.012-56.86-83.904s25.457-45.281,56.86-45.281s56.86,12.389,56.86,45.281S180.049,173.909,148.646,173.909z"/>
	</g>
	<g>
		<path style="fill:#AEC1CF;" d="M148.648,62.937c33.507,0,61.471,22.336,68.046,52.064c5.708-10.941,8.954-23.415,8.954-36.665
			c0-43.263-34.474-78.335-77-78.335s-77,35.072-77,78.335c0,13.25,3.246,25.724,8.954,36.665
			C87.176,85.273,115.141,62.937,148.648,62.937z"/>
	</g>
	<g>
		<path style="fill:#9FB1BC;" d="M148.648,17.334c39.649,0,72.286,30.492,76.522,69.68c0.31-2.85,0.478-5.744,0.478-8.679
			c0-43.263-34.474-78.335-77-78.335s-77,35.072-77,78.335c0,2.935,0.168,5.828,0.478,8.679
			C76.362,47.826,108.998,17.334,148.648,17.334z"/>
	</g>
	<g>
		<path style="fill:#5D7486;" d="M126.778,3.226c-7.044,16.463-11.571,40.729-11.788,67.902c9.973-5.212,21.443-8.191,33.657-8.191
			s23.684,2.979,33.657,8.191c-0.216-27.172-4.744-51.439-11.788-67.902c-6.933-2.087-14.269-3.225-21.868-3.225
			S133.713,1.139,126.778,3.226z"/>
	</g>
	<g>
		<path style="fill:#9ADAD9;" d="M113.443,75.8c-27.118,0-35.443,28.545-11.894,48.849s34.373,0.747,37.227-5.827
			s6.742-7.699,9.872-7.699s7.017,1.125,9.872,7.699s13.678,26.131,37.227,5.827S210.971,75.8,183.853,75.8H113.443z"/>
		<path style="fill:#5B5869;" d="M220.247,37.834v49.664c-2.513,3.253-5.263,5.627-7.956,7.358
			c-0.258-1.825-0.687-3.625-1.337-5.376c-3.881-10.445-14.013-16.681-27.102-16.681h-70.41c-13.089,0-23.221,6.235-27.102,16.681
			c-0.65,1.75-1.078,3.548-1.337,5.371c-3.041-1.954-6.154-4.716-8.916-8.649l-4.429-7.129c0.052,5.711,0.705,11.274,1.9,16.629
			c3.822,4.011,7.914,6.652,11.717,8.403c1.57,8.026,6.489,16.069,14.315,22.817c9.124,7.866,17.593,10.978,25.185,9.243
			c9.411-2.152,14.536-11.041,16.754-16.147c2.255-5.193,4.864-5.894,7.119-5.894s4.864,0.7,7.119,5.893
			c2.218,5.107,7.343,13.996,16.754,16.148c1.36,0.311,2.749,0.466,4.165,0.466c6.48,0,13.53-3.252,21.02-9.709
			c7.825-6.747,12.743-14.789,14.314-22.814c2.665-1.227,5.472-2.907,8.229-5.175v43.986c0,16.495-14.484,29.915-32.289,29.915
			c-11.576,0-21.744-5.676-27.445-14.178c4.563-2.017,7.506-5.146,7.506-8.671c0-6.084-8.739-16.356-19.52-16.356
			c-10.78,0-19.52,10.271-19.52,16.356c0,5.552,7.286,10.133,16.752,10.893c7.251,15.283,23.444,25.956,42.226,25.956
			c25.523,0,46.289-19.7,46.289-43.915V37.834H220.247z M193.786,122.377c-7.601,6.553-14.302,9.225-19.929,7.939
			c-7.094-1.622-11.166-9.414-12.588-12.689c-2.738-6.306-6.985-9.503-12.623-9.503s-9.885,3.197-12.623,9.504
			c-1.422,3.274-5.494,11.066-12.588,12.688c-5.626,1.285-12.329-1.386-19.929-7.939c-10.74-9.26-15.163-21.064-11.543-30.807
			c2.972-7.996,11-12.771,21.478-12.771h70.41c10.478,0,18.506,4.774,21.478,12.771C208.95,101.313,204.527,113.117,193.786,122.377
			z"/>
	</g>
</g>
<g>
</g>
<g>
</g>
<g>
</g>
<g>
</g>
<g>
</g>
<g>
</g>
<g>
</g>
<g>
</g>
<g>
</g>
<g>
</g>
<g>
</g>
<g>
</g>
<g>
</g>
<g>
</g>
<g>
</g>
</svg>
