<?xml version="1.0" encoding="iso-8859-1"?>
<!-- Generator: Adobe Illustrator 19.0.0, SVG Export Plug-In . SVG Version: 6.00 Build 0)  -->
<svg version="1.1" id="Layer_1" xmlns="http://www.w3.org/2000/svg" xmlns:xlink="http://www.w3.org/1999/xlink" x="0px" y="0px"
	 viewBox="0 0 320.583 320.583" style="enable-background:new 0 0 320.583 320.583;" xml:space="preserve">
<g>
	<path style="fill:#17AB93;" d="M267.319,220.621c-2.925-13.486-13.435-24.034-26.91-27.008l-60.818-8.497h-41.269l-58.189,8.497
		c-13.475,2.974-23.985,13.522-26.91,27.008l-9.126,42.076c13.14,8.612,28.709,15.764,46.016,21.034
		c21.242,6.469,45.102,7.602,70.325,7.602c25.092,0,48.841-1.095,70-7.501c17.31-5.241,32.886-12.364,46.047-20.945L267.319,220.621
		z"/>
	<g>
		<path style="fill:#34631C;" d="M139.636,180.479h41.269c0,0,0.938,20.772-19.681,20.772S139.605,184.687,139.636,180.479z"/>
	</g>
	<g>
		<polygon style="fill:#DDC29B;" points="143.46,198.833 160.272,208.833 177.46,198.833 177.46,157.833 143.46,157.833 		"/>
	</g>
	<g>
		<path style="fill:#E8D8BF;" d="M245.601,102.553c0-7.098-4.379-13.164-10.578-15.671c0.222-2.471,0.341-4.918,0.341-7.327
			c0-41.38-33.545-56.194-74.925-56.194S85.513,38.175,85.513,79.555c0,2.409,0.118,4.856,0.341,7.327
			c-6.199,2.507-10.578,8.573-10.578,15.671c0,9.179,12.356,21.685,21.646,22.107c13.249,26.661,36.74,48.551,63.516,48.551
			s50.267-21.89,63.516-48.551C233.244,124.238,245.601,111.733,245.601,102.553z"/>
	</g>
	<g>
		<path style="fill:#82D9C8;" d="M130.775,188.391c-0.492-1.852-0.817-3.773-0.955-5.745l-49.025,10.821
			c1.253,2.494,2.375,5.014,3.387,7.555L130.775,188.391z"/>
		<path style="fill:#82D9C8;" d="M236.359,201.022c1.012-2.541,2.134-5.061,3.387-7.555l-48.653-10.739
			c-0.143,1.977-0.474,3.903-0.974,5.759L236.359,201.022z"/>
		<path style="fill:#82D9C8;" d="M233.698,208.588l-46.694-12.658c-5.323,9.131-15.211,15.273-26.544,15.273
			c-11.369,0-21.285-6.181-26.596-15.361l-47.02,12.747c7.393,23.994,5.735,49.704,3.269,75.143
			c21.242,6.469,45.104,10.103,70.326,10.103c25.092,0,48.839-3.594,69.999-10.001C227.968,258.361,226.296,232.614,233.698,208.588
			z"/>
	</g>
	<g>
		<g>
			<path style="fill:#17AB93;" d="M160.461,320.583c-0.008,0-0.015,0-0.022,0s-0.015,0-0.023,0H160.461z"/>
		</g>
		<g>
			<path style="fill:#CBEFE6;" d="M160.44,293.833c23.603,0,46.013-3.182,66.201-8.891c-8.015-35.207-3.274-75.268-0.647-94.511
				l-13.015-2.873c-2.632,23.927-12.998,75.065-52.565,75.065c-39.606,0-49.922-51.239-52.529-75.136l-13.013,2.872
				c2.625,19.216,7.388,59.331-0.636,94.581C114.425,290.65,136.836,293.833,160.44,293.833z"/>
		</g>
	</g>
	<g>
		<path style="fill:#DDCDB6;" d="M235.022,86.882c0.222-2.471,0.341-4.918,0.341-7.327c0-41.38-33.545-56.194-74.925-56.194
			S85.513,38.175,85.513,79.555c0,2.409,0.118,4.856,0.341,7.327c-6.199,2.507-10.578,8.573-10.578,15.671
			c0,9.179,12.356,21.685,21.646,22.107c13.249,26.661,36.74,48.551,63.516,48.551s50.267-21.89,63.516-48.551
			c9.29-0.422,21.646-12.928,21.646-22.107C245.6,95.455,241.222,89.389,235.022,86.882z M160.438,170.741
			c-31.403,0-56.86-51.012-56.86-83.904s25.457-45.281,56.86-45.281s56.86,12.389,56.86,45.281S191.841,170.741,160.438,170.741z"/>
	</g>
	<g>
		<path style="fill:#F9B65F;" d="M79.355,85.083c0,0-0.333,32.583,19.417,59.583c0,0-10.167-43.083,11.583-56.083L79.355,85.083z"/>
	</g>
	<g>
		<path style="fill:#F9B65F;" d="M241.565,85.083c0,0,0.333,32.583-19.417,59.583c0,0,10.167-43.083-11.583-56.083L241.565,85.083z"
			/>
	</g>
	<g>
		<path style="fill:#17AB93;" d="M82.771,82.667C82.771,37.011,129.434,0,160.438,0c30.691,0,77.667,37.011,77.667,82.667"/>
	</g>
	<g>
		<path style="fill:#048E74;" d="M160.438,8.333c23.841,0,59.551,32.591,63.861,74.333h13.806C238.105,37.011,191.13,0,160.438,0
			c-31.004,0-77.667,37.011-77.667,82.667h13.804C100.859,40.925,136.354,8.333,160.438,8.333z"/>
	</g>
	<g>
		<path style="fill:#82D9C8;" d="M235.01,49.667H85.867c-5.299,0-9.595,4.253-9.595,9.5v22c0,5.247,4.296,9.5,9.595,9.5H235.01
			c5.299,0,9.595-4.253,9.595-9.5v-22C244.605,53.92,240.309,49.667,235.01,49.667z"/>
	</g>
	<g>
		<path style="fill:#9ADAD9;" d="M160.438,111.273c7.985,0,11.006,22.875,31.076,25.896s41.65-36.471,22.659-47.261
			s-53.735-10.574-53.735-10.574s-34.744-0.216-53.735,10.574s2.59,50.282,22.659,47.261S152.453,111.273,160.438,111.273z"/>
		<path style="fill:#5B5869;" d="M193.784,140.338c-0.902,0-1.809-0.065-2.717-0.202c-13.382-2.015-19.834-11.83-24.545-18.996
			c-2.22-3.376-4.514-6.867-6.084-6.867s-3.864,3.491-6.084,6.867c-4.711,7.166-11.163,16.981-24.545,18.996
			c-0.907,0.137-1.815,0.202-2.717,0.202c-12.472,0.002-24.188-12.61-28.77-25.851c-4.213-12.177-1.634-22.341,6.897-27.188
			c19.465-11.059,53.792-10.957,55.236-10.966c1.426,0.006,35.73-0.095,55.199,10.966c8.531,4.848,11.11,15.012,6.897,27.188
			C217.973,127.727,206.255,140.338,193.784,140.338z M160.438,108.273c4.806,0,7.722,4.436,11.098,9.571
			c4.317,6.568,9.691,14.743,20.424,16.358c9.92,1.486,20.886-10.005,24.924-21.677c1.195-3.456,4.427-15.112-4.192-20.01
			c-18.09-10.277-51.887-10.199-52.234-10.183c-0.384-0.006-34.21-0.08-52.271,10.183c-8.619,4.897-5.388,16.554-4.192,20.01
			c4.039,11.674,15.019,23.188,24.924,21.677c10.732-1.615,16.106-9.79,20.424-16.358
			C152.717,112.708,155.633,108.273,160.438,108.273z"/>
	</g>
	<g>
		<path style="fill:#17AB93;" d="M160.271,212.583c16.211,0,31.834-14.083,30.822-29.856l-13.613-10.269
			c0,11.481-5.574,13.875-17.056,13.875c-11.481,0-17.069-2.394-17.069-13.875l-13.535,10.187
			C129.821,199.583,144.032,212.583,160.271,212.583z"/>
	</g>
</g>
<g>
</g>
<g>
</g>
<g>
</g>
<g>
</g>
<g>
</g>
<g>
</g>
<g>
</g>
<g>
</g>
<g>
</g>
<g>
</g>
<g>
</g>
<g>
</g>
<g>
</g>
<g>
</g>
<g>
</g>
</svg>
