<?xml version="1.0" encoding="iso-8859-1"?>
<!-- Generator: Adobe Illustrator 19.0.0, SVG Export Plug-In . SVG Version: 6.00 Build 0)  -->
<svg version="1.1" id="Layer_1" xmlns="http://www.w3.org/2000/svg" xmlns:xlink="http://www.w3.org/1999/xlink" x="0px" y="0px"
	 viewBox="0 0 293.714 293.714" style="enable-background:new 0 0 293.714 293.714;" xml:space="preserve">
<g>
	<g>
		<rect x="151.67" y="73.76" style="fill:#5E4534;" width="74.136" height="131.954"/>
	</g>
	<g>
		<rect x="210.385" y="73.76" style="fill:#493426;" width="15.422" height="131.954"/>
	</g>
	<path style="fill:#504199;" d="M222.837,195.047c-0.764-0.244-0.396-1.368-1.182-1.554l-55.553-13.134h-38.529L72.02,193.493
		c-12.58,2.974-20.119,14.735-22.849,28.221l-7.167,39.5c12.268,8.612,23.176,17.127,39.334,22.398
		c19.832,6.469,42.109,10.102,65.657,10.102c23.426,0,45.597-3.595,65.352-10.001c4.04-1.31,7.163-5.127,10.99-6.666
		L222.837,195.047z"/>
	<g>
		<path style="fill:#504199;" d="M127.573,180.359h38.529c0,0,0.876,20.772-18.375,20.772S127.544,184.568,127.573,180.359z"/>
	</g>
	<g>
		<rect x="130.025" y="157.714" style="fill:#DDC29B;" width="34" height="46"/>
	</g>
	<g>
		<path style="fill:#E8D8BF;" d="M232.188,102.434c0-7.098-4.379-13.164-10.578-15.671c0.222-2.471,0.341-4.918,0.341-7.327
			c0-41.38-33.545-56.194-74.925-56.194S72.1,38.055,72.1,79.435c0,2.409,0.118,4.856,0.341,7.327
			c-6.199,2.507-10.578,8.573-10.578,15.671c0,9.179,12.356,21.685,21.646,22.107c13.249,26.661,36.74,48.551,63.516,48.551
			s50.267-21.89,63.516-48.551C219.831,124.118,232.188,111.613,232.188,102.434z"/>
	</g>
	<g>
		<path style="fill:#745EC5;" d="M147.014,211.083c15.135,0,27.523-12.558,28.599-28.475l-9.511-2.249
			c0,11.481-8.402,20.788-19.121,20.788c-10.719,0-19.408-9.307-19.408-20.788l-9.164,2.166
			C119.448,198.482,131.853,211.083,147.014,211.083z"/>
	</g>
	<g>
		<path style="fill:#745EC5;" d="M246.778,220.501c-2.731-13.486-12.543-24.034-25.123-27.008l-0.618-0.146
			c-13.203,28.148-11.489,59.461-8.69,90.366c16.161-5.241,30.703-12.364,42.99-20.945L246.778,220.501z"/>
	</g>
	<g>
		<path style="fill:#745EC5;" d="M72.02,193.493c-12.58,2.974-22.392,13.522-25.123,27.008l-8.52,42.076
			c12.268,8.612,26.803,15.764,42.961,21.034c2.793-30.872,4.489-62.148-8.699-90.265L72.02,193.493z"/>
	</g>
	<g>
		<g>
			<path style="fill:#FFFFFF;" d="M169.399,259.524v-14.732c-2.741,2.104-4.587,3.156-5.537,3.156c-0.453,0-0.855-0.181-1.206-0.542
				s-0.525-0.779-0.525-1.255c0-0.551,0.172-0.955,0.518-1.214c0.346-0.26,0.955-0.594,1.829-1.004
				c1.307-0.615,2.351-1.263,3.133-1.943c0.783-0.68,1.477-1.44,2.081-2.282c0.604-0.842,0.998-1.36,1.182-1.555
				c0.184-0.193,0.528-0.291,1.036-0.291c0.572,0,1.03,0.222,1.376,0.664s0.519,1.052,0.519,1.829v18.537
				c0,2.17-0.74,3.254-2.219,3.254c-0.658,0-1.188-0.221-1.586-0.663C169.599,261.041,169.399,260.388,169.399,259.524z"/>
		</g>
		<g>
			<path style="fill:#FFFFFF;" d="M197.877,250.101c0,1.771-0.108,3.292-0.324,4.565c-0.216,1.274-0.615,2.429-1.198,3.465
				c-0.733,1.273-1.684,2.256-2.849,2.946c-1.166,0.69-2.461,1.036-3.886,1.036c-1.641,0-3.111-0.464-4.412-1.392
				c-1.301-0.929-2.28-2.213-2.938-3.854c-0.334-0.895-0.58-1.886-0.736-2.971s-0.234-2.259-0.234-3.521
				c0-1.63,0.086-3.098,0.259-4.403c0.172-1.306,0.442-2.429,0.81-3.368c0.637-1.554,1.562-2.738,2.776-3.553
				c1.214-0.815,2.663-1.223,4.347-1.223c1.111,0,2.121,0.181,3.027,0.542c0.907,0.362,1.703,0.891,2.389,1.587
				c0.685,0.696,1.265,1.557,1.74,2.582C197.467,244.322,197.877,246.843,197.877,250.101z M193.441,249.778
				c0-1.976-0.119-3.592-0.356-4.85c-0.237-1.257-0.637-2.207-1.197-2.849c-0.562-0.643-1.339-0.964-2.332-0.964
				c-1.424,0-2.415,0.718-2.971,2.153s-0.833,3.648-0.833,6.638c0,2.029,0.118,3.691,0.355,4.986
				c0.237,1.296,0.637,2.275,1.198,2.938c0.562,0.664,1.322,0.996,2.283,0.996c0.992,0,1.77-0.346,2.331-1.036
				c0.561-0.69,0.955-1.679,1.182-2.963C193.327,253.545,193.441,251.861,193.441,249.778z"/>
		</g>
	</g>
	<g>
		<path style="fill:#DDCDB6;" d="M221.587,86.762c0.222-2.471,0.341-4.918,0.341-7.327c0-41.38-33.545-56.194-74.925-56.194
			S72.078,38.055,72.078,79.435c0,2.409,0.118,4.856,0.341,7.327c-6.199,2.507-10.578,8.573-10.578,15.671
			c0,9.179,12.356,21.685,21.646,22.107c13.249,26.661,36.74,48.551,63.516,48.551s50.267-21.89,63.516-48.551
			c9.29-0.422,21.646-12.928,21.646-22.107C232.165,95.336,227.787,89.269,221.587,86.762z M147.003,170.622
			c-31.403,0-56.86-51.012-56.86-83.904s25.457-45.281,56.86-45.281s56.86,12.389,56.86,45.281S178.406,170.622,147.003,170.622z"/>
	</g>
	<g>
		<path style="fill:#5E4534;" d="M83.29,87.714c-5.62,16.319,5.88,57.5,5.88,57.5c-7.947-16.177-16.63-43.781-19.151-59.109
			C56.599,4.524,135.82-4.902,166.108,1.714c98.562,21.528,48.562,131,48.562,131c-11.648-9.28-31.577-53.5-31.577-53.5
			c0.577,12.5,3.585,19.63,3.585,19.63c-27-6-45.507-27.63-45.507-27.63c8,16.5,19.5,24,19.5,24c-44-12.5-58.5-36.5-58.5-36.5
			S87.566,75.3,83.29,87.714z"/>
	</g>
	<g>
		<g>
			<path style="fill:#493426;" d="M166.108,16.015c45.122,9.856,59.099,38.142,61,65.92c2.014-31.718-8.055-68.656-61-80.221
				c-28.963-6.326-102.661,2.024-97.32,74.101C73.603,16.933,139.185,10.134,166.108,16.015z"/>
		</g>
	</g>
</g>
<g>
</g>
<g>
</g>
<g>
</g>
<g>
</g>
<g>
</g>
<g>
</g>
<g>
</g>
<g>
</g>
<g>
</g>
<g>
</g>
<g>
</g>
<g>
</g>
<g>
</g>
<g>
</g>
<g>
</g>
</svg>
