<?xml version="1.0" encoding="iso-8859-1"?>
<!-- Generator: Adobe Illustrator 19.0.0, SVG Export Plug-In . SVG Version: 6.00 Build 0)  -->
<svg version="1.1" id="Layer_1" xmlns="http://www.w3.org/2000/svg" xmlns:xlink="http://www.w3.org/1999/xlink" x="0px" y="0px"
	 viewBox="0 0 299.815 299.815" style="enable-background:new 0 0 299.815 299.815;" xml:space="preserve">
<g>
	<path style="fill:#5065A1;" d="M256.976,226.604c-2.925-13.486-13.435-24.034-26.91-27.008l-49.688-10.967
		c-0.374,5.363-2.128,10.344-4.903,14.598c0.088,0.038,0.172,0.081,0.26,0.119c-5.492,8.336-15.115,16.738-25.845,16.738
		c-10.781,0-20.07-8.455-25.55-16.857c-2.775-4.254-4.529-9.235-4.903-14.598l-49.688,10.967
		c-13.475,2.974-23.985,13.522-26.91,27.008l-9.126,42.076c9.482,6.215,20.234,11.663,31.986,16.199
		c4.534,1.75,10.87,1.321,15.689,2.788c21.242,6.469,43.28,10.167,68.502,10.167c25.092,0,63.067-6.549,84.227-12.955
		c11.737-4.53,22.476-9.971,31.949-16.176c0.012-0.008,0.024-0.015,0.036-0.023L256.976,226.604z"/>
	<g>
		<g>
			<path style="fill:#32373B;" d="M107.222,172.195c4.434-3.678,30.977,0.947,30.977,0.947v20.75h-24
				C114.198,193.892,103.229,175.507,107.222,172.195z"/>
		</g>
	</g>
	<g>
		<g>
			<path style="fill:#32373B;" d="M192.882,172.195c-4.434-3.678-30.977,0.947-30.977,0.947v20.75h24
				C185.905,193.892,196.874,175.507,192.882,172.195z"/>
		</g>
	</g>
	<g>
		<path style="fill:#34631C;" d="M129.252,184.479h41.269c0,0,0.938,20.772-19.681,20.772S129.221,188.687,129.252,184.479z"/>
	</g>
	<g>
		<rect x="133.076" y="161.833" style="fill:#DDC29B;" width="34" height="51"/>
	</g>
	<g>
		<path style="fill:#E8D8BF;" d="M235.216,106.553c0-7.098-4.379-13.164-10.578-15.671c0.222-2.471,0.341-4.918,0.341-7.327
			c0-41.38-33.545-69.222-74.925-69.222S75.129,42.175,75.129,83.555c0,2.409,0.118,4.856,0.341,7.327
			c-6.199,2.507-10.578,8.573-10.578,15.671c0,9.179,12.356,21.685,21.646,22.107c13.249,26.661,36.74,48.551,63.516,48.551
			s50.267-21.89,63.516-48.551C222.86,128.238,235.216,115.733,235.216,106.553z"/>
	</g>
	<g>
		<path style="fill:#CBE3E3;" d="M150.076,225.65c16.211,0,29.48-21.022,30.633-36.939l-13.633-10.269
			c0,11.481-5.554,18.208-17.035,18.208s-16.965-6.727-16.965-18.208l-13.639,10.187C120.549,204.585,133.837,225.65,150.076,225.65
			z"/>
	</g>
	<g>
		<g>
			<path style="fill:#99ABD5;" d="M234.116,284.878c-8.02-34.366-24.982-66.828-58.381-81.533
				c-5.492,8.336-14.929,22.304-25.659,22.304c-10.781,0-20.256-14.021-25.736-22.423c-33.573,14.649-50.6,47.196-58.641,81.652
				c4.534,1.75,9.212,3.368,14.031,4.835c21.242,6.469,45.104,10.103,70.326,10.103
				C175.148,299.816,212.957,291.285,234.116,284.878z"/>
		</g>
		<g>
			<path style="fill:#5065A1;" d="M230.024,199.596c13.475,2.974,23.985,13.522,26.91,27.008l9.131,42.099
				c0.012-0.008,0.024-0.015,0.036-0.023l-9.126-42.076c-2.925-13.486-13.435-24.034-26.91-27.008l-49.688-10.967
				c-0.374,5.363-2.128,10.344-4.903,14.598c0.088,0.038,0.172,0.081,0.26,0.119c2.805-4.258,4.584-9.253,4.974-14.635
				L230.024,199.596z"/>
		</g>
	</g>
	<g>
		<path style="fill:#DDCDB6;" d="M224.638,90.882c0.222-2.471,0.341-4.918,0.341-7.327c0-41.38-33.545-56.194-74.925-56.194
			S75.128,42.175,75.128,83.555c0,2.409,0.118,4.856,0.341,7.327c-6.199,2.507-10.578,8.573-10.578,15.671
			c0,9.179,12.356,21.685,21.646,22.107c13.249,26.661,36.74,48.551,63.516,48.551s50.267-21.89,63.516-48.551
			c9.29-0.422,21.646-12.928,21.646-22.107C235.216,99.455,230.837,93.389,224.638,90.882z M150.053,174.741
			c-31.403,0-56.86-51.012-56.86-83.904s25.457-45.281,56.86-45.281s56.86,12.389,56.86,45.281S181.456,174.741,150.053,174.741z"/>
	</g>
	<g>
		<path style="fill:#5B5869;" d="M209.296,136.495c7.027-7.365,11.513-16.683,14.086-23.607c6.229-16.766,14.691-51.728-5.43-81.575
			C193.721-4.632,154.388,3.726,154.388,3.726c-23.5-14.465-69.148,15.632-79.167,48.302c-6.656,21.704-5.365,38.486-2.151,50.779
			c0.928,3.549,5.136,13.744,5.136,13.744l0,0c2.028,5.193,6.015,12.575,11.264,17.635c0,0-5.332-9.477-6.263-19.332l16.848-39.65
			c0,0,47,25.828,100.167,0.38l14.915,33.474C215.289,122.034,209.296,136.495,209.296,136.495z"/>
	</g>
	<g>
		<g>
			<path style="fill:#43414F;" d="M75.221,75.027c10.019-32.67,55.667-62.767,79.167-48.302c0,0,39.333-8.358,63.565,27.588
				c7.131,10.578,10.343,22.408,11.754,33.268c2.059-16.843,0.65-37.868-11.754-56.268C193.721-4.632,154.388,3.726,154.388,3.726
				c-23.5-14.465-69.148,15.632-79.167,48.302C70.23,68.301,69.98,82.324,71.36,93.101C72.045,87.46,73.259,81.423,75.221,75.027z"
				/>
		</g>
	</g>
	<path style="fill:#394C81;" d="M209.011,186.333c-11.25-2.5-12.97-12.153-16.346-14.301l-39.738,50.634h-5.746l-39.738-50.634
		c-3.376,2.148-5.096,11.801-16.346,14.301s-19.887,12.94-19.887,12.94l38.646,12.023l19.198,5.972v23.065
		c0,1.381,1.119,2.5,2.5,2.5s2.5-1.119,2.5-2.5v-21.341l4.197,1.447c2.605,2.209,5.392,3.919,8.303,4.715v74.631
		c1.165,0.016,2.33,0.031,3.501,0.031c1.138,0,2.311-0.023,3.499-0.058v-74.596c2.922-0.793,5.719-2.513,8.334-4.735l4.499-1.551
		v21.456c0,1.381,1.119,2.5,2.5,2.5s2.5-1.119,2.5-2.5v-23.18l18.808-5.689l39.491-11.944
		C229.686,199.521,220.261,188.833,209.011,186.333z"/>
</g>
<g>
</g>
<g>
</g>
<g>
</g>
<g>
</g>
<g>
</g>
<g>
</g>
<g>
</g>
<g>
</g>
<g>
</g>
<g>
</g>
<g>
</g>
<g>
</g>
<g>
</g>
<g>
</g>
<g>
</g>
</svg>
