<?xml version="1.0" encoding="iso-8859-1"?>
<!-- Generator: Adobe Illustrator 19.0.0, SVG Export Plug-In . SVG Version: 6.00 Build 0)  -->
<svg version="1.1" id="Layer_1" xmlns="http://www.w3.org/2000/svg" xmlns:xlink="http://www.w3.org/1999/xlink" x="0px" y="0px"
	 viewBox="0 0 296.234 296.234" style="enable-background:new 0 0 296.234 296.234;" xml:space="preserve">
<g>
	<g>
		<path style="fill:#DDC29B;" d="M167.364,167.637v-23.87h-38.117v23.864c0,4.503-3.397,8.277-7.876,8.74
			c-15.516,1.605-49.693,5.245-63.118,7.507c-15.255,2.57-26.889,15.159-30.168,30.278l-10.231,47.17
			c14.731,9.655,32.185,17.672,51.588,23.581c23.814,7.252,50.567,9.593,78.843,9.593c28.13,0,54.75-2.297,78.471-9.479
			c19.406-5.875,36.868-13.861,51.623-23.481l-10.277-47.384c-3.279-15.119-14.914-27.703-30.168-30.278
			c-13.334-2.251-47.26-5.891-62.701-7.501C170.756,175.91,167.364,172.138,167.364,167.637z"/>
	</g>
	<g>
		<path style="fill:#E8D8BF;" d="M233.447,104.72c0-7.098-4.379-13.164-10.578-15.671c0.222-2.471,0.341-4.918,0.341-7.327
			c0-41.38-33.545-58.194-74.925-58.194S73.36,40.342,73.36,81.722c0,2.409,0.118,4.856,0.341,7.327
			c-6.199,2.507-10.578,8.573-10.578,15.671c0,9.179,12.356,21.685,21.646,22.107c13.249,26.661,36.74,48.551,63.516,48.551
			s50.267-21.89,63.516-48.551C221.091,126.405,233.447,113.899,233.447,104.72z"/>
	</g>
	<g>
		<path style="fill:#0D7561;" d="M236.094,252c0,0-43.645,14.986-87.831,14.986S60.139,252,60.139,252v29.854
			c3.049,1.071,6.147,2.093,9.303,3.054c23.814,7.252,50.565,11.326,78.841,11.326c28.13,0,54.752-4.03,78.474-11.212
			c3.167-0.959,6.277-1.98,9.338-3.049V252H236.094z"/>
	</g>
	<g>
		<path style="fill:#DDCDB6;" d="M222.847,89.049c0.222-2.471,0.341-4.918,0.341-7.327c0-41.38-33.545-56.194-74.925-56.194
			S73.338,40.342,73.338,81.722c0,2.409,0.118,4.856,0.341,7.327c-6.2,2.506-10.579,8.573-10.579,15.671
			c0,9.179,12.356,21.685,21.646,22.107c13.249,26.661,36.74,48.551,63.516,48.551s50.267-21.89,63.516-48.551
			c9.29-0.422,21.646-12.928,21.646-22.107C233.425,97.622,229.047,91.555,222.847,89.049z M148.263,172.908
			c-31.403,0-56.86-51.012-56.86-83.904s25.457-45.281,56.86-45.281s56.86,12.389,56.86,45.281S179.666,172.908,148.263,172.908z"/>
	</g>
	<g>
		<path style="fill:#4A4A4C;" d="M178.065,12.782c0,12.426-13.187,32.218-29.802,32.218s-30.365-19.792-30.365-32.218
			S131.648,0,148.263,0S178.065,0.355,178.065,12.782z"/>
	</g>
	<g>
		<path style="fill:#565656;" d="M166.93,12.782c0,12.426-8.306,32.218-18.771,32.218s-19.126-19.792-19.126-32.218
			S137.694,0,148.159,0S166.93,0.355,166.93,12.782z"/>
	</g>
	<g>
		<path style="fill:#2B2B2B;" d="M73.7,89.049c2.08,14.474,4.501,28.981,11.069,37.778c0,0,0.726-41.535,12.828-44.59
			c15.041-3.797,15,13.042,50.666,13.042s35.66-16.847,50.71-13.042c12.1,3.059,12.828,44.59,12.828,44.59
			c6.568-8.797,8.988-23.305,11.068-37.778c0.353-2.455,0.341-4.918,0.341-7.327c0-41.38-33.545-58.194-74.925-58.194
			S73.36,40.342,73.36,81.722C73.36,84.131,73.348,86.593,73.7,89.049z"/>
	</g>
</g>
<g>
</g>
<g>
</g>
<g>
</g>
<g>
</g>
<g>
</g>
<g>
</g>
<g>
</g>
<g>
</g>
<g>
</g>
<g>
</g>
<g>
</g>
<g>
</g>
<g>
</g>
<g>
</g>
<g>
</g>
</svg>
