<?xml version="1.0" encoding="iso-8859-1"?>
<!-- Generator: Adobe Illustrator 19.0.0, SVG Export Plug-In . SVG Version: 6.00 Build 0)  -->
<svg version="1.1" id="Layer_1" xmlns="http://www.w3.org/2000/svg" xmlns:xlink="http://www.w3.org/1999/xlink" x="0px" y="0px"
	 viewBox="0 0 297 297" style="enable-background:new 0 0 297 297;" xml:space="preserve">
<g>
	<g>
		<path style="fill:#DDC29B;" d="M165.669,182.292V161h-34v21.287c0,4.017-3.03,7.383-7.025,7.796
			c-13.84,1.432-44.326,4.679-56.302,6.696c-13.608,2.292-23.985,13.522-26.91,27.008l-9.126,42.076
			c13.14,8.612,28.709,15.764,46.016,21.034C99.564,293.366,123.426,297,148.648,297c25.092,0,48.839-3.595,69.999-10.001
			c17.31-5.241,32.886-12.364,46.047-20.945l-9.167-42.266c-2.925-13.486-13.303-24.711-26.91-27.008
			c-11.894-2.008-42.156-5.255-55.93-6.691C168.696,189.672,165.669,186.307,165.669,182.292z"/>
	</g>
	<g>
		<path style="fill:#E8D8BF;" d="M233.831,105.72c0-7.098-4.379-13.164-10.578-15.671c0.222-2.471,0.341-4.918,0.341-7.327
			c0-41.38-33.545-56.194-74.925-56.194S73.743,41.342,73.743,82.722c0,2.409,0.118,4.856,0.341,7.327
			c-6.199,2.507-10.578,8.573-10.578,15.671c0,9.179,12.356,21.685,21.646,22.107c13.249,26.661,36.74,48.551,63.516,48.551
			s50.267-21.89,63.516-48.551C221.475,127.405,233.831,114.899,233.831,105.72z"/>
	</g>
	<g>
		<path style="fill:#DDCDB6;" d="M223.232,90.049c0.222-2.471,0.341-4.918,0.341-7.327c0-41.38-33.545-56.194-74.925-56.194
			S73.721,41.342,73.721,82.722c0,2.409,0.118,4.856,0.341,7.327c-6.199,2.507-10.578,8.573-10.578,15.671
			c0,9.179,12.356,21.685,21.646,22.107c13.249,26.661,36.74,48.551,63.516,48.551s50.267-21.89,63.516-48.551
			c9.29-0.422,21.646-12.928,21.646-22.107C233.81,98.622,229.43,92.555,223.232,90.049z M148.646,173.908
			c-31.403,0-56.86-51.012-56.86-83.904s25.457-45.281,56.86-45.281s56.86,12.389,56.86,45.281S180.049,173.908,148.646,173.908z"/>
	</g>
	<g>
		<path style="fill:#82D9C8;" d="M148.648,62.936c33.507,0,61.471,22.336,68.046,52.064c5.708-10.941,8.954-23.415,8.954-36.665
			c0-43.263-34.474-78.335-77-78.335s-77,35.072-77,78.335c0,13.25,3.246,25.724,8.954,36.665
			C87.175,85.272,115.14,62.936,148.648,62.936z"/>
	</g>
	<g>
		<path style="fill:#69BCAC;" d="M148.648,19c39.388,0,71.847,30.094,76.426,68.91c0.377-3.138,0.574-6.333,0.574-9.575
			c0-43.263-34.474-78.335-77-78.335s-77,35.072-77,78.335c0,3.242,0.197,6.437,0.574,9.575C76.8,49.094,109.258,19,148.648,19z"/>
	</g>
	<g>
		<path style="fill:#17AB93;" d="M126.777,3.225c-7.044,16.463-11.571,40.729-11.788,67.902c9.973-5.212,21.443-8.191,33.657-8.191
			s23.684,2.979,33.657,8.191c-0.216-27.172-4.744-51.439-11.788-67.902C163.583,1.138,156.247,0,148.648,0
			S133.713,1.138,126.777,3.225z"/>
	</g>
	<path style="fill:#9ADAD9;" d="M202.814,98.25c0,6.627-7.125,19.75-25.167,19.75c-10.355,0-18.75-5.373-18.75-12s8.917-10,18.75-12
		C187.795,91.936,202.814,91.623,202.814,98.25z"/>
	<g>
		<path style="fill:#9ADAD9;" d="M94.523,98.25c0,6.627,7.125,19.75,25.167,19.75c10.355,0,18.75-5.373,18.75-12s-8.917-10-18.75-12
			C109.543,91.936,94.523,91.623,94.523,98.25z"/>
		<path style="fill:#5B5869;" d="M225.635,79.072l-4.429,7.129c-4.824,6.87-10.707,10.187-15.406,11.795
			c-0.07-2.031-0.97-3.817-2.629-5.172c-6.74-5.507-24.158-2.163-26.122-1.764c-7.965,1.62-18.23,4.557-20.632,11.689h-15.497
			c-2.402-7.132-12.667-10.07-20.632-11.689c-1.963-0.4-19.384-3.745-26.122,1.764c-1.664,1.36-2.564,3.152-2.63,5.191
			c-4.708-1.607-10.615-4.929-15.449-11.814l-4.429-7.129c0.052,5.711,0.705,11.274,1.9,16.629
			c7.068,7.416,15.063,10.181,20.42,11.206C97.722,113.906,105.917,121,119.691,121c10.828,0,19.557-5.198,21.382-12.25h15.191
			c1.825,7.052,10.554,12.25,21.382,12.25c13.777,0,21.973-7.098,25.716-14.099c5.357-1.032,13.328-3.806,20.373-11.199
			C224.932,90.346,225.583,84.783,225.635,79.072z M119.691,115c-16.913,0-22.167-12.277-22.167-16.75
			c0-0.23,0.033-0.448,0.438-0.78c1.431-1.169,4.926-1.768,9.282-1.768c3.59,0,7.764,0.407,11.849,1.237
			c10.694,2.176,16.348,5.309,16.348,9.061C135.441,110.879,128.229,115,119.691,115z M177.648,115c-8.537,0-15.75-4.121-15.75-9
			c0-3.752,5.653-6.885,16.348-9.061c4.085-0.831,8.259-1.237,11.849-1.237c4.355,0,7.852,0.6,9.282,1.768
			c0.405,0.332,0.438,0.55,0.438,0.78C199.814,102.723,194.561,115,177.648,115z"/>
	</g>
</g>
<g>
</g>
<g>
</g>
<g>
</g>
<g>
</g>
<g>
</g>
<g>
</g>
<g>
</g>
<g>
</g>
<g>
</g>
<g>
</g>
<g>
</g>
<g>
</g>
<g>
</g>
<g>
</g>
<g>
</g>
</svg>
