<?xml version="1.0" encoding="iso-8859-1"?>
<!-- Generator: Adobe Illustrator 19.0.0, SVG Export Plug-In . SVG Version: 6.00 Build 0)  -->
<svg version="1.1" id="Layer_1" xmlns="http://www.w3.org/2000/svg" xmlns:xlink="http://www.w3.org/1999/xlink" x="0px" y="0px"
	 viewBox="0 0 297.001 297.001" style="enable-background:new 0 0 297.001 297.001;" xml:space="preserve">
<g>
	<g>
		<path style="fill:#DDC29B;" d="M131.503,161.001v21.292c0,4.014-3.324,6.226-7.019,7.796
			c-18.626,7.912-38.376,11.412-49.154,14.954c-13.109,4.309-23.985,13.522-26.91,27.008l-9.167,34.003
			c13.161,8.581,28.737,15.705,46.047,20.945c21.16,6.407,38.131,10.002,63.224,10.002h-0.045c25.092,0,42.064-3.595,63.223-10.001
			c17.31-5.241,32.886-12.364,46.047-20.945l-9.167-34.003c-2.925-13.486-13.8-22.699-26.91-27.008
			c-10.778-3.542-30.528-7.042-49.154-14.954c-3.695-1.569-7.019-3.781-7.019-7.796v-21.293H131.503z"/>
	</g>
	<g>
		<path style="fill:#E8D8BF;" d="M233.661,105.721c0-7.098-4.379-13.164-10.578-15.671c0.222-2.471,0.341-4.918,0.341-7.327
			c0-41.38-33.545-56.194-74.925-56.194S73.574,41.343,73.574,82.723c0,2.409,0.118,4.856,0.341,7.327
			c-6.199,2.507-10.578,8.573-10.578,15.671c0,9.179,12.356,21.685,21.646,22.107c13.249,26.661,36.74,48.551,63.516,48.551
			s50.267-21.89,63.516-48.551C221.305,127.406,233.661,114.9,233.661,105.721z"/>
	</g>
	<g>
		<g>
			<path style="fill:#D95459;" d="M148.523,297.001c-0.008,0-0.015,0-0.022,0s-0.015,0-0.023,0H148.523z"/>
		</g>
		<g>
			<path style="fill:#D95459;" d="M219.779,284.352c-17.186-30.249-6.212-71.876-4.535-81.186
				c-3.933-1.059-8.466-2.184-13.359-3.474c-0.336,6.83-5.197,58.142-53.408,58.142s-53.025-51.312-53.36-58.142
				c-4.894,1.29-9.427,2.415-13.359,3.474c1.677,9.31,12.651,50.937-4.535,81.186c2.653,0.923,5.335,1.817,8.078,2.648
				c21.153,6.404,38.121,9.998,63.201,10.001c25.08-0.002,42.048-3.596,63.201-10.001
				C214.444,286.17,217.126,285.276,219.779,284.352z"/>
		</g>
	</g>
	<g>
		<path style="fill:#DDCDB6;" d="M223.061,90.05c0.222-2.471,0.341-4.918,0.341-7.327c0-41.38-33.545-56.194-74.925-56.194
			S73.551,41.343,73.551,82.723c0,2.409,0.118,4.856,0.341,7.327c-6.199,2.507-10.578,8.573-10.578,15.671
			c0,9.179,12.356,21.685,21.646,22.107c13.249,26.661,36.74,48.551,63.516,48.551s50.267-21.89,63.516-48.551
			c9.29-0.422,21.646-12.928,21.646-22.107C233.639,98.623,229.26,92.556,223.061,90.05z M148.476,173.909
			c-31.403,0-56.86-51.012-56.86-83.904s25.457-45.281,56.86-45.281s56.86,12.389,56.86,45.281S179.879,173.909,148.476,173.909z"/>
	</g>
	<g>
		<path style="fill:#745EC5;" d="M148.477,62.937c33.507,0,61.471,22.336,68.046,52.064c5.708-10.941,8.954-23.415,8.954-36.665
			c0-43.263-34.474-78.335-77-78.335s-77,35.072-77,78.335c0,13.25,3.246,25.724,8.954,36.665
			C87.006,85.273,114.97,62.937,148.477,62.937z"/>
	</g>
	<g>
		<path style="fill:#6050AD;" d="M148.477,16.501c39.78,0,72.508,30.69,76.57,70.065c0.279-2.706,0.43-5.45,0.43-8.231
			c0-43.263-34.474-78.335-77-78.335s-77,35.072-77,78.335c0,2.781,0.151,5.525,0.43,8.231
			C75.969,47.191,108.697,16.501,148.477,16.501z"/>
	</g>
	<path style="fill:#9ADAD9;" d="M202.644,98.251c0,6.627-7.125,19.75-25.167,19.75c-10.355,0-18.75-5.373-18.75-12
		s8.917-10,18.75-12C187.625,91.937,202.644,91.624,202.644,98.251z"/>
	<g>
		<path style="fill:#9ADAD9;" d="M94.353,98.251c0,6.627,7.125,19.75,25.167,19.75c10.355,0,18.75-5.373,18.75-12
			s-8.917-10-18.75-12C109.373,91.937,94.353,91.624,94.353,98.251z"/>
		<path style="fill:#5B5869;" d="M225.466,79.073l-4.429,7.129c-4.823,6.868-10.708,10.191-15.406,11.8
			c-0.069-2.033-0.969-3.82-2.629-5.177c-6.74-5.507-24.158-2.163-26.122-1.764c-7.965,1.62-18.23,4.557-20.632,11.689h-15.497
			c-2.402-7.132-12.667-10.07-20.632-11.689c-1.963-0.4-19.384-3.745-26.122,1.764c-1.664,1.359-2.564,3.151-2.63,5.19
			c-4.708-1.607-10.615-4.928-15.449-11.813l-4.429-7.129c0.052,5.711,0.705,11.274,1.9,16.629
			c7.069,7.418,15.063,10.181,20.42,11.206c3.743,6.999,11.939,14.093,25.712,14.093c10.828,0,19.557-5.198,21.382-12.25h15.191
			c1.825,7.052,10.554,12.25,21.382,12.25c13.777,0,21.973-7.098,25.716-14.099c5.358-1.033,13.329-3.808,20.373-11.2
			C224.761,90.347,225.413,84.784,225.466,79.073z M119.521,115.001c-16.913,0-22.167-12.277-22.167-16.75
			c0-0.23,0.033-0.448,0.438-0.78c1.431-1.169,4.926-1.768,9.282-1.768c3.59,0,7.764,0.407,11.849,1.237
			c10.694,2.176,16.348,5.309,16.348,9.061C135.271,110.88,128.058,115.001,119.521,115.001z M177.477,115.001
			c-8.537,0-15.75-4.121-15.75-9c0-3.752,5.653-6.885,16.348-9.061c4.085-0.831,8.259-1.237,11.849-1.237
			c4.355,0,7.852,0.6,9.282,1.768c0.405,0.332,0.438,0.55,0.438,0.78C199.644,102.724,194.39,115.001,177.477,115.001z"/>
	</g>
</g>
<g>
</g>
<g>
</g>
<g>
</g>
<g>
</g>
<g>
</g>
<g>
</g>
<g>
</g>
<g>
</g>
<g>
</g>
<g>
</g>
<g>
</g>
<g>
</g>
<g>
</g>
<g>
</g>
<g>
</g>
</svg>
