<?xml version="1.0" encoding="iso-8859-1"?>
<!-- Generator: Adobe Illustrator 19.0.0, SVG Export Plug-In . SVG Version: 6.00 Build 0)  -->
<svg version="1.1" id="Layer_1" xmlns="http://www.w3.org/2000/svg" xmlns:xlink="http://www.w3.org/1999/xlink" x="0px" y="0px"
	 viewBox="0 0 297.834 297.834" style="enable-background:new 0 0 297.834 297.834;" xml:space="preserve">
<g>
	<path style="fill:#BDC3C7;" d="M255.945,224.621c-2.925-13.486-13.435-24.034-26.91-27.008l-49.316-4.885
		c-1.153,15.917-30.822,34.606-30.822,34.606s-29.338-18.732-30.45-34.688l-49.688,4.967c-13.475,2.974-23.985,13.522-26.91,27.008
		l-9.126,42.076c13.14,8.612,28.709,15.764,46.016,21.034c21.242,6.469,44.935,7.936,70.158,7.936
		c25.092,0,49.008-1.428,70.167-7.834c17.31-5.241,32.886-12.365,46.047-20.946L255.945,224.621z"/>
	<g>
		<path style="fill:#25375E;" d="M128.262,184.479h41.269c0,0,0.938,20.772-19.681,20.772S128.231,188.687,128.262,184.479z"/>
	</g>
	<g>
		<rect x="132.086" y="161.833" style="fill:#DDC29B;" width="34" height="51"/>
	</g>
	<g>
		<path style="fill:#FFFFFF;" d="M149.086,230.333c16.211,0,29.48-27.688,30.633-43.606l-10.188-2.249
			c0,11.481-20.467,28.354-20.467,28.354s-20.802-16.873-20.802-28.354l-9.816,2.166
			C119.559,202.602,132.847,230.333,149.086,230.333z"/>
	</g>
	<g>
		<path style="fill:#ECF0F1;" d="M179.719,186.728c-1.153,15.917-30.822,40.606-30.822,40.606s-29.338-24.732-30.45-40.688
			l-49.025,10.821c14.126,28.117,12.31,59.393,9.318,90.265c21.242,6.469,45.104,10.102,70.326,10.102
			c25.092,0,48.839-3.595,69.999-10.001c-2.998-30.905-4.834-62.218,9.308-90.366L179.719,186.728z"/>
	</g>
	<g>
		<path style="fill:#E8D8BF;" d="M234.248,106.553c0-7.098-4.379-13.164-10.578-15.671c0.222-2.471,0.341-4.918,0.341-7.327
			c0-41.38-33.545-56.194-74.925-56.194S74.161,42.175,74.161,83.555c0,2.409,0.118,4.856,0.341,7.327
			c-6.199,2.507-10.578,8.573-10.578,15.671c0,9.179,12.356,21.685,21.646,22.107c13.249,26.661,36.74,48.551,63.516,48.551
			s50.267-21.89,63.516-48.551C221.892,128.238,234.248,115.733,234.248,106.553z"/>
	</g>
	<g>
		<path style="fill:#BBBBBB;" d="M149.064,212.833c0,0-11.083-2-20.583,11.25l-14.72-31.542c-1.529-3.277-0.082-7.171,3.216-8.654
			l15.129-6.803v10.5L149.064,212.833z"/>
	</g>
	<g>
		<path style="fill:#BBBBBB;" d="M149.064,212.833c0,0,10.859-2,20.359,11.25l14.72-31.542c1.529-3.277,0.082-7.171-3.216-8.654
			l-14.86-6.803v10.5L149.064,212.833z"/>
	</g>
	<g>
		<path style="fill:#DDCDB6;" d="M223.648,90.882c0.222-2.471,0.341-4.918,0.341-7.327c0-41.38-33.545-56.194-74.925-56.194
			S74.139,42.175,74.139,83.555c0,2.409,0.118,4.856,0.341,7.327c-6.2,2.507-10.579,8.573-10.579,15.671
			c0,9.179,12.356,21.685,21.646,22.107c13.249,26.661,36.74,48.551,63.516,48.551s50.267-21.89,63.516-48.551
			c9.29-0.422,21.646-12.928,21.646-22.107C234.226,99.455,229.848,93.389,223.648,90.882z M149.064,174.741
			c-31.403,0-56.86-51.012-56.86-83.904s25.457-45.281,56.86-45.281s56.86,12.389,56.86,45.281S180.467,174.741,149.064,174.741z"/>
	</g>
	<g>
		<path style="fill:#F86E51;" d="M216.963,27.481C192.731-4.065,153.398,3.27,153.398,3.27c-23.5-12.695-69.148,13.719-79.167,42.39
			c-6.656,19.048-5.459,34.766-2.052,44.531c1.079,3.093,5.036,12.095,5.036,12.095c2.028,4.558,4.604,10.147,7.635,16.319
			c0,0-2.399-8.353-2.628-17.503c21.415-5.994,30.008-21.223,30.008-21.223v9.624c17.5-5.347,42.5-28.873,42.5-28.873l-2.5,9.09
			c18-0.535,27.488-12.832,27.488-12.832c9.597,23.023,25.075,34.307,34.435,39.307c0.001,11.266-5.125,23.763-5.125,23.763
			c7.027-6.464,10.803-14.833,13.363-20.885C228.646,84.292,237.084,53.676,216.963,27.481z"/>
	</g>
	<g>
		<g>
			<path style="fill:#E55C45;" d="M74.231,69.014c10.019-28.672,55.667-55.085,79.167-42.391c0,0,39.333-7.335,63.565,24.211
				c6.748,8.785,10.354,18.102,11.918,27.154c2.424-15.079,0.945-33.761-11.918-50.508C192.731-4.065,153.398,3.27,153.398,3.27
				c-23.5-12.695-69.148,13.719-79.167,42.39c-5.262,15.058-5.247,27.908-3.615,37.551C71.335,78.742,72.488,74.002,74.231,69.014z"
				/>
		</g>
	</g>
	<g>
		<path style="fill:#ECF0F1;" d="M221.487,93.815c-47.974-7.707-96.872-7.707-144.847,0c-3.378,0.543-6.56-1.75-7.148-5.121
			c-0.312-1.788-0.624-3.576-0.936-5.364c-0.604-3.46,1.751-6.728,5.219-7.285c49.872-8.013,100.704-8.013,150.577,0
			c3.468,0.557,5.823,3.825,5.219,7.285c-0.312,1.788-0.624,3.576-0.936,5.364C228.047,92.065,224.865,94.358,221.487,93.815z"/>
	</g>
</g>
<g>
</g>
<g>
</g>
<g>
</g>
<g>
</g>
<g>
</g>
<g>
</g>
<g>
</g>
<g>
</g>
<g>
</g>
<g>
</g>
<g>
</g>
<g>
</g>
<g>
</g>
<g>
</g>
<g>
</g>
</svg>
