<?xml version="1.0" encoding="iso-8859-1"?>
<!-- Generator: Adobe Illustrator 19.0.0, SVG Export Plug-In . SVG Version: 6.00 Build 0)  -->
<svg version="1.1" id="Layer_1" xmlns="http://www.w3.org/2000/svg" xmlns:xlink="http://www.w3.org/1999/xlink" x="0px" y="0px"
	 viewBox="0 0 296.387 296.387" style="enable-background:new 0 0 296.387 296.387;" xml:space="preserve">
<g>
	<path style="fill:#D6BDD5;" d="M225.592,223.175c-2.496-13.486-11.464-24.034-22.962-27.008l-42.08-5.885
		c-0.984,15.917-26.3,35.606-26.3,35.606s-25.033-19.732-25.983-35.688l-42.398,5.967c-11.498,2.974-20.466,13.522-22.962,27.008
		l-7.787,42.076c11.212,8.612,24.497,15.764,39.265,21.034c18.126,6.469,38.486,5.103,60.008,5.103
		c21.411,0,41.674,1.406,59.729-5.001c14.77-5.241,28.061-12.365,39.292-20.946L225.592,223.175z"/>
	<g>
		<path style="fill:#775C4A;" d="M169.081,8.887c0,0,14-12,35.5-7.5s44.327,28.468,45,96c0.608,60.997,11.686,77.625,11.686,77.625
			s-46.252,14.875-77.687-28.125C146.886,96.693,169.081,8.887,169.081,8.887z"/>
	</g>
	<g>
		<path style="fill:#604838;" d="M191.681,5.124c21.5,4.5,44.327,28.468,45,96c0.51,51.099,8.365,71.057,10.902,76.189
			c8.317-0.577,13.684-2.301,13.684-2.301s-11.078-16.628-11.686-77.625c-0.674-67.532-23.5-91.5-45-96
			c-12.248-2.564-22.057,0.228-28.235,3.105C180.857,3.904,186.004,3.936,191.681,5.124z"/>
	</g>
	<g>
		
			<ellipse transform="matrix(0.3745 -0.9272 0.9272 0.3745 98.9907 172.5174)" style="fill:#D6BDD5;" cx="177.365" cy="12.887" rx="11.607" ry="18.923"/>
	</g>
	<g>
		<rect x="119.906" y="160.387" style="fill:#DDC29B;" width="29.012" height="51"/>
	</g>
	<g>
		<path style="fill:#FFFFFF;" d="M134.412,228.887c13.833,0,25.155-27.688,26.139-43.606l-8.693-2.249
			c0,11.481-17.476,28.354-17.476,28.354s-17.738-16.873-17.738-28.354l-8.375,2.166
			C109.217,201.156,120.555,228.887,134.412,228.887z"/>
	</g>
	<g>
		<path style="fill:#ECF0F1;" d="M160.55,185.282c-0.984,15.917-26.3,40.606-26.3,40.606s-25.033-24.732-25.983-40.688
			l-41.832,10.82c12.053,28.117,10.504,59.393,7.951,90.265c18.126,6.469,38.486,10.102,60.008,10.102
			c21.411,0,41.674-3.595,59.729-10.001c-2.558-30.905-4.124-62.218,7.942-90.366L160.55,185.282z"/>
	</g>
	<g>
		<path style="fill:#D6BDD5;" d="M134.415,211.387c0,0-9.479-2-17.585,11.25l-12.56-31.542c-1.305-3.277-0.07-7.171,2.744-8.654
			l12.909-6.803v10.5L134.415,211.387z"/>
	</g>
	<g>
		<path style="fill:#D6BDD5;" d="M134.415,211.387c0,0,9.244-2,17.35,11.25l12.56-31.542c1.305-3.277,0.07-7.171-2.744-8.654
			l-12.909-6.803v10.5L134.415,211.387z"/>
	</g>
	<g>
		<path style="fill:#E8D8BF;" d="M219.599,105.107c0-7.098-4.379-13.164-10.578-15.671c0.222-2.471,0.341-4.918,0.341-7.327
			c0-41.38-33.545-56.194-74.925-56.194S59.511,40.729,59.511,82.109c0,2.409,0.118,4.856,0.341,7.327
			c-6.199,2.507-10.578,8.573-10.578,15.671c0,9.179,12.356,21.685,21.646,22.107c13.249,26.661,36.74,48.551,63.516,48.551
			s50.267-21.89,63.516-48.551C207.242,126.792,219.599,114.287,219.599,105.107z"/>
	</g>
	<g>
		<path style="fill:#DDCDB6;" d="M208.999,89.436c0.222-2.471,0.341-4.918,0.341-7.327c0-41.38-33.545-56.194-74.925-56.194
			S59.489,40.729,59.489,82.109c0,2.409,0.118,4.856,0.341,7.327c-6.199,2.507-10.578,8.573-10.578,15.671
			c0,9.179,12.356,21.685,21.646,22.107c13.249,26.661,36.74,48.551,63.516,48.551s50.267-21.89,63.516-48.551
			c9.29-0.422,21.646-12.928,21.646-22.107C219.577,98.009,215.198,91.943,208.999,89.436z M134.414,173.295
			c-31.403,0-56.86-51.012-56.86-83.904s25.457-45.281,56.86-45.281s56.86,12.389,56.86,45.281S165.817,173.295,134.414,173.295z"/>
	</g>
	<g>
		<path style="fill:#5E4534;" d="M79.081,93.554c-12.477,9.585,1.667,67,1.667,67c-7.947-16.177-20.796-56.448-23.317-71.775
			C44.01,7.197,123.231-2.228,153.519,4.387c98.562,21.528,45.043,123.5,45.043,123.5s3.594-25.66-3.148-33.667
			C179.414,75.221,129.414,54.887,79.081,93.554z"/>
	</g>
	<g>
		<g>
			<path style="fill:#4C3729;" d="M153.519,24.611c41.576,9.081,56.091,32.476,58.977,56.492
				c3.154-29.858-5.638-65.065-58.977-76.716C124.141-2.029,48.732,6.649,56.472,81.62C63.099,25.311,127.027,18.824,153.519,24.611
				z"/>
		</g>
	</g>
	<g>
		<path style="fill:#ECF0F1;" d="M206.837,92.369c-47.974-7.707-96.872-7.707-144.847,0c-3.378,0.543-6.56-1.75-7.148-5.121
			c-0.312-1.788-0.624-3.576-0.936-5.364c-0.604-3.46,1.751-6.728,5.219-7.285c49.872-8.013,100.704-8.013,150.577,0
			c3.468,0.557,5.823,3.825,5.219,7.285c-0.312,1.788-0.624,3.576-0.936,5.364C213.397,90.619,210.216,92.912,206.837,92.369z"/>
	</g>
</g>
<g>
</g>
<g>
</g>
<g>
</g>
<g>
</g>
<g>
</g>
<g>
</g>
<g>
</g>
<g>
</g>
<g>
</g>
<g>
</g>
<g>
</g>
<g>
</g>
<g>
</g>
<g>
</g>
<g>
</g>
</svg>
