<?xml version="1.0" encoding="iso-8859-1"?>
<!-- Generator: Adobe Illustrator 19.0.0, SVG Export Plug-In . SVG Version: 6.00 Build 0)  -->
<svg version="1.1" id="Layer_1" xmlns="http://www.w3.org/2000/svg" xmlns:xlink="http://www.w3.org/1999/xlink" x="0px" y="0px"
	 viewBox="0 0 290.473 290.473" style="enable-background:new 0 0 290.473 290.473;" xml:space="preserve">
<g>
	<g>
		<path style="fill:#DDC29B;" d="M162.406,175.764v-21.292h-34v21.287c0,4.017-3.03,7.383-7.025,7.796
			c-13.84,1.432-44.326,4.679-56.302,6.696c-13.608,2.292-23.985,13.522-26.91,27.008l-9.126,42.076
			c13.14,8.612,28.709,15.764,46.016,21.034c21.242,6.469,45.104,10.102,70.326,10.102c25.092,0,48.839-3.595,69.999-10.001
			c17.31-5.241,32.886-12.364,46.047-20.945l-9.167-42.266c-2.925-13.486-13.303-24.711-26.91-27.008
			c-11.894-2.008-42.156-5.255-55.93-6.691C165.432,183.144,162.406,179.779,162.406,175.764z"/>
	</g>
	<g>
		<path style="fill:#E8D8BF;" d="M230.568,99.192c0-7.098-4.379-13.164-10.578-15.671c0.222-2.471,0.341-4.918,0.341-7.327
			C220.331,34.814,186.785,0,145.406,0S70.48,34.814,70.48,76.194c0,2.409,0.118,4.856,0.341,7.327
			c-6.199,2.507-10.578,8.573-10.578,15.671c0,9.179,12.356,21.685,21.646,22.107c13.249,26.661,36.74,48.551,63.516,48.551
			s50.267-21.89,63.516-48.551C218.212,120.877,230.568,108.371,230.568,99.192z"/>
	</g>
	<g>
		<path style="fill:#394C81;" d="M194.602,186.292c-1.543,15.888-12.552,85.013-49.219,85.013c-36.333,0-47.89-69.1-49.496-85.003
			c-4.325,0.488-8.681,0.993-12.798,1.493c4.525,14.696,22.09,74.256,17.368,98.695c14.258,2.59,29.331,3.983,44.927,3.983
			c15.486,0,30.456-1.373,44.625-3.927l0.006-0.053c-4.723-24.439,12.846-84.009,17.369-98.7
			C203.272,187.29,198.921,186.782,194.602,186.292z"/>
	</g>
	<path style="fill:#DDCDB6;" d="M219.968,83.521c0.222-2.471,0.341-4.918,0.341-7.327c0-41.38-33.545-56.194-74.925-56.194
		S70.458,34.814,70.458,76.194c0,2.409,0.118,4.856,0.341,7.327c-6.199,2.507-10.578,8.573-10.578,15.671
		c0,9.179,12.356,21.685,21.646,22.107c13.249,26.661,36.74,48.551,63.516,48.551s50.267-21.89,63.516-48.551
		c9.29-0.422,21.646-12.928,21.646-22.107C230.546,92.094,226.167,86.028,219.968,83.521z M145.383,167.38
		c-31.403,0-56.86-51.012-56.86-83.904s25.457-45.281,56.86-45.281s56.86,12.389,56.86,45.281S176.786,167.38,145.383,167.38z"/>
	<g>
		<path style="fill:#704220;" d="M70.821,83.521c2.08,14.474,4.501,28.981,11.069,37.778c0,0-4.172-34.257,2.828-44.59
			c0,0,25-26.958,60.666-26.958s60.71,26.958,60.71,26.958c7,10.333,2.828,44.59,2.828,44.59
			c6.568-8.797,8.988-23.305,11.068-37.778c0.353-2.455,0.341-4.918,0.341-7.327C220.33,34.814,186.785,0,145.406,0
			S70.48,34.814,70.48,76.194C70.48,78.603,70.468,81.065,70.821,83.521z"/>
	</g>
	<g>
		<g>
			<path style="fill:#5B3318;" d="M71.184,86.014C76.142,49.263,107.471,20,145.406,20s69.263,29.263,74.221,66.014
				c0.122-0.831,0.244-1.662,0.363-2.493c0.353-2.455,0.341-4.918,0.341-7.327C220.33,34.814,186.785,0,145.406,0
				S70.48,34.814,70.48,76.194c0,2.409-0.012,4.872,0.341,7.327C70.94,84.352,71.061,85.184,71.184,86.014z"/>
		</g>
	</g>
</g>
<g>
</g>
<g>
</g>
<g>
</g>
<g>
</g>
<g>
</g>
<g>
</g>
<g>
</g>
<g>
</g>
<g>
</g>
<g>
</g>
<g>
</g>
<g>
</g>
<g>
</g>
<g>
</g>
<g>
</g>
</svg>
